<?xml version="1.0" encoding="UTF-8"?><svg id="Calque_2" xmlns="http://www.w3.org/2000/svg" viewBox="0 0 469.4 634.62"><defs><style>.cls-1{fill:#dda576;}.cls-2{fill:#fff;}.cls-3{fill:#f7d4b2;}.cls-4{fill:#e2a23b;}.cls-5{stroke:#000;stroke-miterlimit:10;stroke-width:2px;}.cls-5,.cls-6{fill:#ff7b22;}.cls-7{fill:#412600;}.cls-8{fill:#f7baba;}.cls-9{opacity:.48;}.cls-10{fill:#e5b58c;}.cls-11{fill:#b74f08;}.cls-12{fill:#ff9d5a;}.cls-13{fill:#301a00;}.cls-14{opacity:.6;}.cls-15{fill:#649ebf;}.cls-16{fill:#5289af;}.cls-17{fill:#ededed;}</style></defs><g id="Calque_3"><g id="_2pts"><g id="main"><g><path class="cls-3" d="m382.32,181.8c4.16-22.28-3.32-41.06-13.15-61.31-2.19-4.52-3.11-9.42-4.04-17.55-.44-3.82-.94-5.37.21-9.04.29-.92,2.49-3.45,3.86-3.71,1.09-.21,4.38.58,5.25,1.28,6.13,4.96,7.58,10.62,9.97,18.05,2.24,6.95,5.35,10.42,10.63,16.82-1.61-12.73-3.06-25.47-4.35-38.24-1.23-12.14-2.27-24.77,1.84-36.26.11-.29.22-.59.35-.89,1.98-4.55,8.72-3.6,9.41,1.31l4.81,33.9c.79,5.59.5,10.2,2.86,17.69-.51-13.86,3.24-31.94,5.5-45.63.39-2.35,1.15-6.11,2.11-8.31,1.35-3.12,7.38-1.52,8.01,1.82,3.26,17.26-2.3,33.92-2.17,54.26,3.53-12.18,7.43-25.34,13.54-40.02.61-1.48,2.2-2.39,3.76-2.31,2.29.12,2.98,2.25,3.21,4.14.73,5.9-1.08,11.79-2.38,17.6-2.88,12.82-4.39,25.37-3.84,36.99,5.18-9.42,8.56-19.65,16.14-32.79,0,0,3.47-5.82,7.05-5.84,1.37,0,4.92,1.74,5.16,2.68,1.83,7.13-4.27,14.06-8.55,24-2.91,6.75-9.19,22.73-12.02,29.54-7.6,18.3-10.44,34.36-10.22,54.23"/><path d="m385.21,182.59c1.93-10.53,1.53-21.17-.97-31.58-2.43-10.14-6.62-19.77-11.09-29.16-1.02-2.13-1.79-3.57-2.44-5.46s-1.09-3.75-1.45-5.66c-.43-2.27-.74-4.56-1.01-6.86s-.78-4.59-.56-6.86c.04-.37.09-.58.2-1.04.07-.28.16-.56.22-.84l.14-.45c-.2.44-.24.54-.12.32.1-.07.17-.28.24-.38.26-.4-.49.52.12-.16.34-.38.69-.76,1.07-1.1.06-.06.46-.34.09-.08.15-.1.3-.19.45-.28-.13.08-.61.08-.29.14-.01,0,.8.08.38.02-.37-.05.25.05.33.07.51.11,1.01.22,1.5.38.23.07.46.14.68.23-.12-.05-.46-.26-.06,0,.07.05.36.24.01-.01.21.15.41.35.6.52.88.78,1.7,1.63,2.45,2.54,1.06,1.29,2.14,3.24,2.91,4.95,1.89,4.2,2.95,9.51,5.13,13.92,2.32,4.7,5.88,8.67,9.2,12.69,1.57,1.9,5.44.42,5.12-2.12-1.81-14.39-3.56-28.82-4.84-43.27-.59-6.7-.94-13.47-.17-20.17.36-3.19,1.07-6.35,2.09-9.39.21-.64.42-1.21.75-1.78.07-.13.36-.38.01-.03.08-.08.7-.61.15-.2.17-.12.35-.22.52-.32.35-.21-.63.1.06-.03.24-.04.46-.13.7-.17-.81.14.06.09.16.04h.24c-.4-.06-.43-.06-.09,0,.23.08.46.12.69.2-.82-.26.77.57.14.06.19.15.36.33.53.51-.1-.1-.27-.49-.02-.01.05.09.39.83.16.21.11.31.19.62.25.94.07.4.12.81.18,1.22l1.01,7.13c.96,6.77,1.92,13.53,2.88,20.3.25,1.79.52,3.59.76,5.38.27,2.02.46,4.98.74,7.35.41,3.52,1.07,6.96,2.13,10.35.97,3.13,6.01,2.7,5.89-.8-.27-7.74.62-15.51,1.76-23.16s2.44-15.33,3.86-22.95c.32-1.73.69-3.45,1.21-5.14.12-.39.25-.78.39-1.16.06-.15.12-.3.17-.45-.21.55-.02.04.04.02-.02,0-.32.44-.11.18.26-.32-.42.3-.08.08.28-.18-.19.06-.21.07.08-.04.73-.19.28-.1-.38.07.45.01.57,0,.52-.01-.29-.13.21.05.11.04.89.3.62.18-.21-.09.5.3.66.41.37.25-.33-.3-.02,0,.09.08.19.17.26.26-.44-.57.2.43.04.05-.14-.32.13.65.15.73.1.54.19,1.08.27,1.63,1.12,7.58.48,15.36-.34,22.93-1.03,9.48-2.32,18.93-2.28,28.49.01,3.39,4.95,4.06,5.89.8,3.72-12.83,7.66-25.58,12.69-37.97.25-.62.44-1.46.89-1.98-.08.09.36-.14.55-.19-.35.1.6-.08.15,0l-.14-.08c.31.18.34.2.08.05-.18-.53.16.3.18.35-.21-.45.08.36.1.43.73,2.88.19,6.4-.38,9.37-.7,3.61-1.66,7.16-2.41,10.76s-1.4,7.2-1.92,10.82c-1.15,7.96-1.76,16-1.4,24.05.13,2.85,4.1,4.24,5.59,1.51,5.54-10.13,9.52-21.01,15.18-31.09.4-.72.79-1.44,1.24-2.13.16-.24.33-.48.5-.72.01-.02.44-.59.17-.24-.24.31.35-.43.41-.49.3-.36.62-.7.95-1.04.21-.21.42-.4.64-.6.68-.61-.25.15.19-.16.19-.14.39-.27.59-.39.09-.05.87-.36.27-.16,0,0,.82-.2.36-.13-.3.05.77.24-.08-.03,1.16.37,1.29.35,2.34.97.2.12.4.24.58.37-.54-.38,0-.02.08.11-1.02-1.63-.51-1.11-.46-.63.05.2.09.41.12.61-.04-.29-.04-.25,0,.12.08,1.08,0,1.92-.12,2.58-.26,1.29-.68,2.56-1.18,3.78-2.04,4.9-5.3,9.99-7.49,15.11-1.81,4.26-3.54,8.55-5.27,12.84-3.88,9.65-8.2,19.23-11.29,29.17-4.27,13.75-5.89,28.08-5.75,42.45.04,3.86,6.04,3.87,6,0-.13-13.15,1.22-26.15,4.91-38.8,3.1-10.62,7.71-20.81,11.84-31.06.97-2.4,1.93-4.79,2.91-7.19.41-1,.82-2,1.23-2.99.17-.41.34-.81.51-1.21.32-.77-.24.56.08-.18.1-.24.2-.48.31-.72,2.46-5.71,6.02-10.94,8.15-16.79.88-2.41,1.39-5.04,1.09-7.6-.17-1.46-.41-2.79-1.49-3.87-.89-.89-2.08-1.52-3.23-2.03-2.63-1.15-5.17-1.35-7.69.24-2.03,1.28-3.61,3.14-4.98,5.08-1.53,2.18-2.72,4.64-3.95,6.99-1.66,3.17-3.21,6.4-4.71,9.66-2.64,5.74-5.1,11.58-8.14,17.13l5.59,1.51c-.34-7.57.13-15.19,1.22-22.69.59-4.04,1.33-8.05,2.19-12.04s1.92-7.7,2.5-11.62c.53-3.53,1-7.69-.3-11.11-1.43-3.76-5.6-5.44-9.2-3.38-1.85,1.06-2.66,2.64-3.44,4.54s-1.58,3.9-2.33,5.86c-1.38,3.58-2.68,7.19-3.91,10.83-2.52,7.41-4.74,14.91-6.92,22.42l5.89.8c-.04-9.28,1.17-18.45,2.19-27.65.94-8.52,1.5-17.05.19-25.57-.29-1.91-.71-3.63-2.13-5.03-1.14-1.12-2.69-1.96-4.26-2.28-1.76-.35-3.64-.28-5.22.64-1.74,1-2.48,2.75-3.06,4.58-1.18,3.68-1.66,7.55-2.32,11.34-.73,4.19-1.47,8.39-2.15,12.59-1.56,9.64-3.01,19.46-2.68,29.25l5.89-.8c-.93-2.97-1.64-6.26-1.95-9.1s-.48-5.5-.86-8.24c-.21-1.5-.42-3-.64-4.49-1-7.04-2-14.07-3-21.11l-1.07-7.57c-.46-3.25-2.15-6.01-5.43-7.12-2.27-.77-4.91-.46-6.91.88-2.75,1.84-3.64,5.18-4.45,8.21-1.88,7.03-2.17,14.41-1.83,21.64.39,8.25,1.42,16.49,2.32,24.69s1.94,16.99,3.01,25.48l5.12-2.12c-2.97-3.6-5.97-6.98-8.1-11.16-2.01-3.95-2.91-8.55-4.64-12.73s-4.49-8.78-8.47-11.45c-1.65-1.1-3.98-1.58-5.93-1.7-2.21-.14-4.06,1.16-5.5,2.73-3.54,3.85-2.91,8.73-2.35,13.52.55,4.7,1.09,9.49,2.55,14,1.54,4.77,4.12,9.22,6.16,13.79,2.17,4.85,4.14,9.8,5.74,14.87,3.58,11.32,4.94,23.16,2.79,34.91-.29,1.59.44,3.23,2.1,3.69,1.46.4,3.4-.49,3.69-2.1h0Z"/></g><g><path class="cls-10" d="m372.75,92.92c-1.2,2.93-.72,6.25-.1,9.35,1.7,8.54,4.3,16.91,7.74,24.91.97,2.26,2.02,4.5,2.94,6.79,5.56,13.81,6.49,28.98,7.36,43.84-1.22-.58-2.45-1.17-3.67-1.75-.32-.15-.64-.31-.87-.58-.29-.35-.36-.84-.42-1.3-.36-2.89-.72-5.78-1.08-8.66-.24-1.94-.49-3.89-.81-5.82-3.01-18.18-12.75-34.72-15.77-52.9-.72-4.33-.99-9,1.08-12.87.38-.7.9-1.42,1.68-1.56s1.68.69,1.3,1.39"/><path class="cls-10" d="m371.3,92.52c-1.95,5.11,0,11.23,1.28,16.29,1.43,5.66,3.25,11.21,5.45,16.61s4.63,10.38,6.23,15.87c1.64,5.6,2.68,11.37,3.38,17.16.77,6.42,1.16,12.89,1.53,19.34l2.26-1.3c-.68-.32-1.36-.65-2.04-.97-.53-.25-1.57-.52-1.95-.94-.32-.36-.29-.91-.35-1.39-.12-.96-.24-1.93-.36-2.89-.38-3.03-.73-6.07-1.16-9.1-.83-5.8-2.33-11.45-4.15-17.01-3.61-11.02-8.37-21.69-10.96-33.02-.71-3.12-1.36-6.31-1.42-9.52-.03-1.49.07-2.97.43-4.42.19-.75.43-1.5.77-2.2.11-.22.23-.47.36-.68.1-.19.24-.36.41-.5-.23-.07-.34-.24-.33-.53-.6,1.84,2.3,2.63,2.89.8.4-1.24-.26-2.48-1.4-3.03-1.4-.67-2.83.03-3.73,1.15-1.92,2.42-2.42,5.98-2.41,8.98.01,6.51,1.95,13.16,3.9,19.32,4.06,12.89,9.93,25.26,12.31,38.64.71,4,1.12,8.05,1.62,12.08.2,1.58.07,3.98,1.22,5.24.53.58,1.29.87,1.99,1.2.95.45,1.91.91,2.86,1.36s2.33-.07,2.26-1.3c-.66-11.31-1.34-22.72-4.07-33.76-1.36-5.52-3.4-10.73-5.69-15.93-2.33-5.29-4.33-10.71-5.92-16.27-.9-3.14-1.68-6.32-2.32-9.52-.61-3-1.11-6.07,0-9.01.69-1.81-2.21-2.59-2.89-.8h0Z"/></g><g><path class="cls-10" d="m396.62,126.98c1.3-.44,1.58-2.12,1.62-3.5.4-14.27-1.77-28.5-1.66-42.78.06-8.73.98-17.44,1.72-26.14.12-1.42-.03-3.26-1.39-3.67-.83-.25-1.74.25-2.24.95s-.68,1.59-.83,2.44c-3.2,17.21-3,35.04.58,52.18,1.12,5.39,2.59,10.83,2.06,16.31-.15,1.55-.46,3.13-.06,4.64"/><path class="cls-10" d="m397.38,128.28c1.96-.85,2.31-3.14,2.37-5.04.08-2.79.05-5.58-.04-8.36-.17-5.66-.6-11.31-.97-16.96s-.69-11.3-.66-16.97.43-11.36.9-17.02c.24-2.79.49-5.58.73-8.38.16-1.86.32-4.1-1.24-5.46-1.81-1.58-4.4-.45-5.38,1.48-1.08,2.13-1.19,4.93-1.53,7.26-1.6,10.84-1.92,21.86-.89,32.77.57,6.08,1.6,12.07,2.89,18.03.64,2.94,1.28,5.9,1.46,8.91.1,1.57.06,3.12-.1,4.68s-.29,3.03.04,4.57c.41,1.89,3.3,1.09,2.89-.8-.51-2.33.27-4.91.22-7.29s-.41-4.81-.85-7.17c-.91-4.84-2.07-9.6-2.78-14.48-1.44-9.86-1.73-19.9-.95-29.83.38-4.79.79-9.81,1.98-14.47.11-.44.62-1.91,1.18-1.22.43.53.16,1.9.11,2.5-.21,2.55-.45,5.09-.67,7.64-.89,10.29-1.22,20.48-.62,30.8.32,5.65.78,11.3,1.06,16.96.14,2.87.24,5.73.26,8.6,0,1.47.02,2.95-.05,4.43-.03.82-.03,1.83-.88,2.2-1.77.77-.24,3.35,1.51,2.59h0Z"/></g><g><path class="cls-10" d="m412.19,103.75c5.07-13.73,8.21-28.16,9.31-42.75.2-2.72.33-5.5-.43-8.12-.06-.21-.13-.43-.3-.57-.55-.46-1.28.33-1.54,1-2.16,5.64-2.42,11.82-3.92,17.67-.92,3.62-2.32,7.12-3.01,10.8-1.39,7.37.13,14.94-.05,22.44"/><path class="cls-10" d="m413.64,104.14c5.15-14,8.35-28.72,9.4-43.6.13-1.82.19-3.64-.02-5.45-.16-1.37-.3-3.53-1.73-4.2-3.37-1.59-4.47,4.84-4.91,6.78-.82,3.54-1.25,7.15-1.99,10.71s-1.97,6.84-2.89,10.28c-2.27,8.45-.57,16.98-.73,25.56-.04,1.93,2.96,1.93,3,0,.13-6.84-1.14-13.73-.25-20.55.45-3.44,1.64-6.72,2.63-10.03.92-3.08,1.49-6.21,2.03-9.38s1.09-6.57,2.2-9.7c.08-.22.35-.67.38-.9l.08-.11c-1.06-.61-1.42-.56-1.09.16-.05.68.31,1.56.36,2.28.12,1.67.02,3.34-.1,5.01-.5,6.77-1.47,13.5-2.87,20.15-1.59,7.55-3.73,14.97-6.39,22.2-.67,1.81,2.23,2.6,2.89.8h0Z"/></g><g><path class="cls-10" d="m426.02,105.39c-.65.28-.59,1.35.01,1.71s1.42.13,1.93-.35.78-1.16,1.03-1.82c1.87-4.8,3.75-9.61,5-14.61,1.24-4.96,1.87-10.11,3.8-14.85,1.15-2.82,2.77-5.52,3.2-8.54.11-.78.09-1.69-.5-2.2-1.2,1.12-1.79,2.73-2.34,4.28-3.29,9.28-6.58,18.56-9.86,27.84-1.16,3.27-2.32,6.89-1.04,10.12"/><path class="cls-10" d="m425.27,104.09c-1.21.8-1.58,2.38-.73,3.6.98,1.4,2.96,1.32,4.21.34,1.33-1.05,1.79-2.93,2.38-4.45.73-1.89,1.46-3.79,2.13-5.7,1.32-3.76,2.34-7.57,3.15-11.47s1.63-7.89,3.29-11.58c1.32-2.93,4.53-8.18,1.86-11.16-.54-.6-1.57-.55-2.12,0-2.45,2.46-3.24,6.41-4.37,9.59-1.4,3.94-2.79,7.89-4.19,11.83-1.37,3.86-2.74,7.71-4.1,11.57-1.2,3.43-2.26,7.15-.97,10.71.65,1.8,3.55,1.02,2.89-.8-1.19-3.29.1-6.66,1.21-9.79,1.29-3.64,2.58-7.27,3.86-10.9s2.52-7.12,3.78-10.67c.63-1.78,1.26-3.56,1.89-5.34.52-1.46,1-2.96,2.12-4.09h-2.12c.38.42-.03,1.57-.14,2.02-.21.84-.5,1.66-.82,2.46-.66,1.62-1.46,3.18-2.12,4.8-1.43,3.53-2.15,7.28-2.93,10.99s-1.74,7.26-2.98,10.8c-.62,1.77-1.28,3.52-1.95,5.27-.33.85-.63,1.71-.99,2.55-.14.32-.33.59-.49.89-.07.12-.18.19-.32.21.47.19.5.49.09.9,1.61-1.06.1-3.66-1.51-2.59h0Z"/></g><g><path class="cls-10" d="m439.94,121.51c-.38.65-.78,1.34-.76,2.09s.64,1.54,1.38,1.44c.65-.09,1.04-.76,1.33-1.35,5.03-10.29,10.07-20.57,15.1-30.86,1.1-2.24,2.2-4.5,2.76-6.93-1.21-.13-2.11,1.03-2.75,2.06-5.07,8.18-9.48,16.78-13.15,25.68-1.23,2.99-2.4,6.11-2.31,9.34"/><path class="cls-10" d="m438.65,120.76c-.92,1.58-1.51,3.62.01,5.06s3.47.53,4.39-1.06c1.13-1.95,2.01-4.09,3-6.11,1.09-2.24,2.19-4.47,3.28-6.71,2.12-4.32,4.23-8.65,6.35-12.97,2-4.08,4.45-8.21,5.54-12.65.23-.95-.45-1.89-1.45-1.9-1.62-.02-2.78.98-3.67,2.24-1.03,1.44-1.89,3.03-2.78,4.56-1.96,3.35-3.81,6.77-5.54,10.24-1.72,3.45-3.32,6.96-4.82,10.51s-2.94,7.13-2.9,11.02c.02,1.93,3.02,1.93,3,0-.04-3.45,1.3-6.67,2.61-9.8s2.77-6.3,4.29-9.39,3.11-6.09,4.79-9.06c.8-1.42,1.63-2.83,2.47-4.22.48-.8,1.41-3.12,2.55-3.1l-1.45-1.9c-.84,3.43-2.6,6.55-4.14,9.7-1.68,3.43-3.36,6.86-5.03,10.29-1.68,3.43-3.36,6.86-5.03,10.29-.8,1.64-1.6,3.28-2.41,4.92-.38.78-1.07,1.7-1.25,2.54l-.18.29c.32.12.47.04.45-.26.21-.23.34-.72.5-1,.97-1.67-1.62-3.18-2.59-1.51h0Z"/></g><path d="m385.21,182.59c1.93-10.53,1.53-21.17-.97-31.58-2.43-10.14-6.62-19.77-11.09-29.16-1.02-2.13-1.79-3.57-2.44-5.46s-1.09-3.75-1.45-5.66c-.43-2.27-.74-4.56-1.01-6.86s-.78-4.59-.56-6.86c.04-.37.09-.58.2-1.04.07-.28.16-.56.22-.84l.14-.45c-.2.44-.24.54-.12.32.1-.07.17-.28.24-.38.26-.4-.49.52.12-.16.34-.38.69-.76,1.07-1.1.06-.06.46-.34.09-.08.15-.1.3-.19.45-.28-.13.08-.61.08-.29.14-.01,0,.8.08.38.02-.37-.05.25.05.33.07.51.11,1.01.22,1.5.38.23.07.46.14.68.23-.12-.05-.46-.26-.06,0,.07.05.36.24.01-.01.21.15.41.35.6.52.88.78,1.7,1.63,2.45,2.54,1.06,1.29,2.14,3.24,2.91,4.95,1.89,4.2,2.95,9.51,5.13,13.92,2.32,4.7,5.88,8.67,9.2,12.69,1.57,1.9,5.44.42,5.12-2.12-1.81-14.39-3.56-28.82-4.84-43.27-.59-6.7-.94-13.47-.17-20.17.36-3.19,1.07-6.35,2.09-9.39.21-.64.42-1.21.75-1.78.07-.13.36-.38.01-.03.08-.08.7-.61.15-.2.17-.12.35-.22.52-.32.35-.21-.63.1.06-.03.24-.04.46-.13.7-.17-.81.14.06.09.16.04h.24c-.4-.06-.43-.06-.09,0,.23.08.46.12.69.2-.82-.26.77.57.14.06.19.15.36.33.53.51-.1-.1-.27-.49-.02-.01.05.09.39.83.16.21.11.31.19.62.25.94.07.4.12.81.18,1.22l1.01,7.13c.96,6.77,1.92,13.53,2.88,20.3.25,1.79.52,3.59.76,5.38.27,2.02.46,4.98.74,7.35.41,3.52,1.07,6.96,2.13,10.35.97,3.13,6.01,2.7,5.89-.8-.27-7.74.62-15.51,1.76-23.16s2.44-15.33,3.86-22.95c.32-1.73.69-3.45,1.21-5.14.12-.39.25-.78.39-1.16.06-.15.12-.3.17-.45-.21.55-.02.04.04.02-.02,0-.32.44-.11.18.26-.32-.42.3-.08.08.28-.18-.19.06-.21.07.08-.04.73-.19.28-.1-.38.07.45.01.57,0,.52-.01-.29-.13.21.05.11.04.89.3.62.18-.21-.09.5.3.66.41.37.25-.33-.3-.02,0,.09.08.19.17.26.26-.44-.57.2.43.04.05-.14-.32.13.65.15.73.1.54.19,1.08.27,1.63,1.12,7.58.48,15.36-.34,22.93-1.03,9.48-2.32,18.93-2.28,28.49.01,3.39,4.95,4.06,5.89.8,3.72-12.83,7.66-25.58,12.69-37.97.25-.62.44-1.46.89-1.98-.08.09.36-.14.55-.19-.35.1.6-.08.15,0l-.14-.08c.31.18.34.2.08.05-.18-.53.16.3.18.35-.21-.45.08.36.1.43.73,2.88.19,6.4-.38,9.37-.7,3.61-1.66,7.16-2.41,10.76s-1.4,7.2-1.92,10.82c-1.15,7.96-1.76,16-1.4,24.05.13,2.85,4.1,4.24,5.59,1.51,5.54-10.13,9.52-21.01,15.18-31.09.4-.72.79-1.44,1.24-2.13.16-.24.33-.48.5-.72.01-.02.44-.59.17-.24-.24.31.35-.43.41-.49.3-.36.62-.7.95-1.04.21-.21.42-.4.64-.6.68-.61-.25.15.19-.16.19-.14.39-.27.59-.39.09-.05.87-.36.27-.16,0,0,.82-.2.36-.13-.3.05.77.24-.08-.03,1.16.37,1.29.35,2.34.97.2.12.4.24.58.37-.54-.38,0-.02.08.11-1.02-1.63-.51-1.11-.46-.63.05.2.09.41.12.61-.04-.29-.04-.25,0,.12.08,1.08,0,1.92-.12,2.58-.26,1.29-.68,2.56-1.18,3.78-2.04,4.9-5.3,9.99-7.49,15.11-1.81,4.26-3.54,8.55-5.27,12.84-3.88,9.65-8.2,19.23-11.29,29.17-4.27,13.75-5.89,28.08-5.75,42.45.04,3.86,6.04,3.87,6,0-.13-13.15,1.22-26.15,4.91-38.8,3.1-10.62,7.71-20.81,11.84-31.06.97-2.4,1.93-4.79,2.91-7.19.41-1,.82-2,1.23-2.99.17-.41.34-.81.51-1.21.32-.77-.24.56.08-.18.1-.24.2-.48.31-.72,2.46-5.71,6.02-10.94,8.15-16.79.88-2.41,1.39-5.04,1.09-7.6-.17-1.46-.41-2.79-1.49-3.87-.89-.89-2.08-1.52-3.23-2.03-2.63-1.15-5.17-1.35-7.69.24-2.03,1.28-3.61,3.14-4.98,5.08-1.53,2.18-2.72,4.64-3.95,6.99-1.66,3.17-3.21,6.4-4.71,9.66-2.64,5.74-5.1,11.58-8.14,17.13l5.59,1.51c-.34-7.57.13-15.19,1.22-22.69.59-4.04,1.33-8.05,2.19-12.04s1.92-7.7,2.5-11.62c.53-3.53,1-7.69-.3-11.11-1.43-3.76-5.6-5.44-9.2-3.38-1.85,1.06-2.66,2.64-3.44,4.54s-1.58,3.9-2.33,5.86c-1.38,3.58-2.68,7.19-3.91,10.83-2.52,7.41-4.74,14.91-6.92,22.42l5.89.8c-.04-9.28,1.17-18.45,2.19-27.65.94-8.52,1.5-17.05.19-25.57-.29-1.91-.71-3.63-2.13-5.03-1.14-1.12-2.69-1.96-4.26-2.28-1.76-.35-3.64-.28-5.22.64-1.74,1-2.48,2.75-3.06,4.58-1.18,3.68-1.66,7.55-2.32,11.34-.73,4.19-1.47,8.39-2.15,12.59-1.56,9.64-3.01,19.46-2.68,29.25l5.89-.8c-.93-2.97-1.64-6.26-1.95-9.1s-.48-5.5-.86-8.24c-.21-1.5-.42-3-.64-4.49-1-7.04-2-14.07-3-21.11l-1.07-7.57c-.46-3.25-2.15-6.01-5.43-7.12-2.27-.77-4.91-.46-6.91.88-2.75,1.84-3.64,5.18-4.45,8.21-1.88,7.03-2.17,14.41-1.83,21.64.39,8.25,1.42,16.49,2.32,24.69s1.94,16.99,3.01,25.48l5.12-2.12c-2.97-3.6-5.97-6.98-8.1-11.16-2.01-3.95-2.91-8.55-4.64-12.73s-4.49-8.78-8.47-11.45c-1.65-1.1-3.98-1.58-5.93-1.7-2.21-.14-4.06,1.16-5.5,2.73-3.54,3.85-2.91,8.73-2.35,13.52.55,4.7,1.09,9.49,2.55,14,1.54,4.77,4.12,9.22,6.16,13.79,2.17,4.85,4.14,9.8,5.74,14.87,3.58,11.32,4.94,23.16,2.79,34.91-.29,1.59.44,3.23,2.1,3.69,1.46.4,3.4-.49,3.69-2.1h0Z"/></g><g id="sweat"><g><path class="cls-12" d="m444.22,251.5c-2.72-17.39-4.45-29.14-11.93-38.28-5.43-6.63-3.86-3.77-12.27-5.47-8.4-1.69-17.06-1.45-25.62-1.19-11.42.34-5.99-7.55-14.56,0-5.74,5.06-19.36,16.08-25.83,31.32-7.14,17.67-15.32,41.3-22.46,58.97l-17.36,47.44c-3.32,5.16-7.62,12.01-12.71,15.38-3.17,2.09-7.85,4.26-14.2,6.27-5.76,1.82-13.97,4.06-24.29,5.33-.67,2.03-26.93,29.32-58.33,51.51-42.47-17.92-59.45-10.55-76.02-41.28.32.32-21.23,3.5-33.38,6-16.6,3.42-33.91,8.5-45.39,20.97-8.95,9.72-13.25,22.74-16.96,35.41-16.33,55.82-20.91,124.99-29.97,183.15,19.42-10.68,41.71-11.52,63.61-8.36,22.66,3.26,44.56,10.64,67.45,12.31,26.19,1.91,52.38-1.31,78.31-4.71,12.72-1.67,25.43-3.4,38.2-4.62,12.69-1.21,24.84-.2,37.43,1.61,12.65,1.81,24.16,3.42,36.74.36,2.11-.52,4.22-1.07,6.32-1.64,4.2-42.75,4.02-83.28,9.03-126.44,4.91-8.08,25.28-26.95,31.1-34.4,15.18-19.44,29.54-32.96,37.29-56.38,7.28-21.99,14.56-43.98,21.83-65.97,8.85-26.73,18.33-59.48,13.97-87.29Z"/><path d="m447.11,250.7c-1.89-12.08-3.18-25.43-10.01-35.95-2.09-3.23-5.14-8.02-9.15-9.04-1.66-.42-3.47-.28-5.16-.51-3.91-.53-7.73-1.34-11.68-1.6s-8.29-.26-12.43-.16c-2.71.06-6.19.65-8.69-.41-.18-.08-.55-.29-.8-.44-.42-.26.16.17-.41-.31-.52-.44-.99-.93-1.58-1.3-1.53-.96-3.26-.84-4.83-.06-1.98.98-3.66,2.64-5.31,4.08s-3.29,2.86-4.9,4.32c-4.28,3.89-8.34,8.03-11.92,12.58-8.74,11.13-12.92,24.66-17.8,37.76-4.56,12.24-9.25,24.42-13.88,36.62-4.81,12.67-9.32,25.46-13.98,38.19l-2.74,7.49c-1.01,2.77-2.79,4.83-4.7,7.49s-3.94,5.2-6.49,7.13c-2.24,1.7-4.91,2.96-7.49,4.04-6.02,2.55-12.49,4.29-18.86,5.68-3.74.82-7.53,1.48-11.33,1.96-1.45.18-2.37.83-2.89,2.2.48-1.26-.05-.3-.02-.19.07.22.19-.24.08-.1-.13.16-.27.33-.4.49-.76.89-1.54,1.76-2.33,2.62-2.6,2.8-5.3,5.51-8.04,8.18-8.52,8.31-17.43,16.22-26.64,23.75-6.36,5.21-12.89,10.21-19.6,14.96l2.31-.3c-12.77-5.36-25.94-9.16-39.19-13.08-8.66-2.56-17.34-5.54-24.06-11.83-4.57-4.28-8.01-9.52-10.98-15-1.37-2.52-5.83-1.49-5.59,1.51h0c.29-.69.59-1.4.88-2.11,1.56-1.25,1.42-.67.55-.55-.38.05-.75.15-1.13.22-1.3.25-2.6.47-3.91.69-3.88.66-7.77,1.3-11.66,1.96-8.77,1.49-17.56,3.01-26.18,5.27-9.74,2.55-19.51,6.09-27.8,11.91-8.66,6.08-14.95,14.39-19.27,24-4.32,9.61-7.17,19.86-9.83,30.02-2.8,10.67-5.15,21.45-7.22,32.28-4.22,22.07-7.29,44.33-10.15,66.61-3.19,24.83-6.03,49.71-9.87,74.44-.39,2.53,1.94,4.73,4.41,3.39,38.59-20.96,81.35-1.61,121.21,3.51,22.26,2.86,44.95,1.14,67.15-1.42,11.14-1.28,22.25-2.82,33.37-4.26,11.17-1.44,22.47-3.15,33.75-3.32,12.24-.19,24.19,1.77,36.28,3.25,5.89.72,11.83,1.18,17.76.82,6.1-.37,11.93-1.77,17.81-3.34,1.38-.37,2.07-1.57,2.2-2.89,2.89-29.58,3.75-59.3,5.71-88.94.49-7.44,1.06-14.87,1.74-22.29.35-3.76.72-7.52,1.13-11.28.1-.87.17-1.75.29-2.62s0-.27-.1-.06c.07-.16.23-.39.35-.54.45-.58.84-1.21,1.29-1.79,5.71-7.41,12.66-13.93,19.15-20.64,6.83-7.06,12.86-14.63,19.11-22.21,7.68-9.3,15.44-18.64,21.29-29.24,6.86-12.42,10.52-26.39,14.95-39.79,4.78-14.45,9.57-28.9,14.35-43.35,8.34-25.24,16.43-52.08,14.89-78.97-.18-3.21-.55-6.4-1.03-9.58-.25-1.61-2.26-2.47-3.69-2.1-1.72.45-2.34,2.1-2.1,3.69,4.02,26.39-3.71,53.72-11.68,78.66-4.46,13.94-9.16,27.8-13.76,41.7-2.4,7.24-4.79,14.48-7.19,21.71-2.19,6.61-4.19,13.31-7.17,19.63-5.17,10.93-12.5,20.51-20.14,29.8-6.45,7.85-12.61,15.93-19.64,23.27-6.63,6.92-13.55,13.62-19.75,20.94-1.24,1.46-2.45,2.96-3.57,4.52-1.68,2.36-1.65,5-1.95,7.82-.79,7.33-1.45,14.67-2.02,22.02-2.27,29.44-3.03,58.97-5.46,88.4-.31,3.74-.65,7.48-1.01,11.22l2.2-2.89c-5.36,1.43-10.66,2.78-16.22,3.12-5.11.31-10.24.01-15.32-.54-10.95-1.19-21.75-3.16-32.79-3.49s-22.46,1.12-33.62,2.5-22.52,2.98-33.8,4.35c-22.42,2.74-45.23,4.84-67.8,2.66s-42.29-8.94-63.7-11.97c-22.25-3.16-45.4-2.22-65.53,8.72l4.41,3.39c6.9-44.4,10.69-89.23,18.63-133.48,3.8-21.18,8.14-42.8,15.65-63.03,3.61-9.72,8.76-18.85,16.91-25.46,7.72-6.26,17.25-9.93,26.73-12.56s19.93-4.42,29.99-6.12c3.96-.67,7.93-1.31,11.89-2,2.09-.37,6.27-.57,6.02-3.69l-5.59,1.51c4.78,8.8,10.94,16.85,19.65,22.03,8.11,4.83,17.5,7.13,26.49,9.72,5.95,1.71,11.89,3.5,17.74,5.55,3.51,1.22,6.99,2.53,10.44,3.92,1.85.75,3.83,2.09,5.81,1.14,1.84-.88,3.61-2.58,5.25-3.79,12.67-9.34,24.76-19.46,36.26-30.2,4.34-4.05,8.6-8.17,12.69-12.47,1.89-1.99,4.49-4.22,5.5-6.84l-2.89,2.2c7.06-.89,14.04-2.23,20.89-4.17,6.11-1.73,12.31-3.77,17.8-7.01,5.51-3.26,9.34-8.48,12.81-13.73,1.38-2.09,2.5-3.98,3.34-6.3,4.9-13.39,9.8-26.78,14.7-40.17,2.49-6.8,5.2-13.52,7.76-20.29,5.12-13.57,10-27.24,15.34-40.73,4.57-11.55,12.36-20.74,21.52-28.95,1.5-1.35,3.04-2.67,4.56-4,.84-.74,1.67-1.51,2.59-2.14.2-.14.89-.62.74-.49,0,0-.19.03-.4-.02-.66-.16-1.11-.61-.34.06.6.52,1.2,1.04,1.87,1.47,1.95,1.24,4.31,1.65,6.58,1.77,3.96.2,7.98-.19,11.95-.17s8.04.2,12,.81c2.83.44,5.59,1.04,8.46,1.22.35.02.7.03,1.05.07.59.05-.4-.11.27.05s-.23-.2.22.07c.53.32.17.08.51.39,8.14,7.55,10.55,19.03,12.37,29.49.63,3.6,1.18,7.22,1.75,10.83.25,1.61,2.25,2.47,3.69,2.1,1.71-.45,2.34-2.1,2.1-3.69Z"/></g><g><path class="cls-6" d="m27.32,612.74c0-.07,0-.14.02-.21,5.87-51.91,8.86-96.84,19.15-141.61,6.53-28.41,23.51-71.11,47.49-81.11-30.65,7.04-44.43,22.89-54.14,45.33-2.2,5.09-3.79,10.38-4.86,15.8-3.8,19.38-7.6,38.77-11.39,58.15-2.87,14.67-5.76,29.4-6.4,44.32-.28,6.38-.14,12.79-.72,19.15-1.45,15.78-7.26,30.89-9.78,46.52,6.62-3.08,13.54-5.13,20.64-6.35Z"/><path class="cls-6" d="m30.32,612.74c.38-4.75,1.05-9.5,1.56-14.24s.99-9.3,1.47-13.95c.95-9.09,1.88-18.18,2.85-27.27,1.85-17.18,3.87-34.35,6.6-51.42,2.46-15.37,5.25-30.82,9.62-45.77,3.92-13.37,8.87-26.22,15.61-38.39,1.65-2.98,3.4-5.9,5.29-8.72s3.57-5.11,5.63-7.54c1.95-2.3,4.04-4.49,6.29-6.48,2.11-1.86,3.75-3.11,6.38-4.63.59-.34,1.18-.66,1.79-.97.28-.14.56-.28.84-.41.17-.08,1.04-.46.5-.24,1.49-.63,2.56-1.98,2.1-3.69-.44-1.62-2.11-2.46-3.69-2.1-13.74,3.18-27,8.89-37.34,18.68-9.4,8.89-16.11,20.73-20.51,32.81-3.31,9.11-4.64,18.87-6.5,28.35-1.93,9.85-3.86,19.71-5.79,29.56-3.79,19.34-8.23,38.79-8.91,58.56-.17,4.99-.14,10-.46,14.99-.29,4.63-.98,9.2-1.91,13.74-1.9,9.32-4.66,18.44-6.66,27.75-.49,2.3-.94,4.61-1.32,6.93-.44,2.67,1.93,4.53,4.41,3.39,6.33-2.92,13.07-4.85,19.92-6.05,1.6-.28,2.5-2.23,2.1-3.69-.46-1.69-2.09-2.38-3.69-2.1-7.39,1.3-14.54,3.51-21.35,6.66l4.41,3.39c1.52-9.32,4.16-18.39,6.37-27.56s3.72-18.72,3.97-28.35.64-19.12,2.02-28.65,3.3-19.1,5.17-28.61c1.9-9.69,3.8-19.38,5.7-29.08.96-4.89,1.92-9.77,2.87-14.66s1.76-9.63,2.88-14.39c1.73-7.32,4.61-14.25,8.17-20.86,1.41-2.62,2.94-5.18,4.62-7.64.42-.62.85-1.22,1.29-1.83.2-.28.41-.56.62-.84.09-.12.18-.24.27-.36.18-.24-.14.18.17-.21.92-1.17,1.87-2.3,2.86-3.4,2-2.22,4.16-4.31,6.46-6.22,2.03-1.69,4.52-3.45,7.12-5.03,5.99-3.62,12.1-6.07,18.81-8.01,1.93-.56,3.88-1.05,5.83-1.5l-1.6-5.79c-11.82,4.99-20.34,15.39-26.97,26.04-7.61,12.21-13.23,25.71-17.66,39.37-4.75,14.62-7.76,29.76-10.36,44.9-3.01,17.46-5.22,35.06-7.17,52.66-2.07,18.6-3.87,37.22-5.91,55.82-.26,2.34-.59,4.68-.78,7.02-.13,1.62,1.47,3,3,3,1.73,0,2.87-1.38,3-3Z"/></g><g><path class="cls-6" d="m119.05,623.36c4.92.77,9.87,1.39,14.86,1.75.05-1.22-.21-2.99-.15-3.55l-.14-7.46s.16,4.86-.05-5.25c-.24-11.83-.59-25.81,0-37.63.47-9.34,1.83-32.84,0-42.03-1.58-7.94-1.44-15.03-3.02-22.97-.9-4.51-3.95-11.3-8.7-11.98-1.25,27.79,2.25,56.67,1,84.46-.64,14.21-4.1,30.19-3.8,44.66Z"/><path class="cls-6" d="m118.25,626.26c5.2.81,10.41,1.47,15.66,1.85,1.64.12,2.97-1.47,3-3,.03-1.97-.16-3.96-.2-5.94-.03-1.69-.06-3.38-.09-5.07h-6c.03.93.04,1.81.46,2.68,1.16,2.39,4.83,1.64,5.48-.72.21-.74.11-1.62.1-2.38-.03-2.11-.08-4.22-.12-6.33-.11-5.32-.22-10.63-.27-15.95-.08-8.78.18-17.52.61-26.29.38-7.81.7-15.64.6-23.47-.04-3.36-.14-6.74-.54-10.09-.24-2.04-.67-4.03-.99-6.06-.4-2.59-.64-5.2-.89-7.81-.52-5.46-.8-11.28-2.87-16.42-1.69-4.22-4.65-9.1-9.54-9.93-1.96-.33-3.71.8-3.8,2.89-.76,17.24.25,34.48.86,51.7.31,8.61.52,17.22.36,25.83-.15,8.09-.88,16.09-1.86,24.12-1.11,9.12-2.33,18.27-2.17,27.47.07,3.86,6.07,3.87,6,0-.29-16.25,3.46-32.26,3.95-48.48.51-17.18-.58-34.35-1.13-51.52-.31-9.71-.44-19.42-.02-29.12l-3.8,2.89c.38.06.75.15,1.11.28-.45-.16-.02,0,.07.04.21.12.42.24.63.37.47.31.15.06.56.47.34.33.66.67.96,1.03-.13-.16.37.51.49.71.27.42.53.85.77,1.29.46.85.75,1.49,1,2.17,1.62,4.36,1.93,9.16,2.37,13.75s1.21,9.54,1.92,14.32c.06.43-.06-.55-.02-.11.02.16.04.32.06.48.04.38.08.75.12,1.13.07.77.13,1.54.17,2.3.1,1.72.16,3.44.19,5.16.3,15.75-1.26,31.46-1.22,47.21.02,5.75.12,11.5.24,17.25.05,2.62.11,5.24.16,7.86.01.61.02,1.22.03,1.83s-.21.93.1-.2l5.48-.72c.75,1.54.42,1.88.38.87,0-.18-.01-.35-.02-.53-.13-3.85-6.07-3.87-6,0,.03,1.69.06,3.38.09,5.07.04,1.97.23,3.97.2,5.94l3-3c-4.71-.34-9.4-.91-14.06-1.64-1.6-.25-3.23.41-3.69,2.1-.39,1.42.49,3.44,2.1,3.69Z"/></g><g><path class="cls-6" d="m306.15,357.89c38.21-25.1,42.42-75.9,57.42-109.4,4.26-9.51,9.41-19.13,9.34-29.54-4.12-.44-8.16,1.84-10.86,4.98s-4.3,7.06-5.79,10.92c-9.58,24.69-16.98,50.16-25.04,75.39-3.45,10.81-7.06,21.65-12.66,31.52-5.59,9.87-4.84,9.08-13.1,16.77"/><path class="cls-6" d="m306.91,359.19c17.2-11.35,28.32-28.71,36.1-47.44,7.44-17.91,11.89-36.84,18.76-54.95,4.69-12.34,12.64-24.24,12.64-37.85,0-.86-.69-1.43-1.5-1.5-4.9-.43-9.49,2.34-12.46,6.08-3.38,4.24-5.13,9.53-7.02,14.54-4.26,11.25-8.1,22.66-11.78,34.11s-7.16,22.81-10.78,34.2-6.86,21.86-12.18,32c-1.98,3.78-4.02,7.73-6.51,11.2-2.15,2.98-5.11,5.41-7.78,7.9-1.42,1.32.71,3.44,2.12,2.12,2.5-2.33,5.17-4.59,7.31-7.27,1.91-2.38,3.35-5.07,4.84-7.71,5.47-9.69,9.43-19.9,12.87-30.47,7.26-22.36,13.81-44.96,21.77-67.1,1.09-3.04,2.21-6.07,3.36-9.09s2.18-5.88,3.63-8.66c2.49-4.77,6.78-9.36,12.62-8.85l-1.5-1.5c0,12.32-7.01,23.17-11.45,34.27-3.38,8.45-6.07,17.16-8.79,25.84-5.81,18.55-11.7,37.48-22.5,53.85-6.15,9.33-13.93,17.51-23.28,23.68-1.6,1.06-.1,3.66,1.51,2.59h0Z"/></g><path d="m6.97,624.58c6.55-44.32,9.93-89.09,18.03-133.18,2.07-11.28,4.38-22.55,7.24-33.66,2.33-9.04,4.74-18.17,8.33-26.81,3.54-8.51,8.46-16.53,15.21-22.87,5.83-5.47,12.87-9.57,20.28-12.5,17.2-6.79,35.88-8.4,54-11.17l-3.39-1.38c.54,1,1.08,1.99,1.6,3,.19.37.73,1.77.29.5l.3-2.31h0c1.57-.19,3.14-.4,4.71-.6.84.94.25.32.07-.03-.21-.42-.46-.82-.69-1.23s-.43-.8-.64-1.21c-.08-.16-.14-.37-.25-.52l-.08-.17c.44.79.39,1.65-.13,2.57h-5.18c4.95,10.36,13.36,18.27,23.52,23.47,4.9,2.51,10.08,4.47,15.32,6.1s11.04,2.61,16.38,4.39c6.73,2.24,13,5.53,19.97,7.08,1.64.36,3.4.78,5.08.85,1.97.08,3.1-1.38,4.45-2.62,2.49-2.28,5.05-4.48,7.65-6.64,10.6-8.83,21.82-16.91,32.05-26.17,2.55-2.31,5.03-4.68,7.42-7.15,1.16-1.2,2.32-2.41,3.43-3.66.62-.7,1.05-1.29,1.41-2.14.27-.65.45-1.72.87-2.26.61-.79,1.77-.66,2.8-.81,1.35-.2,2.7-.41,4.05-.64,2.61-.44,5.22-.95,7.8-1.54,10.3-2.35,20.51-6.13,28.71-12.97,4.03-3.36,7.45-7.55,9.91-12.19,3.12-5.91,4.98-12.57,7.19-18.86,5.03-14.31,9.91-28.67,15.11-42.91s10.71-28.32,17-42.08c2.79-6.11,5.39-12.51,9.24-18.05,3.48-5,7.96-9.41,12.93-12.92,2.51-1.77,5.15-3.34,7.89-4.72l-2.31.3c7.11,2.34,14.19,3.34,21.65,2.83,3.92-.27,7.86-.07,11.74.56,2,.33,3.99.74,5.97,1.21,1.52.36,3.13.55,4.5,1.36,2.28,1.34,3.76,3.74,5.02,5.99,1.47,2.65,2.89,5.42,3.82,8.3,2.5,7.74,4.19,15.75,5.01,23.84,3.24,32.22-6.07,63.99-16.46,94.12-2.64,7.65-5.38,15.26-8.08,22.88-1.36,3.83-3.06,7.7-3.88,11.69s-1.72,7.74-2.96,11.6c-4.66,14.55-10.16,29.09-19.68,41.23-4.99,6.36-9.97,12.74-15.08,19-5.14,6.3-10.27,13.04-16.17,18.65s-11.08,11.41-16.49,17.31c-2.5,2.72-5.4,4.98-6.13,8.78-.32,1.66-.31,3.35-.48,5.03-.19,1.9-.88,3.65-.92,5.59s.51,3.79.4,5.67-.61,3.89-.76,5.85c-.3,3.93-.21,7.88-.48,11.82-.57,8.46-1.19,16.91-1.84,25.36-1.31,17.23-2.67,34.45-3.7,51.69-.25,4.18-.48,8.36-.68,12.54-.19,3.86,5.81,3.85,6,0,1.41-28.92,4.03-57.77,6.02-86.65.24-3.44.44-6.85.49-10.3.05-3.23.56-6.27.93-9.44.19-1.62-.19-3.29-.32-4.9-.14-1.76.22-3.17.56-4.87.49-2.49-.19-5.97,1.47-8.05,2.04-2.56,4.57-4.85,6.75-7.29s4.31-4.84,6.54-7.19c2.39-2.53,5.02-4.8,7.45-7.28s4.76-5.26,7.07-7.93c8.97-10.37,17.62-21.12,25.88-32.07,7.72-10.24,12.72-22.51,16.83-34.56,1.05-3.08,2.05-6.18,3.03-9.28,1.04-3.29,1.47-6.63,2.33-9.95,1.7-6.57,4.51-13.01,6.79-19.41,4.61-12.95,9.17-25.93,12.97-39.14,7.45-25.88,11.96-53.09,7.32-79.91-1.12-6.47-2.44-13.6-5.27-19.57-2.09-4.4-4.19-9.33-7.94-12.6-4.39-3.83-11.01-4.49-16.57-5.23-3.38-.45-6.77-.66-10.18-.48s-6.37.37-9.64.04c-2.89-.29-5.73-.94-8.51-1.76-1.35-.4-2.88-1.2-4.3-.85s-3.03,1.5-4.31,2.25c-4.98,2.93-9.62,6.56-13.6,10.75-8.84,9.3-13.56,21.58-18.58,33.18-11.26,25.98-20.16,52.87-29.56,79.56-2.03,5.78-3.7,11.94-6.74,17.29-2.36,4.14-5.55,7.76-9.31,10.68-7.67,5.94-17.22,8.99-26.59,11.01-2.49.54-5,1-7.52,1.41s-5.68.29-7.64,1.96c-1,.85-1.62,1.92-2.1,3.12-.6,1.46-1.08,2.38-2.18,3.56-2.26,2.44-4.61,4.79-7.03,7.06-9.43,8.88-19.85,16.59-29.92,24.7-4.87,3.92-9.66,7.95-14.22,12.23l2.12-.88c-6.83-.83-13.27-3.54-19.61-6.09-5.36-2.16-10.95-3.27-16.5-4.84-10.02-2.82-20.25-6.56-28.27-13.43-4.74-4.06-8.42-8.98-11.11-14.61-.95-1.99-4.22-1.93-5.18,0-1.15,2.3,1.06,6.07,2.66,7.86,1.23,1.38,3.88,1.06,4.71-.61,1.18-2.36-1.11-5.24-2.19-7.25-.68-1.27-2.09-1.58-3.39-1.38-16.55,2.53-33.44,4.11-49.4,9.49-7.91,2.67-15.58,6.26-22.26,11.31-7.14,5.4-12.93,12.23-17.31,20.02-4.81,8.57-7.91,17.99-10.54,27.42-2.95,10.58-5.45,21.27-7.64,32.04-4.55,22.43-7.73,45.1-10.55,67.8-3.15,25.44-5.85,50.93-9.6,76.29-.24,1.62.4,3.2,2.1,3.69,1.41.4,3.45-.49,3.69-2.1h0Z"/><g><g><path class="cls-6" d="m446.11,230.16c-1.64-14.23-3.88-31.68-1.93-46.17-22.74,3.3-45.79-1.36-68.29-5.99l-.54.76c-2.36,14.6-9.12,28.63-16.41,41.5.29-.4,2.36-.65,2.65-1.05,13.04-2.88,35.13-5.74,60.41,1.3,9.44,2.63,17.49,6.13,24.1,9.63Z"/><path d="m449.11,230.16c-1.75-15.24-3.95-30.84-1.93-46.17.28-2.16-2.13-3.13-3.8-2.89-17.28,2.46-34.87.16-51.89-3.03-4.95-.93-9.88-1.94-14.81-2.95-1.41-.29-2.57.22-3.39,1.38-.9,1.28-1.02,2.64-1.32,4.15-.38,1.93-.84,3.85-1.36,5.75-1.04,3.83-2.34,7.59-3.82,11.27-2.92,7.29-6.59,14.26-10.45,21.09-1.7,3.01,2.22,5.94,4.71,3.64-.97.9-1.09.57-.4.36.31-.09.63-.16.93-.26.8-.26,1.5-.57,2.12-1.14l-1.32.77c3.87-.85,8.28-1.62,11.74-2.04,5.13-.62,10.29-.94,15.45-.94,12.66,0,25.23,2.01,37.25,6,6.13,2.04,12.05,4.6,17.76,7.61,1.43.76,3.26.36,4.1-1.08.79-1.36.36-3.34-1.08-4.1-23.42-12.38-50.07-16.74-76.25-13.13-2.59.36-5.16.79-7.72,1.29-.53.11-1.06.21-1.59.32-.26.05-.51.11-.77.16-.17.04-.33.07-.5.11-.51.14-.95.4-1.32.77,0,0,1.44-.57.65-.44-.35.06-.72.2-1.06.3-.84.25-1.59.58-2.25,1.18l4.71,3.64c3.97-7.02,7.65-14.2,10.71-21.67,1.5-3.68,2.84-7.43,3.92-11.25.54-1.9,1.02-3.81,1.42-5.74.18-.85.48-1.79.51-2.67.03-1.02-.2-.02-.01-.37.1-.2.27-.38.4-.56l-3.39,1.38c17.82,3.67,35.88,7.36,54.16,7.2,5.27-.05,10.51-.47,15.72-1.21l-3.8-2.89c-2.01,15.32.18,30.93,1.93,46.17.19,1.61,1.25,3,3,3,1.48,0,3.19-1.38,3-3Z"/></g><g><path class="cls-6" d="m384.4,183.82c-1.41,9.55-6.72,22.26-9.11,31.6"/><path d="m381.5,183.02c-1.65,10.87-6.37,21.01-9.11,31.6-.97,3.74,4.82,5.34,5.79,1.6,2.74-10.6,7.46-20.73,9.11-31.6.24-1.6-.4-3.23-2.1-3.69-1.42-.39-3.45.48-3.69,2.1h0Z"/></g><g><path class="cls-6" d="m396.22,183.82c-2.09,8.62-3.15,21.18-5.21,29.99"/><path d="m393.33,183.02c-2.36,9.88-2.93,20.09-5.21,29.99-.36,1.58.49,3.25,2.1,3.69,1.52.42,3.32-.51,3.69-2.1,2.29-9.89,2.85-20.11,5.21-29.99.9-3.75-4.89-5.35-5.79-1.6h0Z"/></g><g><path class="cls-6" d="m408.7,186.32c-.89,7.46-3.05,19.99-2.52,27.48"/><path d="m405.7,186.32c-.53,4.43-1.24,9-1.79,13.73s-1.03,9.17-.73,13.75c.11,1.62,1.3,3,3,3,1.54,0,3.11-1.37,3-3-.3-4.58.2-9.21.73-13.75s1.23-9.05,1.79-13.73c.19-1.61-1.52-3-3-3-1.78,0-2.81,1.38-3,3h0Z"/></g><g><path class="cls-6" d="m422.32,186.35c-.23,7.49-.68,21.59-.91,29.07"/><path d="m419.32,186.35c-.3,9.69-.61,19.38-.91,29.07-.12,3.86,5.88,3.86,6,0,.3-9.69.61-19.38.91-29.07.12-3.86-5.88-3.86-6,0h0Z"/></g><g><path class="cls-6" d="m432.29,189.12c.21,7.86,2.37,23.65,1.16,31.42"/><path d="m429.29,189.12c.15,5.19.73,10.38,1.1,15.56.2,2.81.37,5.62.41,8.44.02,1.29.02,2.58-.03,3.86-.02.53-.05,1.07-.1,1.6-.02.27-.05.54-.08.82-.07.8.05-.23-.04.35-.24,1.6.4,3.22,2.1,3.69,1.42.39,3.45-.48,3.69-2.1.81-5.39.45-10.88.07-16.29s-.97-10.61-1.12-15.93c-.11-3.85-6.11-3.87-6,0h0Z"/></g><path class="cls-11" d="m368.63,215.42c2.64-5.47,5.26-10.95,7.43-16.62,1.04-2.71,1.91-5.47,2.7-8.26.32-1.12.62-2.28,1.29-3.26.49-.72.97-1.07,1.84-1.25l-3.69-3.69c-1.81,5.38-3.61,10.76-5.42,16.14-.89,2.66-1.75,5.33-2.68,7.98-.31.88-.64,1.82-1.21,2.56-.52.68-1.11,1.02-1.73,1.03-3.86,0-3.87,6,0,6,7.16,0,8.83-8.29,10.63-13.64,2.07-6.16,4.13-12.31,6.2-18.47.78-2.32-1.6-4.11-3.69-3.69-6.61,1.32-7.38,9.59-9.22,14.78-2.12,5.97-4.88,11.67-7.63,17.36-.7,1.46-.4,3.24,1.08,4.1,1.31.77,3.4.39,4.1-1.08h0Z"/><path d="m449.11,230.16c-1.75-15.24-3.95-30.84-1.93-46.17.28-2.16-2.13-3.13-3.8-2.89-17.28,2.46-34.87.16-51.89-3.03-4.95-.93-9.88-1.94-14.81-2.95-1.41-.29-2.57.22-3.39,1.38-.9,1.28-1.02,2.64-1.32,4.15-.38,1.93-.84,3.85-1.36,5.75-1.04,3.83-2.34,7.59-3.82,11.27-2.92,7.29-6.59,14.26-10.45,21.09-1.7,3.01,2.22,5.94,4.71,3.64-.97.9-1.09.57-.4.36.31-.09.63-.16.93-.26.8-.26,1.5-.57,2.12-1.14l-1.32.77c3.87-.85,8.28-1.62,11.74-2.04,5.13-.62,10.29-.94,15.45-.94,12.66,0,25.23,2.01,37.25,6,6.13,2.04,12.05,4.6,17.76,7.61,1.43.76,3.26.36,4.1-1.08.79-1.36.36-3.34-1.08-4.1-23.42-12.38-50.07-16.74-76.25-13.13-2.59.36-5.16.79-7.72,1.29-.53.11-1.06.21-1.59.32-.26.05-.51.11-.77.16-.17.04-.33.07-.5.11-.51.14-.95.4-1.32.77,0,0,1.44-.57.65-.44-.35.06-.72.2-1.06.3-.84.25-1.59.58-2.25,1.18l4.71,3.64c3.97-7.02,7.65-14.2,10.71-21.67,1.5-3.68,2.84-7.43,3.92-11.25.54-1.9,1.02-3.81,1.42-5.74.18-.85.48-1.79.51-2.67.03-1.02-.2-.02-.01-.37.1-.2.27-.38.4-.56l-3.39,1.38c17.82,3.67,35.88,7.36,54.16,7.2,5.27-.05,10.51-.47,15.72-1.21l-3.8-2.89c-2.01,15.32.18,30.93,1.93,46.17.19,1.61,1.25,3,3,3,1.48,0,3.19-1.38,3-3Z"/><path d="m381.5,183.02c-1.65,10.87-6.37,21.01-9.11,31.6-.97,3.74,4.82,5.34,5.79,1.6,2.74-10.6,7.46-20.73,9.11-31.6.24-1.6-.4-3.23-2.1-3.69-1.42-.39-3.45.48-3.69,2.1h0Z"/></g><path d="m118.85,494.24c.96,17.06.05,34.15-1.48,51.15-1.55,17.2-3.7,34.33-5.19,51.53-.83,9.63-1.45,19.27-1.63,28.94-.07,3.86,5.93,3.86,6,0,.33-17.16,2.03-34.25,3.84-51.31,1.82-17.13,3.77-34.27,4.53-51.49.43-9.6.47-19.23-.07-28.83-.09-1.62-1.31-3-3-3-1.55,0-3.09,1.37-3,3h0Z"/></g><g id="visage"><g id="hair"><g><path class="cls-7" d="m325.02,330.15c2.9,4.46-.53,11.52-7.09,11.97-8.29.57-16.43-1.98-24.6-3.48-9.84-1.81-19.9-2.1-29.91-2.39-10.35-.3-9.82-2.02-18.29,3.85-.53-1.23-106.52-.7-108.09-.43-14.7,2.51-25.51.24-40.34-1.71-9.46-1.24-10.39.05-19.74-1.65-6.68-1.21-19.27,3.19-25.72,4.75-3.24.78-6.24-1.96-5.66-5.25,7.34-41.61,8-86.27,11.64-127.74,1.28-21.09,3.82-38.3,6.6-59.26,1.67-12.64,3.66-25.4,8.68-37.15,4.5-10.54,11.31-19.93,18.06-29.22,5.44-7.49,10.95-15.05,17.97-21.13,20.03-17.32,58.36-21.03,84.88-18.61,33.94,3.09,58.19,8.63,81.9,32.78,22.7,23.12,33.93,62.12,37.96,94.06,4.03,31.94,2.89,64.36,7.18,96.27,4.7,34.92-12.49,33.4,4.58,64.34Z"/><path d="m322.43,331.66c.82,1.34.85,2.86.08,4.31-.85,1.6-2.24,2.74-4.21,3.09-2.98.53-6.63.05-9.69-.43-3.75-.59-7.44-1.46-11.15-2.24-13.51-2.82-27.25-2.76-40.96-3.56-1.93-.11-3.89-.04-5.74.61-2.6.92-4.9,2.51-7.15,4.06l4.1,1.08c-1.1-1.86-3.59-1.7-5.47-1.79-2.81-.14-5.63-.19-8.44-.24-9.19-.16-18.39-.2-27.59-.22-10.96-.03-21.91-.02-32.87.02-8.93.03-17.85.07-26.78.16-2.52.02-5.04.05-7.55.09-3.55.07-7.02.84-10.57,1.05-9.63.55-19.15-.98-28.66-2.27-4.13-.56-8.21-.99-12.38-1.06-3.49-.06-6.83-.49-10.28-1-3.78-.55-7.65.08-11.36.85s-7.59,1.88-11.35,2.93c-1.32.37-3.02,1.14-4.39,1.09-1.04-.04-1.63-.89-1.52-1.97.24-2.35.82-4.73,1.19-7.06.41-2.59.79-5.19,1.15-7.79,2.88-20.76,4.45-41.66,5.81-62.57,1.35-20.74,2.6-41.49,4.39-62.2.86-9.96,2.06-19.88,3.35-29.79,1.34-10.22,2.51-20.51,4.31-30.66s4.38-19.66,9.04-28.63c4.61-8.9,10.59-16.99,16.48-25.08,5.41-7.42,11.08-15.09,18.46-20.68,5.83-4.41,12.56-7.57,19.46-9.9,15.11-5.12,31.31-6.91,47.21-6.82,7.95.05,15.86.74,23.75,1.66s15.65,2.15,23.31,4.07c14.77,3.71,28.39,10.39,39.92,20.4,6.13,5.32,11.67,11.26,16.31,17.94,4.76,6.85,8.73,14.25,12.09,21.88,6.84,15.5,11.22,32.13,14.05,48.8,3.41,20.09,4.12,40.53,5.08,60.85.51,10.78,1.07,21.57,2.09,32.31.87,9.25,2.66,18.47,2.24,27.8-.25,5.5-1.36,10.39-2.6,15.99-1.11,4.98-1.67,9.87-.92,14.95,1.05,7.09,4.32,13.78,7.74,19.99,1.86,3.39,7.04.36,5.18-3.03-1.98-3.6-3.85-7.28-5.23-11.16-.54-1.51-1-3.04-1.37-4.59-.15-.64-.28-1.29-.4-1.94-.06-.33-.11-.67-.16-1,.08.58-.04-.45-.06-.59-.11-1.22-.15-2.44-.11-3.66.02-.54.05-1.08.1-1.62.03-.29.06-.57.09-.86.01-.12.03-.24.04-.36.05-.45-.08.52,0,.07.35-2.31.87-4.58,1.39-6.85,1.38-6.02,2.36-12.09,2.37-18.28.01-4.41-.43-8.78-1-13.15-.71-5.45-1.27-10.91-1.72-16.39-1.81-21.82-2-43.73-3.91-65.54-1.57-17.92-4.48-35.71-9.68-52.96-4.94-16.37-11.81-32.58-22.06-46.37-9.72-13.07-22.7-24.1-37.43-31.13-14.54-6.93-30.38-9.87-46.28-11.67s-32.34-2.09-48.52.17-31.57,6.44-44.16,15.93c-7.71,5.82-13.68,13.47-19.35,21.21-6.01,8.19-12.13,16.41-16.95,25.38-10,18.63-11.68,39.93-14.41,60.53-2.71,20.42-4.48,40.87-5.94,61.42-1.5,21.05-2.56,42.14-4.37,63.17-.89,10.39-1.96,20.76-3.38,31.09-.72,5.19-1.63,10.35-2.43,15.53-.72,4.65,2.43,9.1,7.36,9.18,1.76.03,3.57-.64,5.25-1.1,1.83-.51,3.65-1.03,5.48-1.52,3.7-1,7.5-2.03,11.33-2.36s6.94.62,11.02.94c3.25.26,6.52.13,9.77.4,9.73.8,19.29,2.96,29.08,3.2,5.11.13,10.23-.24,15.28-1.09,1.38-.23-.86-.02.12-.01.25,0,.5-.02.75-.02,5.97-.15,11.94-.15,17.91-.19,10.31-.07,20.61-.1,30.92-.11,10.78-.01,21.56,0,32.34.07,7.39.05,14.79.06,22.17.36.85.04,1.69.08,2.54.15.13.01.27.03.4.04.58.03-.76-.15-.44-.06.07.02.15.02.23.05-.46-.16-1.26-.65-1.65-1.31.78,1.32,2.76,2,4.1,1.08,1.17-.81,2.35-1.62,3.58-2.34.46-.27.92-.54,1.4-.78.21-.1.42-.21.63-.3.2-.09.16-.07-.12.05.15-.06.31-.11.46-.17.37-.11.74-.2,1.11-.29.53-.13-.04,0-.14,0,.22-.03.45-.05.68-.06.85-.05,1.7,0,2.55.05,6.92.44,13.86.53,20.78.96,7.82.49,15.38,1.76,23.03,3.39,3.86.82,7.75,1.56,11.69,1.87,3.43.26,7.09.36,10.26-1.14,5.53-2.63,8.36-9.89,5.05-15.29-2.01-3.29-7.21-.28-5.18,3.03Z"/></g><g><path class="cls-7" d="m148.05,50.67c-8.7-4.83-15.02-12.06-17.48-20.02-1.32-4.28-1.49-8.99,1.29-12.84,3.15-4.35,9.41-6.81,15.47-8.68,4.73-1.45,9.65-2.72,14.74-2.87,5.37-.16,10.69.94,16.07.92,13.29-.03,26.67-6.72,39.11-3.17,8.15,2.33,13.18,8.41,17.61,14.1,3.95,5.08,8.01,10.4,8.54,16.28,1.03,11.24-10.69,20.55-21.53,28.26"/><path d="m149.57,48.08c-5.28-2.96-10.04-6.98-13.25-12.12-2.75-4.4-5.43-10.93-2.34-15.93,1.32-2.14,3.68-3.69,6.04-4.9,2.86-1.47,5.94-2.45,9-3.37,3.48-1.04,7.05-2,10.68-2.34,3.89-.36,7.75.01,11.62.38s7.34.53,11.03.19,7.19-.99,10.75-1.69c6.53-1.3,13.32-2.98,20.01-2.09,5.98.8,10.8,4,14.82,8.29,1.94,2.08,3.7,4.32,5.44,6.57,2.14,2.78,4.3,5.67,5.75,8.89,1.27,2.84,1.65,6.03,1.01,8.68s-1.99,5.11-3.71,7.36c-4.32,5.66-10.32,9.99-16.06,14.08-1.32.94-1.95,2.62-1.08,4.1.76,1.3,2.78,2.02,4.1,1.08,5.74-4.08,11.58-8.34,16.2-13.71,4.17-4.85,7.53-10.94,6.77-17.55-.88-7.7-6.13-13.95-10.8-19.79-4.16-5.2-8.95-9.8-15.23-12.3-7.17-2.84-15.06-2.01-22.46-.66s-14.94,3.3-22.66,2.85c-4.22-.24-8.42-.91-12.65-.85s-8.24.82-12.22,1.88c-3.73.99-7.42,2.18-10.97,3.7-3.09,1.32-6.15,3.04-8.5,5.49-5.53,5.79-4.82,13.82-1.85,20.65,2.72,6.25,7.51,11.42,12.98,15.39,1.45,1.05,2.97,2.01,4.53,2.88,3.37,1.89,6.4-3.29,3.03-5.18h0Z"/></g><g><path class="cls-13" d="m149.41,48.93c-1.33-4.21-1.28-5.7-1.73-10.09-.68-6.64-1.13-7.27.51-12.94.71-2.44,3.32-7.4,5.53-9.53,0,0,5.25-8.23,4.6-8.77-.78-.65-5.45,2.96-6.42,3.26-2.35.75-4.7,1.49-7.05,2.24-4.46,1.42-9.58,3.49-10.79,8.01-.84,3.13-1.77,10.43-.25,13.29,3.58,6.74,7.95,12.01,15.6,14.52"/><path class="cls-13" d="m150.85,48.53c-1.37-4.41-1.62-8.99-2.1-13.56-.37-3.51.03-6.88,1.42-10.17.81-1.92,1.85-3.78,3.04-5.49.69-.99,1.56-1.8,2.2-2.82,1.4-2.23,2.85-4.5,3.92-6.91.47-1.06.98-2.5-.26-3.28s-2.79.18-3.85.79c-1.27.73-2.45,1.66-3.76,2.33-.07.04-.3.13.04-.01-.3.12-.63.2-.94.3-.78.25-1.57.5-2.35.75-1.36.43-2.73.86-4.09,1.3-3.93,1.28-8.39,3.01-10.59,6.76-.93,1.6-1.26,3.46-1.54,5.27-.32,2.07-.53,4.17-.49,6.27s.41,4.03,1.45,5.91c1.17,2.13,2.49,4.16,4.02,6.06,3.16,3.92,7.28,6.74,12.04,8.34,1.83.61,2.62-2.28.8-2.89-3.83-1.29-7.15-3.5-9.84-6.52-1.3-1.47-2.42-3.09-3.44-4.77-.88-1.46-1.73-2.83-1.94-4.54-.39-3.31,0-7.09.96-10.29,1.11-3.76,5.51-5.42,8.87-6.53,2.53-.84,5.11-1.56,7.64-2.43,1.16-.4,2.15-1.12,3.18-1.78.63-.4,1.27-.8,1.93-1.16.2-.11.54-.21.71-.35-.16.14.27-.12.23-.07,0-.01-1.03-.69-1.19-.94-.23-.36.18-.54-.08-.27-.01.02-.19.5-.13.34-.24.58-.55,1.13-.84,1.68-1.03,1.9-2.07,4.01-3.4,5.72-.15.19.38-.45-.2.16-.29.3-.55.63-.8.96-.66.84-1.26,1.72-1.81,2.64-1.01,1.66-1.9,3.42-2.58,5.24-1.3,3.44-1.68,6.95-1.29,10.58.51,4.78.76,9.58,2.19,14.2.57,1.84,3.47,1.05,2.89-.8h0Z"/></g><g><path class="cls-13" d="m51.82,342.31c-2.95.04-5.19-2.67-4.57-5.55,6.27-29.15,4.35-58.24,6.28-86.14,1.45-21.03,3.21-42.04,5.27-63.02,2.02-20.53,4.35-41.19,10.46-60.9,5.15-16.62,12.97-32.41,23.07-46.59,9.18-12.89,21.24-25.03,36.72-28.32-24.24,28.92-41.13,63.94-48.67,100.91-2.17,10.62-3.57,21.37-4.93,32.12-6.41,50.56-.47,54.62,2.06,99.26,0,0-3.94,17.25,9.64,51.01.83,2.07-2.55,1.61-4.79,1.6-5.35-.02-24.17,5.51-30.53,5.6Z"/><path class="cls-13" d="m51.82,340.81c-1.89-.05-3.33-1.55-3.15-3.46.26-2.7,1.09-5.45,1.54-8.14.9-5.39,1.58-10.82,2.08-16.26,1.01-10.83,1.34-21.71,1.61-32.58.26-10.59.53-21.18,1.27-31.75.78-11.09,1.64-22.17,2.58-33.25,1.84-21.57,3.43-43.34,7.29-64.66s10.25-39.84,20.72-57.68c4.75-8.1,10.12-15.97,16.53-22.85,5.87-6.31,12.82-11.95,20.94-15.07,2.02-.78,4.1-1.39,6.22-1.85l-1.46-2.51c-17.73,21.2-31.57,45.52-40.75,71.59-4.75,13.49-8.12,27.37-10.38,41.49s-4.2,29.07-5.22,43.67c-.67,9.53-.77,19.08-.06,28.61.65,8.77,1.83,17.48,2.71,26.23.59,5.85,1.08,11.71,1.46,17.58.09,1.31.36,2.76.26,4.04-.04.58-.18,1.17-.25,1.74-.72,6.07-.1,12.33.84,18.34.88,5.61,2.22,11.15,3.85,16.59,1.03,3.42,2.17,6.81,3.42,10.16.16.44,1.83,5.04,1.92,5.01l.22-.64h-.1s-.79.1-.8.1c-.7.04-1.4-.01-2.09-.03-3.84-.1-7.76.98-11.48,1.8-4.83,1.06-9.65,2.24-14.52,3.14-1.72.31-3.45.62-5.2.66-1.93.04-1.93,3.04,0,3,4.23-.1,8.5-1.22,12.61-2.13,4.78-1.06,9.55-2.25,14.38-3.08,1.66-.28,3.23-.4,4.91-.36,1.86.05,5.08.04,5.05-2.6-.02-1.51-1.1-3.23-1.63-4.63-.69-1.84-1.36-3.68-1.99-5.54-1.08-3.18-2.07-6.39-2.94-9.63-2.25-8.37-3.87-17.07-3.73-25.77.02-1.09.07-2.18.16-3.27.03-.37.07-.74.11-1.11.05-.5-.02.09.02-.17.02-.13.04-.26.06-.38.05-.28.12-.56.14-.84.14-1.56-.16-3.3-.26-4.86-.11-1.68-.23-3.36-.36-5.04-1.42-18.58-4.65-37.04-4.25-55.73.28-13.04,1.81-26.01,3.48-38.92,1.96-15.14,4.45-30.18,8.75-44.86,7.78-26.61,20.46-51.75,37.22-73.83,2.11-2.79,4.3-5.51,6.55-8.2.96-1.14.06-2.84-1.46-2.51-18.26,3.99-31.32,19.19-41.12,34.13-11.56,17.61-19.45,37.28-23.88,57.84-4.7,21.82-6.37,44.26-8.33,66.46-1.99,22.53-3.77,45.06-4.33,67.68-.28,11.22-.53,22.46-1.45,33.65-.47,5.74-1.12,11.47-2.04,17.16-.46,2.85-1,5.69-1.58,8.51-.41,2.01-.31,3.91.97,5.6,1.19,1.57,2.97,2.37,4.92,2.42s1.93-2.95,0-3Z"/></g><g id="hair-2"><path d="m236.76,53.79c13.27,4.84,24.97,12.73,34.92,22.7,8.93,8.94,15.67,19.75,20.99,31.16,11.41,24.46,16.42,51.5,18.55,78.24,1.33,16.72,1.76,33.5,2.78,50.24.5,8.27,1.16,16.53,2.13,24.76.8,6.7,1.69,13.31,1.33,20.07-.23,4.36-.89,8.05-1.91,12.49-.82,3.62-1.69,7.23-1.94,10.95-.28,4.21.38,8.46,1.63,12.47.89,2.86,2.06,5.65,3.33,8.36.67,1.44,1.39,2.86,2.13,4.26s1.41,2.16,1.62,3.47c-.09-.56,0,.45,0,.46,0-.09-.06.93-.02.55-.02.17-.25,1.07-.42,1.48.06-.14.16-.32-.11.18-.16.29-.32.59-.52.86.17-.25-.15.19-.15.19-.29.34-.62.69-.98.96-1.99,1.54-5.41,1.29-8.16,1.11-7.91-.54-15.57-3.04-23.41-4.12-8.39-1.15-16.83-1.46-25.29-1.71-4.32-.13-9.36-1.32-13.54.3-2.48.96-4.67,2.44-6.85,3.95l4.1,1.08c-1.23-2.08-4.5-1.76-6.58-1.84-3.73-.15-7.47-.2-11.21-.25-11.68-.16-23.36-.17-35.04-.18-12.27,0-24.54.03-36.81.11-6.82.04-13.69-.11-20.5.21-2.75.13-5.47.76-8.22.96-5.48.38-10.98.11-16.44-.48-5.88-.64-11.71-1.61-17.58-2.32-4-.49-7.99-.63-12.01-.8-2.45-.1-4.89-.36-7.35-.5-2.21-.13-4.42.12-6.61.42-4.67.64-9.25,1.78-13.81,2.95-1,.26-1.99.51-2.99.77-.79.2-1.71.59-2.53.56-.44-.02-.94-.28-1.19-.59-.53-.65-.3-1.42-.14-2.36,1.04-6,1.92-12.03,2.72-18.07,3.2-24.33,4.64-48.85,6.2-73.32s3.07-47.78,6.08-71.52c1.5-11.82,2.85-23.71,4.9-35.45,2.04-11.72,5.35-22.93,11.31-33.28,2.96-5.14,6.32-10.03,9.76-14.84s6.57-9.23,10.08-13.66,7.26-8.65,11.59-12.25c3.92-3.26,8.44-5.82,13.05-7.94,4.87-2.23,9.99-3.9,15.16-5.26,3.73-.98,2.15-6.77-1.6-5.79-10.72,2.83-21.24,7.08-29.98,14.02-9.05,7.18-15.69,17.03-22.39,26.31-7.05,9.77-13.7,19.83-17.78,31.25-4.11,11.48-5.7,23.63-7.3,35.66-1.57,11.81-3.22,23.62-4.48,35.47-1.28,12.04-2.11,24.15-2.99,36.23-1.8,24.69-2.94,49.43-5.32,74.07-1.18,12.22-2.67,24.41-4.75,36.52-.46,2.69-.77,5.19.92,7.55,1.58,2.21,4.23,3.49,6.95,3.2,2.13-.22,4.25-.96,6.32-1.49,2.31-.59,4.62-1.17,6.95-1.69,4.26-.94,8.57-1.76,12.94-1.39s8.4.41,12.6.67c11.06.69,21.92,3.34,33.03,3.52,2.94.05,5.89-.06,8.82-.35,1.55-.15,3.1-.35,4.64-.58.38-.06.75-.11,1.13-.18.93-.16.33.25-.21,0,.02,0,.06,0,.08,0,.59.06,1.25-.04,1.84-.05,3.13-.06,6.27-.08,9.41-.11,11.25-.1,22.49-.14,33.74-.16,12.67-.03,25.33-.02,38,.07,7.83.06,15.74-.11,23.55.48.24.02,1.36.12.57.04-.72-.07-.25-.05-.09,0-.29-.1-1.25-.69-1.62-1.3.78,1.32,2.76,2,4.1,1.08,1.25-.86,2.51-1.72,3.82-2.49.44-.26.89-.49,1.35-.73.08-.04.91-.38.25-.13.22-.09.45-.17.68-.24.43-.13.86-.23,1.31-.31-.78.13.26,0,.53,0,.96-.03,1.93.05,2.89.12,7.56.55,15.14.51,22.7,1.09,4.15.32,8.28.78,12.37,1.53s7.97,1.72,11.98,2.46c6.64,1.24,15.71,3.07,21.1-2.22,2.06-2.02,3.31-4.81,3.43-7.69.14-3.26-1.71-5.83-3.12-8.6-2.44-4.76-4.51-9.73-5.39-15.03-.01-.07-.13-1-.05-.32-.03-.27-.06-.54-.09-.81-.04-.44-.07-.88-.09-1.32-.04-.93-.04-1.85,0-2.78.02-.49.06-.97.11-1.46.02-.22.17-1.42.06-.64.12-.87.28-1.74.45-2.61.75-3.83,1.78-7.6,2.4-11.46.9-5.57,1.14-11.18.76-16.81-.55-8.1-1.89-16.15-2.55-24.24-1.39-16.91-1.82-33.88-2.84-50.82-1.72-28.6-5.69-57.22-16.53-83.94-5.01-12.36-11.36-24.2-19.9-34.5-9.07-10.93-20.7-20.19-33.51-26.34-3.16-1.52-6.4-2.86-9.69-4.06-1.52-.56-3.29.62-3.69,2.1-.46,1.67.57,3.13,2.1,3.69h0Z"/><path d="m149.57,48.08c-5.28-2.96-10.04-6.98-13.25-12.12-2.75-4.4-5.43-10.93-2.34-15.93,1.32-2.14,3.68-3.69,6.04-4.9,2.86-1.47,5.94-2.45,9-3.37,3.48-1.04,7.05-2,10.68-2.34,3.89-.36,7.75.01,11.62.38s7.34.53,11.03.19,7.19-.99,10.75-1.69c6.53-1.3,13.32-2.98,20.01-2.09,5.98.8,10.8,4,14.82,8.29,1.94,2.08,3.7,4.32,5.44,6.57,2.14,2.78,4.3,5.67,5.75,8.89,1.27,2.84,1.65,6.03,1.01,8.68s-1.99,5.11-3.71,7.36c-4.32,5.66-10.32,9.99-16.06,14.08-1.32.94-1.95,2.62-1.08,4.1.76,1.3,2.78,2.02,4.1,1.08,5.74-4.08,11.58-8.34,16.2-13.71,4.17-4.85,7.53-10.94,6.77-17.55-.88-7.7-6.13-13.95-10.8-19.79-4.16-5.2-8.95-9.8-15.23-12.3-7.17-2.84-15.06-2.01-22.46-.66s-14.94,3.3-22.66,2.85c-4.22-.24-8.42-.91-12.65-.85s-8.24.82-12.22,1.88c-3.73.99-7.42,2.18-10.97,3.7-3.09,1.32-6.15,3.04-8.5,5.49-5.53,5.79-4.82,13.82-1.85,20.65,2.72,6.25,7.51,11.42,12.98,15.39,1.45,1.05,2.97,2.01,4.53,2.88,3.37,1.89,6.4-3.29,3.03-5.18h0Z"/></g></g><g id="cou"><g><path class="cls-3" d="m153.23,307.3c-1.02,23.69,3.88,56.21-19.07,71.51-3.42,11.23,8.53,27.57,22.71,36.51,6.11,3.85,23.2,10.48,31.51,9.96,4.26-.27,25.1-3.56,31.02-5.57,12.44-4.23,25.46-13.63,32.48-25.58.79-1.34,7.51-21.91,7.3-23.5-.17-1.3-9.26-16-10.01-16.98-9.43-12.31-16.6-26.92-20.9-42.59-24.99,5.99-50.66-2.45-76.11-4.73"/><path d="m150.23,307.3c-.47,11.32.22,22.66-.76,33.96-.26,3-.52,5.12-1.06,8.02-.51,2.74-1.17,5.45-2.04,8.1-1.58,4.82-4.17,9.75-7.57,13.5-1.95,2.15-3.96,3.76-6.16,5.34-1.59,1.14-1.78,3.18-1.98,4.99-.14,1.22-.12,2.46.01,3.68.68,6.17,3.58,11.88,7.23,16.82,4.18,5.66,9.27,10.54,15.02,14.58,4.45,3.12,9.43,5.31,14.48,7.24,5.52,2.11,11.24,3.88,17.13,4.59,3.87.46,7.71-.24,11.54-.81,5.18-.76,10.36-1.63,15.5-2.65,4.76-.94,9.24-2.12,13.71-4.06,6.47-2.8,12.48-6.7,17.77-11.36,2.6-2.29,5.02-4.79,7.17-7.51,1.75-2.21,3.64-4.55,4.72-7.19,1.32-3.22,2.33-6.58,3.4-9.88,1.23-3.81,2.49-7.63,3.43-11.52.29-1.21.57-2.42.2-3.64-.48-1.55-1.48-3.03-2.27-4.42-2.12-3.69-4.34-7.32-6.61-10.92-2.79-4.42-6.06-8.49-8.76-12.98-3.86-6.43-7.13-13.2-9.73-20.23-1.3-3.52-2.45-7.09-3.44-10.71-.44-1.6-2.11-2.47-3.69-2.1-19.22,4.54-38.98.37-58.1-2.61-5.72-.89-11.45-1.7-17.21-2.22-1.62-.15-3,1.48-3,3,0,1.75,1.38,2.85,3,3,20.01,1.82,39.71,7.39,59.92,6.8,5.71-.17,11.42-.86,16.98-2.17l-3.69-2.1c3.09,11.19,7.62,22.03,13.56,32.01,2.42,4.06,5.26,7.77,7.9,11.67,1.46,2.15,2.79,4.41,4.14,6.63,1.62,2.67,3.25,5.34,4.73,8.09.22.42.42.85.65,1.27.3.54-.24-.71-.12-.27.15.54-.07-.96-.06-.48.02.58.16-.72.05-.35-.05.15-.06.32-.09.48-.1.48-.22.96-.35,1.43-1.57,6.02-3.55,11.97-5.61,17.84-.3.85-.85,1.82-1,2.7.02-.15.41-.79.16-.38-.16.26-.31.53-.46.79-.68,1.11-1.41,2.2-2.18,3.25-2.98,4.08-6.71,7.71-10.7,10.8-6.73,5.21-14.36,9.02-22.65,10.84-3.76.83-7.55,1.51-11.35,2.16-1.96.33-3.93.65-5.9.95-.8.12-1.6.24-2.4.36-.41.06-.82.12-1.23.17-.16.02-.31.04-.47.06.78-.11.09-.01-.09.01-1.11.14-2.22.29-3.33.37-.63.05-1.27.05-1.9.03-.44-.02-.88-.05-1.32-.09-.23-.02-.46-.05-.69-.07-.14-.02-.28-.03-.42-.05.27.04.3.04.08,0-4.34-.67-8.59-1.93-12.73-3.39s-7.14-2.68-10.86-4.63-7.31-4.65-10.48-7.56c-3.62-3.32-6.87-7-9.45-11.18-1.12-1.82-2.2-3.87-2.83-5.57-.35-.94-.66-1.9-.9-2.87-.11-.44-.21-.89-.29-1.34-.05-.24-.09-.49-.12-.74-.03-.22-.03-.2.01.07-.02-.19-.04-.39-.06-.58-.07-.85-.08-1.7-.01-2.55,0,.03.1-.87.04-.43s.08-.43.08-.41c.09-.45.2-.88.33-1.32l-1.38,1.79c9.01-6.07,14.69-15.22,17.43-25.63s2.93-21.11,2.96-31.69c.01-5.59-.06-11.19.17-16.78.07-1.62-1.43-3-3-3-1.68,0-2.93,1.37-3,3h0Z"/></g><g><path class="cls-10" d="m162.25,332.91c1.77,12.93-2.3,26.04-8.28,37.64-2.11,4.09-4.5,8.18-5.1,12.74-1.07,8.1,3.71,15.8,9.14,21.9,6.4,7.18,14.02,13.27,22.43,17.94-7.71-2.98-15.45-5.99-22.55-10.22s-13.57-9.8-17.73-16.94c-2.84-4.87-4.52-10.87-2.57-16.15,1.34-3.62,4.19-6.43,6.53-9.51,8.56-11.29,10.16-26.3,10.47-40.47,2.6.37,5.08,1.56,7.01,3.35"/><path class="cls-10" d="m159.25,332.91c.95,7.21.14,14.39-1.88,21.36-.98,3.38-2.2,6.69-3.64,9.89s-3.24,6.42-4.81,9.66c-1.65,3.4-2.94,6.9-3.17,10.71-.2,3.38.51,6.81,1.77,9.94,2.63,6.52,7.25,12.01,12.23,16.9,5.7,5.61,12.19,10.45,19.18,14.35l2.31-5.48c-14.13-5.47-29.94-11.64-38.18-25.26-1.87-3.09-3.31-6.6-3.31-10.26,0-3.61,1.81-6.48,4.02-9.21,2.45-3.02,4.81-6.04,6.61-9.51s3.08-6.88,4.09-10.49c2.32-8.33,2.93-17.07,3.13-25.68l-3.8,2.89c2.13.34,4.07,1.12,5.68,2.58,1.2,1.08,3.06,1.19,4.24,0,1.1-1.1,1.21-3.15,0-4.24-2.35-2.12-5.19-3.62-8.33-4.12-1.93-.31-3.75.78-3.8,2.89-.18,7.69-.68,15.42-2.6,22.9-.91,3.54-2.11,6.99-3.8,10.24-1.77,3.41-4.1,6.26-6.45,9.27-2.73,3.48-4.74,7.13-4.97,11.64-.22,4.2,1.1,8.4,2.99,12.11,3.62,7.12,9.66,12.86,16.19,17.32,8.18,5.58,17.52,9.16,26.7,12.72,1.37.53,3.03-.47,3.54-1.74.54-1.35.1-3-1.23-3.75-5.81-3.24-11.21-7.11-16.09-11.63s-9.36-9.33-12.18-15.24c-1.24-2.59-2-5.45-1.96-8.32.05-3.22,1.26-6.25,2.68-9.1,3.18-6.39,6.41-12.65,8.5-19.51,2.33-7.67,3.41-15.83,2.35-23.82-.21-1.61-1.23-3-3-3-1.46,0-3.21,1.38-3,3h0Z"/></g><path d="m150.23,307.3c-.47,11.32.22,22.66-.76,33.96-.26,3-.52,5.12-1.06,8.02-.51,2.74-1.17,5.45-2.04,8.1-1.58,4.82-4.17,9.75-7.57,13.5-1.95,2.15-3.96,3.76-6.16,5.34-1.59,1.14-1.78,3.18-1.98,4.99-.14,1.22-.12,2.46.01,3.68.68,6.17,3.58,11.88,7.23,16.82,4.18,5.66,9.27,10.54,15.02,14.58,4.45,3.12,9.43,5.31,14.48,7.24,5.52,2.11,11.24,3.88,17.13,4.59,3.87.46,7.71-.24,11.54-.81,5.18-.76,10.36-1.63,15.5-2.65,4.76-.94,9.24-2.12,13.71-4.06,6.47-2.8,12.48-6.7,17.77-11.36,2.6-2.29,5.02-4.79,7.17-7.51,1.75-2.21,3.64-4.55,4.72-7.19,1.32-3.22,2.33-6.58,3.4-9.88,1.23-3.81,2.49-7.63,3.43-11.52.29-1.21.57-2.42.2-3.64-.48-1.55-1.48-3.03-2.27-4.42-2.12-3.69-4.34-7.32-6.61-10.92-2.79-4.42-6.06-8.49-8.76-12.98-3.86-6.43-7.13-13.2-9.73-20.23-1.3-3.52-2.45-7.09-3.44-10.71-.44-1.6-2.11-2.47-3.69-2.1-19.22,4.54-38.98.37-58.1-2.61-5.72-.89-11.45-1.7-17.21-2.22-1.62-.15-3,1.48-3,3,0,1.75,1.38,2.85,3,3,20.01,1.82,39.71,7.39,59.92,6.8,5.71-.17,11.42-.86,16.98-2.17l-3.69-2.1c3.09,11.19,7.62,22.03,13.56,32.01,2.42,4.06,5.26,7.77,7.9,11.67,1.46,2.15,2.79,4.41,4.14,6.63,1.62,2.67,3.25,5.34,4.73,8.09.22.42.42.85.65,1.27.3.54-.24-.71-.12-.27.15.54-.07-.96-.06-.48.02.58.16-.72.05-.35-.05.15-.06.32-.09.48-.1.48-.22.96-.35,1.43-1.57,6.02-3.55,11.97-5.61,17.84-.3.85-.85,1.82-1,2.7.02-.15.41-.79.16-.38-.16.26-.31.53-.46.79-.68,1.11-1.41,2.2-2.18,3.25-2.98,4.08-6.71,7.71-10.7,10.8-6.73,5.21-14.36,9.02-22.65,10.84-3.76.83-7.55,1.51-11.35,2.16-1.96.33-3.93.65-5.9.95-.8.12-1.6.24-2.4.36-.41.06-.82.12-1.23.17-.16.02-.31.04-.47.06.78-.11.09-.01-.09.01-1.11.14-2.22.29-3.33.37-.63.05-1.27.05-1.9.03-.44-.02-.88-.05-1.32-.09-.23-.02-.46-.05-.69-.07-.14-.02-.28-.03-.42-.05.27.04.3.04.08,0-4.34-.67-8.59-1.93-12.73-3.39s-7.14-2.68-10.86-4.63-7.31-4.65-10.48-7.56c-3.62-3.32-6.87-7-9.45-11.18-1.12-1.82-2.2-3.87-2.83-5.57-.35-.94-.66-1.9-.9-2.87-.11-.44-.21-.89-.29-1.34-.05-.24-.09-.49-.12-.74-.03-.22-.03-.2.01.07-.02-.19-.04-.39-.06-.58-.07-.85-.08-1.7-.01-2.55,0,.03.1-.87.04-.43s.08-.43.08-.41c.09-.45.2-.88.33-1.32l-1.38,1.79c9.01-6.07,14.69-15.22,17.43-25.63s2.93-21.11,2.96-31.69c.01-5.59-.06-11.19.17-16.78.07-1.62-1.43-3-3-3-1.68,0-2.93,1.37-3,3h0Z"/></g><g><path class="cls-3" d="m89.64,154.27c-.85,19.88-1.1,39.79-.74,59.69.42,23.6,4.21,57.13,17.67,76.09,5.35,7.55,11.3,10.49,18.17,16.55,13.23,11.68,25.62,18.26,41.2,26.15s33.83,11.58,50.38,6.24c10.11-3.26,18.99-9.64,27.69-15.93,14.02-10.13,28.67-21.01,35.86-37.17,4.98-11.18,5.86-23.8,6.56-36.11,1.83-32.33,2.9-64.71,3.19-97.1.2,1.3.41,2.59.61,3.89l-.75,7.63c-8.89-1.05-13.78-5.5-22.21-8.66-6.35-2.38-11.38-6.47-17.73-8.85-5.73-2.15-18.59-10-24.15-12.58-19.78-9.15-23.11-18.06-39.97-32.23-22.87,24.75-38.81,34.46-71.6,57.45-9.64,6.76-13.68,13.26-24.86,16.51"/><path d="m86.64,154.27c-.78,18.23-1.06,36.47-.82,54.71.18,14.06,1.04,28.08,3.46,41.95,2.31,13.22,5.9,26.89,13.15,38.34,1.95,3.07,4.2,5.97,6.83,8.5s5.4,4.58,8.2,6.74c3.04,2.35,5.89,4.93,8.86,7.37s6.23,4.92,9.49,7.17c6.13,4.24,12.61,7.95,19.2,11.44,7.15,3.78,14.34,7.57,22.03,10.13,7.64,2.54,15.75,4,23.82,3.86s16.25-2.08,23.73-5.6,14.11-8.32,20.74-13.1c6.11-4.41,12.21-8.86,17.88-13.83s10.7-10.31,14.8-16.5c4.4-6.65,7.25-14.16,8.84-21.96,1.68-8.29,2.18-16.77,2.65-25.2.51-9.12.96-18.24,1.35-27.37.78-18.25,1.31-36.52,1.59-54.78.07-4.48.12-8.97.17-13.45l-5.89.8c.17,1.09.52,2.3.54,3.4-.01-.69-.05,0-.08.15-.12.83-.16,1.68-.25,2.51l-.46,4.66,3-3c-4.12-.51-7.82-2.13-11.46-3.97-2-1.01-3.99-2.04-6.04-2.96-2.18-.98-4.45-1.75-6.6-2.8-4.25-2.06-8.17-4.73-12.5-6.63-1-.44-2.01-.84-3.03-1.24-.67-.26.36.17-.35-.15-.35-.16-.7-.32-1.05-.48-1.55-.73-3.07-1.51-4.58-2.31-6.2-3.29-12.24-6.84-18.56-9.89-7.01-3.39-12.91-7.4-18.44-12.59-6.5-6.11-12.5-12.66-19.33-18.41-1.2-1.01-3.07-1.27-4.24,0-5.29,5.71-10.77,11.25-16.54,16.47-2.65,2.4-5.36,4.74-8.12,7.02s-5.33,4.3-7.87,6.24c-5.99,4.56-12.14,8.91-18.31,13.22-7.52,5.26-15.29,10.25-22.58,15.82-3.58,2.73-6.87,5.82-10.43,8.58-3.2,2.48-7.17,4.62-11.27,5.84-3.69,1.1-2.12,6.89,1.6,5.79,4.05-1.2,7.9-3,11.35-5.45,3.25-2.3,6.2-4.99,9.26-7.53,3.54-2.94,7.36-5.51,11.13-8.14s7.48-5.2,11.21-7.8c12.36-8.61,24.69-17.33,36-27.3,6.61-5.82,12.84-12.05,18.82-18.51h-4.24c6.24,5.26,11.83,11.13,17.67,16.82,5.5,5.36,11.54,10.02,18.34,13.62,3.2,1.69,6.49,3.16,9.67,4.89s6.61,3.67,9.94,5.47c3.01,1.63,6.05,3.26,9.23,4.54,4.24,1.71,8.08,4.07,12.1,6.23,2.55,1.37,5.21,2.38,7.86,3.5,2.23.94,4.38,2.07,6.54,3.16,4.77,2.41,9.5,4.29,14.83,4.96,1.72.21,2.86-1.56,3-3,.16-1.63.32-3.27.48-4.9.08-.83.22-1.66.24-2.49.05-1.6-.45-3.35-.7-4.93-.23-1.45-1.97-2.35-3.29-2.15-1.47.22-2.59,1.42-2.6,2.95-.16,17.94-.56,35.87-1.2,53.8-.31,8.88-.69,17.76-1.12,26.63s-.77,17.31-1.5,25.93c-.67,7.93-1.87,15.89-4.73,23.36-2.51,6.56-6.53,12.48-11.25,17.66s-10.1,9.75-15.66,14c-6.05,4.62-12.23,9.16-18.6,13.34s-13.52,8.06-21.22,9.83c-7.3,1.68-15,1.62-22.35.27s-14.87-3.99-21.74-7.46-13.44-6.85-19.91-10.72-12.34-7.95-17.96-12.67c-3-2.52-5.95-5.06-9.05-7.45-2.59-2-5.2-4.02-7.52-6.36-4.42-4.46-7.53-10.08-10.02-15.8-2.5-5.73-4.44-12.34-5.9-18.64-3.03-13.07-4.4-26.34-4.88-39.76-.61-17.04-.36-34.16.14-51.2.13-4.39.29-8.78.48-13.17.07-1.62-1.43-3-3-3-1.68,0-2.93,1.37-3,3h0Z"/></g><g><path class="cls-10" d="m162.11,286.96c-.98,2.92.24,6.11,2.6,8.52s5.75,4.13,9.32,5.39c11.68,4.14,25.48,3.71,37.67.57-9.24.69-18.86.85-27.48-1.78-8.37-2.55-16.05-7.59-22.11-12.7"/><path class="cls-10" d="m160.66,286.56c-2.52,8.27,6.75,13.59,13.17,15.83,7.77,2.71,16.22,3.41,24.39,2.79,4.68-.35,9.33-1.14,13.88-2.3,1.6-.41,1.32-3.07-.4-2.95-8.87.65-18.03.93-26.65-1.59-8.11-2.38-15.46-7.05-21.88-12.44-1.47-1.23-3.6.88-2.12,2.12,6.72,5.65,14.32,10.51,22.77,13.09,8.99,2.74,18.61,2.52,27.88,1.83l-.4-2.95c-7.16,1.83-14.56,2.69-21.95,2.3s-14.88-1.82-20.93-5.73c-3.04-1.96-6.05-5.33-4.87-9.2.56-1.85-2.33-2.64-2.89-.8h0Z"/></g><g class="cls-14"><path class="cls-8" d="m118.38,238.52c.29,2.16,1.6,3.59,2.21,4.44,6.81,9.5,17.85,11.84,29.05,9.9,1.04-.18,2.1-.43,2.98-1.05,1.96-1.38,2.44-4.33,1.65-6.66s-2.57-4.13-4.43-5.65c-4.57-3.74-9.97-6.35-15.66-7.55-3.07-.65-6.3-.88-9.28.09s-5.69,3.33-6.52,6.48"/></g><g class="cls-14"><path class="cls-8" d="m263.3,233.71c-1.54-1.47-3.42-1.7-4.41-1.95-11.04-2.78-20.97,2.77-28.41,11.73-.69.83-1.36,1.73-1.66,2.79-.67,2.37.76,4.97,2.79,6.23s4.5,1.47,6.86,1.4c5.8-.16,11.55-1.76,16.67-4.62,2.76-1.54,5.39-3.52,7.1-6.26s2.36-6.36,1.07-9.34"/></g><path class="cls-10" d="m129.25,208.67c1.48,2.76,3.06,5.57,5.45,7.64,2.8,2.43,6.34,4.09,9.77,5.41,4.2,1.62,8.74,2.37,13.19,1.42,3.99-.85,7.66-3.01,10.4-6.02,1.3-1.43-.82-3.55-2.12-2.12-2.51,2.76-5.79,4.63-9.46,5.33-3.94.75-7.98-.19-11.63-1.66-2.85-1.15-5.92-2.58-8.22-4.65-2.1-1.89-3.46-4.39-4.78-6.86-.91-1.7-3.5-.19-2.59,1.51h0Z"/><path class="cls-10" d="m208.65,209.68c-.4,1.15.31,2.56.86,3.54.89,1.6,2.12,3.05,3.45,4.29,3.58,3.35,8.4,5.46,13.37,5.02,3.81-.33,7.3-1.93,10.37-4.15,1.55-1.12.06-3.72-1.51-2.59-2.95,2.12-6.32,3.76-10.01,3.8-2.65.02-5.19-.78-7.43-2.17-1.81-1.12-3.47-2.62-4.72-4.31-.5-.67-.96-1.39-1.29-2.16.11.26-.13-.42-.17-.58,0-.02,0,.12,0,.1.64-1.83-2.26-2.61-2.89-.8h0Z"/><path class="cls-10" d="m127.15,185.5c5.76-1.47,11.49-2.36,17.44-2.46,6.38-.1,12.69-.23,19.04-.96,1.9-.22,1.92-3.22,0-3-6.44.74-12.84.85-19.31.96-6.11.11-12.06,1.05-17.97,2.56-1.87.48-1.08,3.37.8,2.89h0Z"/><path class="cls-10" d="m216.6,180.42c5.72,0,11.48-.14,17.18.38s11.64,1.86,17.39,3.07c1.88.4,2.69-2.49.8-2.89-5.93-1.25-11.89-2.58-17.94-3.16s-11.63-.39-17.44-.4c-1.93,0-1.93,3,0,3h0Z"/><path class="cls-7" d="m215.7,180.3c6.55-.7,13.17-1.74,19.77-1.71,2.81.01,5.61.27,8.29,1.2,2.87,1,5.41,2.75,8.33,3.67,1.54.49,3.27-.58,3.69-2.1.44-1.62-.55-3.2-2.1-3.69-2.9-.92-5.45-2.67-8.33-3.67s-6.28-1.36-9.44-1.41c-6.74-.1-13.52.99-20.21,1.7-1.61.17-3,1.26-3,3,0,1.49,1.38,3.17,3,3h0Z"/><path class="cls-7" d="m163.62,175.58c-6.72.19-13.42-.72-20.14-.47s-13.57,1.4-19.32,4.72c-3.35,1.93-.33,7.11,3.03,5.18,4.94-2.85,11.27-3.79,17.02-3.92,6.48-.15,12.93.68,19.42.49,3.85-.11,3.87-6.11,0-6h0Z"/><g><g><path class="cls-2" d="m133.88,206.48c5.32-5.14,12.42-7.87,19.42-7.48,7,.39,13.82,3.91,18.67,9.62l.26,1.05c-2.36,4.76-6.71,7.93-11.28,9.71-2.49.97-5.14,1.59-7.75,1.17-1.86-.3-3.61-1.12-5.34-1.93-5.13-2.4-10.54-5.04-13.75-10.15"/><path d="m134.94,207.54c5.28-5.02,12.57-7.84,19.88-6.91,3.46.44,6.79,1.71,9.74,3.54,1.47.91,2.84,1.97,4.11,3.15.66.62,1.44,1.3,1.97,2.04-.25-.34-.09-.29-.02.06.05.21.11.43.16.64l.15-1.16c-1.6,3.12-4.05,5.6-7.06,7.38s-7.21,3.51-10.91,2.68c-1.89-.42-3.64-1.31-5.38-2.14-1.5-.71-2.99-1.45-4.44-2.27-3.05-1.74-5.83-3.88-7.75-6.86-1.04-1.62-3.64-.11-2.59,1.51,3.54,5.47,9.34,8.43,15.09,11.06,3.39,1.55,6.59,2.32,10.3,1.51,3.1-.67,6.18-2.1,8.77-3.94s4.92-4.22,6.37-7.08c1.31-2.58-1.71-4.88-3.45-6.38-4.73-4.08-10.72-6.67-16.99-6.92-7.47-.29-14.72,2.83-20.09,7.94-1.4,1.33.72,3.45,2.12,2.12h0Z"/></g><g><path class="cls-16" d="m151.38,203.27c-.99-.02-1.94.5-2.67,1.23-1.64,1.62-2.32,4.29-1.81,6.66s2.14,4.37,4.16,5.3,4.39.81,6.38-.18c.54-.27,1.08-.61,1.45-1.13.24-.34.4-.74.54-1.14.46-1.32.69-2.74.69-4.15,0-.56-.04-1.13-.18-1.68-.3-1.16-.42-2.06-1.27-2.8-1.01-.86-2-2.25-3.08-2.17-.78.05-3.53-.38-4.2.06"/><path class="cls-16" d="m151.38,200.27c-4.8.07-7.74,5.11-7.65,9.48s2.76,8.12,6.73,9.69c1.98.79,4.28.83,6.33.28,1-.27,2.02-.68,2.87-1.26,1.23-.83,1.98-1.89,2.51-3.26.86-2.22,1.15-4.76.79-7.11-.11-.73-.29-1.48-.53-2.18-.41-1.18-1.04-2.07-1.95-2.92-.82-.77-1.58-1.64-2.59-2.18s-1.89-.55-2.93-.61c-1.69-.09-3.54-.39-5.1.49-1.37.77-1.95,2.76-1.08,4.1s2.64,1.9,4.1,1.08c.35-.2-.76.29-.43.19.27-.09.45.07-.39.04.21,0,.43-.02.65-.02.53,0,1.07.04,1.6.08.39.03.79.07,1.18.06.06,0,.22,0,.24,0l-.48-.05c-.42-.2-.53-.24-.32-.13.42.3.14-.13-.07-.09.08-.01.41.36.46.41.45.43.88.89,1.35,1.29.4.33-.14-.1-.12-.19,0,.02.23.43.25.45-.06-.05-.24-.7-.12-.23.05.18.1.35.15.53.09.34.16.67.25,1.01.12.45.06-.03,0-.08.03.02.02.41.02.48.01.41,0,.83-.04,1.24-.01.15-.01.35-.05.5.17-.71-.01.02-.05.19-.08.41-.18.81-.3,1.2-.05.16-.11.31-.15.47-.17.66.24-.38.02-.03l-.05.09c-.17.28-.13.25.12-.08,0,0-.25.31-.29.3.13.03.51-.34.03-.05-.18.11-.37.19-.55.29-.39.22.68-.22,0,0-.14.05-.28.1-.42.14-.3.09-.76.26-1.07.24.07,0,.71-.04.14-.04-.18,0-.36.02-.55.01s-.36-.02-.55-.03c-.61-.03.57.17-.07-.02-.31-.09-.63-.18-.95-.27-.41-.12.57.31.04.01-.11-.06-.22-.11-.33-.17-.14-.08-.27-.16-.4-.24-.49-.32.1-.02.07.08.01-.05-.62-.55-.71-.64-.11-.12-.21-.24-.32-.36-.29-.3.41.62.05.07-.14-.22-.29-.43-.42-.66-.1-.17-.18-.35-.27-.52-.14-.26.02-.29.07.17-.03-.31-.22-.65-.3-.95-.01-.04-.14-.59-.12-.59,0,0,.06.77.03,0-.02-.34,0-.68.02-1.01.04-.68-.11.52-.02.09.04-.2.08-.4.13-.59.04-.16.09-.32.14-.48.1-.31.34-.53-.02-.03.18-.26.29-.59.46-.87l.11-.16c.19-.26.15-.21-.12.14-.01-.01.37-.41.39-.43.04-.04.31-.31.33-.3-.29.22-.34.26-.16.14.09-.06.18-.12.28-.17.56-.35-.41.07-.03,0,.8-.12-.5-.02.14-.03,1.57-.02,3.07-1.36,3-3s-1.32-3.03-3-3h0Z"/></g><path class="cls-15" d="m150.33,203.21c-2.98,1.23-4.55,4.28-3.95,7.43s3.18,5.51,6.15,6.06,6.23-.75,7.53-3.67c.64-1.44.59-2.82.36-4.34-.19-1.26-.54-2.6-1.43-3.55-.55-.59-1.29-.98-2.02-1.3-.8-.35-1.41-.65-2.17-.89-1.37-.43-3.13-.17-4.47.25-.77.25-1.27,1.04-1.05,1.85.21.76,1.07,1.29,1.85,1.05.96-.31,1.57-.38,2.6-.32.32.02.09.02.03,0,.11.02.21.05.31.08.24.07-.37-.17.11.05.17.08.34.15.51.22.54.22.93.35,1.4.6.2.1.4.21.58.35-.09-.07.38.47.2.19.1.16.19.32.27.49-.1-.23.02.08.04.13.05.15.09.3.13.45.06.23.11.46.15.7.02.1.03.21.05.31.08.49-.02-.15.02.13.06.46.11.93.08,1.4,0,.16-.18.76-.28.95-.26.52-.44.75-.84,1.13-.62.58-1.45.9-2.33.92-1.93.04-3.76-1.12-4.59-2.96-.41-.91-.45-1.91-.14-2.84.1-.3.42-.88.63-1.12.07-.08.15-.16.23-.24-.01.01.36-.32.19-.19.11-.08.22-.16.34-.23.05-.03.45-.24.3-.18.75-.31,1.28-1,1.05-1.85-.19-.71-1.09-1.36-1.85-1.05h0Z"/><path d="m149.92,204.79c-.89.71-1.47,1.71-1.87,2.75s-.4,2.24-.16,3.33c.11.51.33,1.03.6,1.48.45.74.97,1.21,1.66,1.71.97.7,2.12,1.04,3.3,1.17,1.07.12,2.35-.21,3.22-.85.65-.47,1.15-.93,1.56-1.64.29-.5.52-1.09.65-1.66.27-1.12.29-2.19.07-3.32-.25-1.3-1.1-2.38-2.17-3.11-.95-.65-2.2-.86-3.33-.84-.18,0-.37,0-.55.03-.76.07-1.17.16-1.85.51-.53.27-1.01.82-1.29,1.33-.44.79-.56,1.73-.31,2.6.21.73.72,1.41,1.38,1.79s1.59.54,2.31.3,1.43-.68,1.79-1.38.53-1.52.3-2.31l-.02-.07.11.8s0-.1,0-.15l-.11.8.02-.07-.3.72s.04-.09.07-.13l-.47.61s.07-.07.11-.1l-.61.47s.09-.05.14-.07l-.72.3s.1-.03.15-.04l-.8.11c.44-.06.91-.05,1.35,0l-.8-.11c.24.03.46.09.68.17l-.72-.3c.17.07.32.16.47.27l-.61-.47c.12.1.23.22.33.34l-.47-.61c.09.13.17.26.23.4l-.3-.72c.09.22.15.45.19.69l-.11-.8c.05.36.04.72,0,1.08l.11-.8c-.06.41-.16.81-.31,1.19l.3-.72c-.07.16-.16.32-.27.46l.47-.61c-.1.13-.22.24-.34.35l.61-.47c-.15.11-.31.21-.48.28l.72-.3c-.2.08-.4.13-.61.16l.8-.11c-.21.02-.41.02-.62,0l.8.11c-.31-.05-.61-.14-.9-.26l.72.3c-.34-.15-.66-.33-.96-.56l.61.47c-.14-.11-.27-.24-.38-.38l.47.61c-.11-.15-.21-.31-.28-.49l.3.72c-.09-.23-.16-.47-.19-.72l.11.8c-.03-.25-.03-.5,0-.76l-.11.8c.04-.25.11-.5.2-.74l-.3.72c.12-.29.27-.55.46-.8l-.47.61c.19-.24.4-.45.63-.63.56-.45.88-1.44.88-2.12,0-.74-.33-1.61-.88-2.12s-1.32-.91-2.12-.88l-.8.11c-.51.14-.95.4-1.32.77h0Z"/><path class="cls-2" d="m153.02,208.67c1.93,0,1.93-3,0-3s-1.93,3,0,3h0Z"/><path class="cls-2" d="m156.79,207.4v-.08c0-.1-.02-.2-.06-.29-.03-.09-.08-.17-.16-.24-.07-.07-.15-.12-.24-.16-.09-.05-.19-.07-.29-.06l-.2.03c-.13.04-.24.1-.33.19l-.12.15c-.07.12-.1.24-.1.38v.08c0,.1.02.2.06.29.03.09.08.17.16.24.07.07.15.12.24.16.09.05.19.07.29.06l.2-.03c.13-.04.24-.1.33-.19l.12-.15c.07-.12.1-.24.1-.38h0Z"/><path class="cls-17" d="m135.95,206.47c1.78,4.06,4.35,7.91,7.26,11.24l2.12-2.12c-1.53-1.37-3-2.81-4.45-4.26-.75-.75-1.5-1.49-2.25-2.24-.7-.69-1.46-1.35-2.12-2.07l.39.66-.05-.14v.8c-.08.15-.08.17,0,.05.05-.08.1-.16.16-.23.06-.08.17-.23.22-.3.23-.3.49-.57.74-.85.56-.59.58-1.54,0-2.12s-1.56-.59-2.12,0-1.04,1.18-1.48,1.83c-.63.91-.54,1.87.26,2.65.93.91,1.87,1.81,2.79,2.73,1.91,1.9,3.81,3.82,5.82,5.62,1.45,1.29,3.4-.67,2.12-2.12-1.38-1.57-2.54-3.19-3.71-5s-2.23-3.67-3.09-5.63c-.33-.74-1.41-.91-2.05-.54-.77.45-.86,1.31-.54,2.05h0Z"/><path d="m136.82,209.77c-3.47-2.54-7.82-3.72-11.03-6.63l-1.82,2.36c1.31.58,2.63,1.2,4,1.62s2.67.45,4.02.25c2.7-.4,5.08-1.87,7.35-3.3,1.63-1.03.12-3.63-1.51-2.59-1.92,1.21-3.87,2.49-6.14,2.92s-4.24-.62-6.21-1.49c-.68-.3-1.45-.26-1.94.39-.43.57-.45,1.46.12,1.97,3.43,3.1,7.94,4.4,11.64,7.1.65.48,1.67.11,2.05-.54.44-.76.12-1.57-.54-2.05h0Z"/><path d="m134.9,207.54c5.28-5.02,12.57-7.84,19.88-6.91,3.46.44,6.79,1.71,9.74,3.54,1.47.91,2.84,1.97,4.11,3.15.66.62,1.44,1.3,1.97,2.04-.25-.34-.09-.29-.02.06.05.21.11.43.16.64l.15-1.16c-1.6,3.12-4.05,5.6-7.06,7.38s-7.21,3.51-10.91,2.68c-1.89-.42-3.64-1.31-5.38-2.14-1.5-.71-2.99-1.45-4.44-2.27-3.05-1.74-5.83-3.88-7.75-6.86-1.04-1.62-3.64-.11-2.59,1.51,3.54,5.47,9.34,8.43,15.09,11.06,3.39,1.55,6.59,2.32,10.3,1.51,3.1-.67,6.18-2.1,8.77-3.94s4.92-4.22,6.37-7.08c1.31-2.58-1.71-4.88-3.45-6.38-4.73-4.08-10.72-6.67-16.99-6.92-7.47-.29-14.72,2.83-20.09,7.94-1.4,1.33.72,3.45,2.12,2.12h0Z"/><path d="m129.5,202.58c.6,1.34,1.45,2.58,2.47,3.63.26.27.68.44,1.06.44s.81-.16,1.06-.44c.56-.61.58-1.52,0-2.12-.29-.3-.57-.62-.83-.96l.23.3c-.56-.73-1.03-1.53-1.41-2.37-.14-.32-.57-.6-.9-.69-.36-.1-.84-.05-1.16.15s-.6.51-.69.9l-.05.4c0,.27.07.52.2.76h0Z"/><path d="m132.89,201.21c.16,1.36.36,2.71.6,4.06.06.35.39.72.69.9.32.19.8.27,1.16.15s.71-.34.9-.69c.2-.37.23-.74.15-1.16-.15-.81-.28-1.61-.39-2.43l.05.4c-.05-.41-.1-.82-.15-1.23s-.14-.76-.44-1.06c-.26-.26-.69-.46-1.06-.44s-.79.14-1.06.44c-.25.27-.49.67-.44,1.06h0Z"/></g><g><g><path class="cls-2" d="m248.14,205.36c-5.4-5.14-12.61-7.87-19.71-7.48-7.11.39-14.03,3.91-18.95,9.62l-.27,1.05c2.4,4.76,6.81,7.93,11.45,9.71,2.52.97,5.22,1.59,7.86,1.17,1.89-.3,3.67-1.12,5.43-1.93,5.21-2.4,10.7-5.04,13.96-10.15"/><path d="m249.21,204.3c-4.82-4.52-11-7.41-17.62-7.89s-12.94,1.6-18.11,5.39c-1.3.95-2.53,1.99-3.67,3.14-.94.95-1.81,1.8-2.03,3.16s.85,2.57,1.57,3.57c.98,1.36,2.11,2.6,3.39,3.68,4.98,4.2,12.32,7.2,18.74,4.84,3.35-1.23,6.73-2.89,9.79-4.73s5.92-4.27,7.94-7.35c1.06-1.62-1.53-3.12-2.59-1.51-1.96,2.99-4.79,5.13-7.87,6.86-1.52.86-3.1,1.61-4.68,2.35-1.77.83-3.57,1.73-5.5,2.1-3.71.71-7.72-.88-10.88-2.73s-5.54-4.24-7.17-7.38l.15,1.16c.05-.21.11-.42.16-.64.07-.3.29-.43-.01-.06.6-.73,1.3-1.4,2-2.04,1.29-1.19,2.68-2.24,4.18-3.15,3.06-1.87,6.52-3.15,10.09-3.56,7.35-.84,14.66,1.91,20.01,6.93,1.41,1.32,3.53-.8,2.12-2.12h0Z"/></g><g><path class="cls-16" d="m231.06,201.46c1.04-.02,2.03.52,2.8,1.27,1.72,1.67,2.43,4.43,1.9,6.88s-2.24,4.52-4.36,5.48-4.6.84-6.7-.18c-.57-.28-1.13-.63-1.52-1.17-.25-.35-.42-.76-.57-1.18-.48-1.37-.72-2.83-.72-4.29,0-.58.04-1.17.19-1.73.32-1.2.44-2.13,1.34-2.89,1.06-.89,2.1-2.32,3.23-2.25.82.06,3.7-.39,4.41.07"/><path class="cls-16" d="m231.06,204.46c.7.01-.43-.18-.03-.02.55.21.1-.12.02-.04.02-.02.34.19.4.22.62.29-.24-.27.04,0,.16.16.46.58.67.67-.35-.17-.28-.4-.05-.04.11.17.22.34.31.52.05.09.25.37.23.46,0,0-.24-.71-.07-.14.1.33.21.66.29,1,.03.12.03.31.08.41-.24-.51-.05-.42-.02-.07.03.39,0,.77,0,1.15,0,.45.08-.09.03-.17.05.08-.08.42-.1.51-.07.3-.17.6-.26.89-.18.55.07-.13.07-.14.02.1-.22.46-.27.55-.14.26-.47.58-.54.86.1-.36.32-.37.1-.13-.14.15-.26.3-.41.45-.08.09-.49.57-.59.54.12.03.53-.38.05-.05-.13.09-.27.18-.41.26-.11.07-.23.13-.34.19-.11.06-.23.12-.35.17l.29-.12c-.25.2-.79.24-1.11.32-.55.14.04.03.12,0-.17.05-.39.04-.57.04-.35.01-.69,0-1.03-.03-.73-.04.44.12,0,0-.22-.06-.45-.1-.67-.16-.19-.05-.37-.12-.55-.17-.54-.17,0,.03.07.04-.15-.03-.88-.38-.95-.53l.13.1c.19.15.18.14-.02-.05l-.15-.16c.22.29.27.35.16.16-.08-.25-.41-.45-.02.02-.13-.16-.18-.51-.23-.69-.11-.37-.21-.74-.29-1.12-.04-.2-.12-.43-.12-.63,0,.1.06.63,0,.03-.03-.43-.06-.86-.06-1.29,0-.17.01-.33.01-.5,0-.76-.17.54.01-.19.09-.35.17-.7.26-1.04.04-.14.27-.62.21-.72l-.17.38c.05-.11.11-.21.17-.32.16-.33.17.07-.14.16.23-.07.58-.54.76-.71.32-.3.62-.62.95-.91.09-.08.25-.18.32-.28-.32.24-.38.3-.2.18.08-.05.16-.1.24-.14l-.39.17c-.49.03-.62.05-.38.05.1.01.21,0,.31,0,.24,0,.47-.02.71-.03.61-.04,1.21-.09,1.82-.11.26,0,.52,0,.78,0,.54,0-.69-.13-.34-.05s.49.28-.3-.16c1.37.77,3.34.38,4.1-1.08s.39-3.29-1.08-4.1-3.23-.63-4.84-.52c-.48.03-.95.03-1.42.06-1.5.11-2.67.91-3.75,1.91-.75.7-1.55,1.39-2.15,2.22-.55.76-.84,1.68-1.08,2.58-.62,2.4-.55,4.85.08,7.25.26.99.6,2.02,1.17,2.88.74,1.11,1.81,1.9,3.02,2.44,2.25,1,4.64,1.29,7.05.79,4.03-.84,7.38-4.45,8.07-8.48.42-2.47.08-4.94-1.09-7.17-1.29-2.45-3.76-4.33-6.59-4.37-1.57-.02-3.07,1.4-3,3s1.32,2.98,3,3h0Z"/></g><path class="cls-15" d="m226.07,201.46c-2.98,1.23-4.55,4.28-3.95,7.43s3.18,5.51,6.15,6.06,6.23-.75,7.53-3.67c.64-1.44.59-2.82.36-4.34-.19-1.26-.54-2.6-1.43-3.55-.55-.59-1.29-.98-2.02-1.3-.8-.35-1.41-.65-2.17-.89-1.37-.43-3.13-.17-4.47.25-.77.25-1.27,1.04-1.05,1.85.21.76,1.07,1.29,1.85,1.05.96-.31,1.57-.38,2.6-.32.32.02.09.02.03,0,.11.02.21.05.31.08.24.07-.37-.17.11.05.17.08.34.15.51.22.54.22.93.35,1.4.6.2.1.4.21.58.35-.09-.07.38.47.2.19.1.16.19.32.27.49-.1-.23.02.08.04.13.05.15.09.3.13.45.06.23.11.46.15.7.02.1.03.21.05.31.08.49-.02-.15.02.13.06.46.11.93.08,1.4,0,.16-.18.76-.28.95-.26.52-.44.75-.84,1.13-.62.58-1.45.9-2.33.92-1.93.04-3.76-1.12-4.59-2.96-.41-.91-.45-1.91-.14-2.84.1-.3.42-.88.63-1.12.07-.08.15-.16.23-.24-.01.01.36-.32.19-.19.11-.08.22-.16.34-.23.05-.03.45-.24.3-.18.75-.31,1.28-1,1.05-1.85-.19-.71-1.09-1.36-1.85-1.05h0Z"/><path class="cls-17" d="m212.02,204.71c.16,2.61.17,5.32,1.06,7.81,1.12,3.13,3.42,5.22,6.49,6.4l.4-2.95c-.49-.05.25.06-.21-.03-.14-.03-.29-.06-.43-.1-.11-.03-.23-.07-.34-.11-.16-.06.15.08-.09-.04s-.48-.26-.7-.41.05.05-.07-.05c-.09-.07-.17-.15-.25-.22-.2-.19-.39-.38-.57-.59-.02-.02-.25-.3-.14-.17s-.11-.16-.13-.18c-.32-.44-.6-.91-.87-1.38-1.04-1.85-1.89-3.67-3.34-5.25l.39.66-.05-.14v.8c-.06.28.04-.02.13-.15.08-.11.15-.22.24-.33.23-.3.49-.57.74-.85,1.33-1.4-.79-3.52-2.12-2.12-.69.73-1.8,1.8-1.91,2.85-.07.71.28,1.19.74,1.69.08.09.16.18.24.27.05.06.1.13.16.19-.11-.14-.11-.14,0,0,.7,1.08,1.29,2.21,1.9,3.34.66,1.22,1.39,2.44,2.39,3.41,1.2,1.16,2.66,1.79,4.32,1.94.73.07,1.39-.62,1.47-1.3.09-.79-.36-1.37-1.07-1.65-1.25-.48-2.21-1.11-3.05-2.03-.34-.37-.56-.68-.88-1.26-.14-.25-.27-.51-.38-.78.11.26-.04-.12-.06-.18-.06-.16-.11-.32-.16-.48-.17-.55-.3-1.11-.41-1.68-.03-.14-.05-.29-.07-.43-.01-.07-.02-.14-.03-.21.02.14.02.15,0,.04-.04-.29-.07-.58-.09-.86-.11-1.15-.15-2.3-.22-3.46-.05-.81-.65-1.5-1.5-1.5-.77,0-1.55.69-1.5,1.5h0Z"/><path d="m228.24,207.33c.25.19.47.41.67.66l-.47-.61c.2.26.36.53.48.82l-.3-.72c.1.25.17.5.21.76l-.11-.8c.03.26.03.52,0,.78l.11-.8c-.04.26-.1.5-.2.74l.3-.72c-.08.18-.18.34-.3.5l.47-.61c-.12.15-.25.27-.4.39l.61-.47c-.31.23-.65.42-1.01.58l.72-.3c-.31.13-.62.22-.94.26l.8-.11c-.22.02-.43.03-.65,0l.8.11c-.22-.03-.43-.08-.64-.17l.72.3c-.18-.08-.35-.18-.5-.29l.61.47c-.13-.11-.25-.23-.36-.36l.47.61c-.13-.18-.23-.36-.32-.56l.3.72c-.14-.37-.24-.75-.29-1.14l.11.8c-.05-.37-.05-.74,0-1.11l-.11.8c.04-.25.1-.48.2-.71l-.3.72c.07-.15.15-.28.24-.41l-.47.61c.1-.13.21-.24.34-.35l-.61.47c.15-.11.31-.2.48-.28l-.72.3c.23-.09.46-.15.69-.18l-.8.11c.48-.06.99-.07,1.47,0l-.8-.11c.08.02.16.04.24.07l-.72-.3.07.04-.61-.47s.08.06.11.1l-.47-.61s.06.09.08.14l-.3-.72.02.07-.11-.8c.01.05.01.1,0,.15l.11-.8-.02.07c-.22.74-.08,1.65.3,2.31.36.62,1.08,1.22,1.79,1.38.77.17,1.63.14,2.31-.3s1.15-1.02,1.38-1.79c.36-1.22-.04-2.6-.96-3.46-.8-.75-1.77-.98-2.84-1.02-.85-.04-1.76.02-2.55.33-.75.28-1.34.6-1.93,1.16s-.94,1.25-1.25,2.02c-.43,1.08-.34,2.26-.18,3.38s.66,2.22,1.44,3.1c.92,1.04,2.26,1.52,3.61,1.64,1.21.1,2.47-.33,3.51-.9.5-.27.98-.62,1.38-1.01.62-.6.94-1.25,1.25-2.03.44-1.1.43-2.51.08-3.63s-1.05-2.3-2.01-3.05c-.27-.29-.59-.5-.97-.62-.36-.19-.74-.27-1.16-.26-.74,0-1.61.33-2.12.88s-.91,1.32-.88,2.12c.03.74.27,1.64.88,2.12h0Z"/><path class="cls-2" d="m228.92,207.43c1.93,0,1.93-3,0-3s-1.93,3,0,3h0Z"/><path class="cls-2" d="m227.08,206.12v-.06c0-.1-.02-.2-.06-.29-.03-.09-.08-.17-.16-.24-.07-.07-.15-.12-.24-.16-.09-.05-.19-.07-.29-.06l-.2.03c-.13.04-.24.1-.33.19l-.12.15c-.07.12-.1.24-.1.38v.06c0,.1.02.2.06.29.03.09.08.17.16.24.07.07.15.12.24.16.09.05.19.07.29.06l.2-.03c.13-.04.24-.1.33-.19l.12-.15c.07-.12.1-.24.1-.38h0Z"/><path d="m246.44,211.25c3.76-2.7,8.32-3.99,11.81-7.1.55-.49.56-1.42.12-1.97-.5-.63-1.23-.69-1.94-.39-2.01.87-4.07,1.91-6.32,1.49s-4.28-1.71-6.23-2.92c-1.64-1.02-3.15,1.57-1.51,2.59,2.31,1.44,4.72,2.9,7.46,3.3,1.37.2,2.74.15,4.07-.25s2.73-1.04,4.06-1.62l-1.82-2.36c-3.27,2.91-7.67,4.09-11.2,6.63-.66.47-.97,1.31-.54,2.05.38.65,1.39,1.01,2.05.54h0Z"/><path d="m249.44,204.3c-4.82-4.52-11-7.41-17.62-7.89s-12.94,1.6-18.11,5.39c-1.3.95-2.53,1.99-3.67,3.14-.94.95-1.81,1.8-2.03,3.16s.85,2.57,1.57,3.57c.98,1.36,2.11,2.6,3.39,3.68,4.98,4.2,12.32,7.2,18.74,4.84,3.35-1.23,6.73-2.89,9.79-4.73s5.92-4.27,7.94-7.35c1.06-1.62-1.53-3.12-2.59-1.51-1.96,2.99-4.79,5.13-7.87,6.86-1.52.86-3.1,1.61-4.68,2.35-1.77.83-3.57,1.73-5.5,2.1-3.71.71-7.72-.88-10.88-2.73s-5.54-4.24-7.17-7.38l.15,1.16c.05-.21.11-.42.16-.64.07-.3.29-.43-.01-.06.6-.73,1.3-1.4,2-2.04,1.29-1.19,2.68-2.24,4.18-3.15,3.06-1.87,6.52-3.15,10.09-3.56,7.35-.84,14.66,1.91,20.01,6.93,1.41,1.32,3.53-.8,2.12-2.12h0Z"/><path d="m250.28,200.55c-.47.95-.95,1.91-1.42,2.86-.18.36-.26.75-.15,1.16.1.35.36.73.69.9.35.18.77.28,1.16.15.36-.12.72-.34.9-.69.47-.95.95-1.91,1.42-2.86.18-.36.26-.75.15-1.16-.1-.35-.36-.73-.69-.9-.35-.18-.77-.28-1.16-.15-.36.12-.72.34-.9.69h0Z"/><path d="m246.33,201.18c.36,1.1.71,2.2,1.07,3.3.12.37.35.7.69.9.32.19.8.27,1.16.15s.71-.34.9-.69.28-.77.15-1.16c-.36-1.1-.71-2.2-1.07-3.3-.12-.37-.35-.7-.69-.9-.32-.19-.8-.27-1.16-.15s-.71.34-.9.69-.28.77-.15,1.16h0Z"/></g><g><g><path class="cls-2" d="m166.01,292.37c6.15,6.97,12.69,8.65,21.98,8.96,1.99.07,3.97-.04,5.95-.15,3.17-.17,6.33-.34,9.5-.51,4.04-.22,8.22-.47,11.83-2.3,2.19-1.1,4.06-2.74,5.73-4.53,1.48-1.59,2.87-3.4,3.23-5.54s-.63-4.63-2.67-5.36c-1.4-.49-2.94-.09-4.38.29-6.49,1.73-13.12,2.94-19.81,3.62-4.69.48-9.46.69-14.11-.11-6.52-1.12-13-4.22-19.47-2.82-.6.13-1.23.32-1.65.77-.77.83-.51,2.19.09,3.15s.71.91,1.21,1.92l2.57,2.6Z"/><path d="m164.95,293.43c2.9,3.25,6.37,5.83,10.47,7.36s8.68,1.97,13.07,2.05c2.93.06,5.86-.18,8.78-.34s5.71-.27,8.57-.48c5.39-.39,10.26-1.63,14.38-5.3,3.39-3.02,7.16-7.63,4.88-12.39-.98-2.04-3.02-3.2-5.27-3.11-1.35.06-2.67.47-3.97.81-1.55.4-3.11.77-4.67,1.11-5.74,1.25-11.59,2.15-17.46,2.51-3.02.19-6.09.2-9.09-.21-2.73-.37-5.4-1.15-8.06-1.85-3.01-.79-6.11-1.53-9.24-1.53-2.3,0-6.1.12-6.97,2.78-.68,2.08.76,4.42,2.04,5.99.75.92,1.71,1.73,2.55,2.58,1.36,1.38,3.48-.75,2.12-2.12l-2.1-2.12c-.37-.38-.4-.55-.67-.97-.38-.6-1.06-1.24-1.12-1.99-.13-1.56,4.89-1.16,5.91-1.07,2.41.21,4.78.84,7.12,1.46,5,1.32,9.87,2.27,15.07,2.15s10.25-.8,15.29-1.67c2.52-.44,5.03-.95,7.52-1.54,1.17-.28,2.33-.57,3.49-.88s2.56-.79,3.69-.24c1.59.78,1.76,2.95,1.27,4.43-.68,2.09-2.4,3.81-3.97,5.28-1.71,1.61-3.65,2.92-5.89,3.67s-4.53,1.03-6.85,1.19c-5.02.36-10.08.66-15.12.8-4.47.12-9.14-.18-13.42-1.55-4.06-1.3-7.41-3.81-10.23-6.97-1.29-1.44-3.4.68-2.12,2.12Z"/></g><path d="m161.34,287.17c3.33,2.18,7.15,3.38,10.95,4.44,4.16,1.16,8.33,2.33,12.6,2.99,8.33,1.3,16.99.16,25.17-1.62,4.76-1.04,9.44-2.44,14-4.16,1.79-.68,1.01-3.58-.8-2.89-7.66,2.9-15.68,4.89-23.83,5.77-3.98.43-8,.68-12,.24s-8.28-1.56-12.33-2.67-8.54-2.26-12.25-4.69c-1.62-1.06-3.12,1.54-1.51,2.59h0Z"/><path d="m179.05,287.15c.04,4.49-1.23,9.08.27,13.47.26.77,1.03,1.27,1.85,1.05.75-.21,1.31-1.07,1.05-1.85-1.39-4.09-.12-8.47-.16-12.67-.02-1.93-3.02-1.93-3,0h0Z"/><path d="m195.04,287.55c.66,4.25.86,8.57.65,12.87-.04.81.72,1.5,1.5,1.5.84,0,1.46-.69,1.5-1.5.22-4.57-.06-9.14-.76-13.66-.12-.8-1.13-1.24-1.85-1.05-.85.23-1.17,1.04-1.05,1.85h0Z"/><path d="m209.7,285.73c.69,1.9,1.28,3.83,1.76,5.78.44,1.78.71,3.53.33,5.34-.17.79.23,1.62,1.05,1.85.74.2,1.68-.25,1.85-1.05.46-2.2.29-4.33-.22-6.51s-1.12-4.18-1.86-6.21c-.28-.76-1.02-1.27-1.85-1.05-.74.2-1.32,1.08-1.05,1.85h0Z"/></g><g class="cls-9"><path class="cls-1" d="m183.96,249.49c2.38,2.12,4.87,3.97,8.14,4.17,3.76.23,7.13-1.84,9.92-4.19.62-.52.54-1.58,0-2.12-.61-.61-1.5-.52-2.12,0-1.33,1.12-2.86,2.13-4.47,2.8-1.15.49-2.11.58-3.33.51-.19-.01-.39-.03-.58-.05-.29-.03.21.04.02,0-.11-.02-.23-.04-.34-.06-.22-.05-.44-.1-.65-.17-.13-.04-.26-.09-.38-.14-.24-.09.04.02-.12-.05-1.48-.69-2.76-1.75-3.97-2.83-1.44-1.28-3.57.83-2.12,2.12h0Z"/></g><g><path class="cls-10" d="m106.4,168.02c-1.67,19.49-3.34,39.18-.69,58.56,1.7,12.43,1.84,21.3,5.29,33.36,2.45,8.57,8.28,20.52,13.12,28,5.13,7.92,8.82,14.95,16.33,20.68,19.65,15.01,27.06,17.36,49.04,29.69-12.57,2.09-4.28-1.71-16.11-6.45-9.83-3.94-19.53-8.34-28.36-14.18-8.13-5.38-15.42-11.91-22.68-18.42-6.81-6.1-13.75-12.38-18.06-20.44-2.2-4.12-3.64-8.59-4.93-13.07-7.57-26.48-9.77-54.49-6.43-81.83.18-1.49-1.31-4.51-.61-5.83.74-1.38,3.66-.92,4.85-1.93,2.58-2.19,6.65-5.94,9.23-8.13"/><path class="cls-10" d="m104.9,168.02c-1.39,16.23-2.79,32.56-1.68,48.85.51,7.51,1.64,14.98,2.49,22.45.8,7.1,1.86,14.15,3.84,21.03,3.59,12.5,10.3,23.77,17.25,34.64,3.5,5.48,7.36,10.67,12.54,14.68,5.07,3.93,10.31,7.68,15.72,11.14,10.83,6.92,22.45,12.53,33.66,18.81l.36-2.74c-1.51.25-3.04.5-4.58.53-.31,0-.98-.02-1.07-.03-.15-.02-.29-.06-.44-.1-.26-.08.13.07-.17-.07-.36-.17-.07.03-.36-.29-.18-.21-.09-.1-.1-.11-.09-.12-.17-.24-.26-.36-.46-.65-.92-1.29-1.47-1.86-1.98-2.08-4.69-3.27-7.3-4.32-3.87-1.56-7.71-3.19-11.48-4.96-7.38-3.47-14.47-7.5-21.02-12.37-6.63-4.92-12.75-10.49-18.88-16.01-5.66-5.1-11.36-10.41-15.33-16.99-4.24-7.03-6.22-15.34-8.11-23.25-3.92-16.41-5.8-33.28-5.6-50.15.05-4.17.22-8.34.52-12.5.15-2.12.34-4.24.56-6.35.18-1.75.6-3.54.29-5.29-.11-.62-.28-1.23-.42-1.84-.07-.31-.44-1.33-.26-1.67.33-.61,2.41-.61,3.06-.82,1.37-.45,2.39-1.56,3.45-2.49,1.25-1.11,2.5-2.22,3.75-3.33s2.38-2.12,3.59-3.15c1.47-1.26-.66-3.37-2.12-2.12-2.57,2.2-5.07,4.49-7.61,6.72-.5.44-1.03,1.05-1.62,1.37-.53.29-1.21.33-1.79.45-1.31.25-2.68.65-3.34,1.92s-.27,2.78.04,4.07c.15.64.38,1.3.42,1.96.06.92-.18,1.9-.28,2.81-.48,4.3-.81,8.62-1.02,12.94-.82,17.43.58,34.96,4.11,52.05,1.72,8.34,3.69,16.9,7.04,24.75,3.18,7.45,8.46,13.56,14.28,19.09,12.17,11.56,25,22.77,40.03,30.45,3.76,1.92,7.6,3.68,11.49,5.33,3.42,1.45,7.3,2.54,10.3,4.78,1.36,1.02,1.82,2.11,2.93,3.31,1.19,1.28,2.9,1.48,4.56,1.4s3.35-.35,5.01-.63c1.3-.21,1.41-2.15.36-2.74-10.01-5.61-20.33-10.68-30.15-16.62-4.93-2.99-9.69-6.23-14.33-9.64-2.76-2.03-5.56-4.03-8.01-6.44-2.24-2.2-4.19-4.66-5.97-7.23-7.33-10.6-14.04-21.97-18.28-34.18-2.23-6.43-3.51-13.17-4.36-19.91-.89-7.07-1.8-14.17-2.51-21.26-1.81-17.88-.27-35.87,1.27-53.71.17-1.92-2.84-1.91-3,0h0Z"/></g><path d="m86.64,154.01c-.78,18.23-1.06,36.47-.82,54.71.18,14.06,1.04,28.08,3.46,41.95,2.31,13.22,5.9,26.89,13.15,38.34,1.95,3.07,4.2,5.97,6.83,8.5s5.4,4.58,8.2,6.74c3.04,2.35,5.89,4.93,8.86,7.37s6.23,4.92,9.49,7.17c6.13,4.24,12.61,7.95,19.2,11.44,7.15,3.78,14.34,7.57,22.03,10.13,7.64,2.54,15.75,4,23.82,3.86s16.25-2.08,23.73-5.6,14.11-8.32,20.74-13.1c6.11-4.41,12.21-8.86,17.88-13.83s10.7-10.31,14.8-16.5c4.4-6.65,7.25-14.16,8.84-21.96,1.68-8.29,2.18-16.77,2.65-25.2.51-9.12.96-18.24,1.35-27.37.78-18.25,1.31-36.52,1.59-54.78.07-4.48.12-8.97.17-13.45l-5.89.8c.17,1.09.52,2.3.54,3.4-.01-.69-.05,0-.08.15-.12.83-.16,1.68-.25,2.51l-.46,4.66,3-3c-4.12-.51-7.82-2.13-11.46-3.97-2-1.01-3.99-2.04-6.04-2.96-2.18-.98-4.45-1.75-6.6-2.8-4.25-2.06-8.17-4.73-12.5-6.63-1-.44-2.01-.84-3.03-1.24-.67-.26.36.17-.35-.15-.35-.16-.7-.32-1.05-.48-1.55-.73-3.07-1.51-4.58-2.31-6.2-3.29-12.24-6.84-18.56-9.89-7.01-3.39-12.91-7.4-18.44-12.59-6.5-6.11-12.5-12.66-19.33-18.41-1.2-1.01-3.07-1.27-4.24,0-5.29,5.71-10.77,11.25-16.54,16.47-2.65,2.4-5.36,4.74-8.12,7.02s-5.33,4.3-7.87,6.24c-5.99,4.56-12.14,8.91-18.31,13.22-7.52,5.26-15.29,10.25-22.58,15.82-3.58,2.73-6.87,5.82-10.43,8.58-3.2,2.48-7.17,4.62-11.27,5.84-3.69,1.1-2.12,6.89,1.6,5.79,4.05-1.2,7.9-3,11.35-5.45,3.25-2.3,6.2-4.99,9.26-7.53,3.54-2.94,7.36-5.51,11.13-8.14s7.48-5.2,11.21-7.8c12.36-8.61,24.69-17.33,36-27.3,6.61-5.82,12.84-12.05,18.82-18.51h-4.24c6.24,5.26,11.83,11.13,17.67,16.82,5.5,5.36,11.54,10.02,18.34,13.62,3.2,1.69,6.49,3.16,9.67,4.89s6.61,3.67,9.94,5.47c3.01,1.63,6.05,3.26,9.23,4.54,4.24,1.71,8.08,4.07,12.1,6.23,2.55,1.37,5.21,2.38,7.86,3.5,2.23.94,4.38,2.07,6.54,3.16,4.77,2.41,9.5,4.29,14.83,4.96,1.72.21,2.86-1.56,3-3,.16-1.63.32-3.27.48-4.9.08-.83.22-1.66.24-2.49.05-1.6-.45-3.35-.7-4.93-.23-1.45-1.97-2.35-3.29-2.15-1.47.22-2.59,1.42-2.6,2.95-.16,17.94-.56,35.87-1.2,53.8-.31,8.88-.69,17.76-1.12,26.63s-.77,17.31-1.5,25.93c-.67,7.93-1.87,15.89-4.73,23.36-2.51,6.56-6.53,12.48-11.25,17.66s-10.1,9.75-15.66,14c-6.05,4.62-12.23,9.16-18.6,13.34s-13.52,8.06-21.22,9.83c-7.3,1.68-15,1.62-22.35.27s-14.87-3.99-21.74-7.46-13.44-6.85-19.91-10.72-12.34-7.95-17.96-12.67c-3-2.52-5.95-5.06-9.05-7.45-2.59-2-5.2-4.02-7.52-6.36-4.42-4.46-7.53-10.08-10.02-15.8-2.5-5.73-4.44-12.34-5.9-18.64-3.03-13.07-4.4-26.34-4.88-39.76-.61-17.04-.36-34.16.14-51.2.13-4.39.29-8.78.48-13.17.07-1.62-1.43-3-3-3-1.68,0-2.93,1.37-3,3h0Z"/><g id="oreilled"><g><path class="cls-3" d="m288.59,200.48c.95-1.97,5.19-4.59,6.69-5.09,3.67-1.22,7.47,2.6,8.5,7.06,1.03,4.46.01,9.22-1.24,13.59-1.89,6.65-4.31,13.07-7.23,19.14-1.99,4.14-8.84,10.03-8.77,14.83"/><path d="m291.18,201.99s.39-.64.15-.31c-.21.31.14-.16.2-.22.32-.33.65-.65,1-.95.44-.37,1.32-.98,2.07-1.43.37-.22.74-.43,1.12-.63.18-.09.36-.18.54-.26-.11.05-.58.13-.19.09.2-.02.41-.13.61-.16-.46.06.04.04.12.04.63,0,.24.04.11,0,.03,0,.88.29.46.11,1.47.64,2.62,2.21,3.2,3.87.81,2.29.76,4.87.42,7.25-.78,5.47-2.77,10.93-4.74,16.07-.95,2.5-2,4.96-3.13,7.37-.41.86-.83,1.7-1.36,2.49-.48.71-1.09,1.53-1.45,1.99-2.86,3.67-6.71,7.73-6.76,12.69-.04,3.86,5.96,3.86,6,0,0-.11.1-.94-.02-.26.03-.18.07-.36.12-.54.06-.23.14-.46.21-.69.04-.11.29-.68.1-.26.45-1,1.05-1.93,1.66-2.83,1.33-1.94,2.75-3.58,4.22-5.54s2.45-3.93,3.42-6.12c1.3-2.92,2.51-5.89,3.59-8.9,2.09-5.81,4.31-12.11,4.35-18.35.03-5.55-2.35-12.06-8.09-13.97-2.57-.86-5.02-.12-7.27,1.19s-4.63,2.95-5.84,5.22c-.76,1.43-.36,3.26,1.08,4.1,1.36.8,3.34.36,4.1-1.08h0Z"/></g><g><path class="cls-10" d="m295.92,198.94c.61-.72,1.01,1.09,1.53,1.88s.53,1.83.49,2.8c-.47,11.56-5.27,27.74-7.97,38.95,3.26-5.13,6.54-15.71,8.64-21.48,2.1-5.77,2.96-12.26,1.23-18.17-.33-1.15-.79-2.3-1.63-3.11s-2.14-1.18-3.13-.6"/><path class="cls-10" d="m296.98,200.01c-1.48-.59-2-.57-1.56.07.09.17.17.34.24.51.14.3.28.6.43.89.43.87.37,1.72.32,2.67-.09,1.75-.26,3.49-.49,5.23-.49,3.71-1.22,7.38-2.03,11.03-1.61,7.3-3.62,14.51-5.37,21.78-.4,1.65,1.83,2.61,2.74,1.16,3.33-5.33,5.23-11.62,7.27-17.52,1.09-3.15,2.34-6.26,3.01-9.54.8-3.88.98-7.88.22-11.78-.38-1.95-.95-4.12-2.35-5.6s-3.32-1.82-5.08-.98-.22,3.42,1.51,2.59,2.66,3.13,2.89,4.13c.47,2.07.6,4.19.5,6.3-.19,4.15-1.46,7.98-2.82,11.87-2.24,6.38-4.13,13.24-7.74,19.02l2.74,1.16c1.56-6.46,3.32-12.87,4.82-19.35s2.88-13.03,3.19-19.66c.04-.93.06-1.9-.2-2.81-.21-.73-.65-1.4-.97-2.09-.66-1.44-1.98-2.42-3.4-1.18s.67,3.39,2.12,2.12h0Z"/></g><path d="m291.18,201.99s.39-.64.15-.31c-.21.31.14-.16.2-.22.32-.33.65-.65,1-.95.44-.37,1.32-.98,2.07-1.43.37-.22.74-.43,1.12-.63.18-.09.36-.18.54-.26-.11.05-.58.13-.19.09.2-.02.41-.13.61-.16-.46.06.04.04.12.04.63,0,.24.04.11,0,.03,0,.88.29.46.11,1.47.64,2.62,2.21,3.2,3.87.81,2.29.76,4.87.42,7.25-.78,5.47-2.77,10.93-4.74,16.07-.95,2.5-2,4.96-3.13,7.37-.41.86-.83,1.7-1.36,2.49-.48.71-1.09,1.53-1.45,1.99-2.86,3.67-6.71,7.73-6.76,12.69-.04,3.86,5.96,3.86,6,0,0-.11.1-.94-.02-.26.03-.18.07-.36.12-.54.06-.23.14-.46.21-.69.04-.11.29-.68.1-.26.45-1,1.05-1.93,1.66-2.83,1.33-1.94,2.75-3.58,4.22-5.54s2.45-3.93,3.42-6.12c1.3-2.92,2.51-5.89,3.59-8.9,2.09-5.81,4.31-12.11,4.35-18.35.03-5.55-2.35-12.06-8.09-13.97-2.57-.86-5.02-.12-7.27,1.19s-4.63,2.95-5.84,5.22c-.76,1.43-.36,3.26,1.08,4.1,1.36.8,3.34.36,4.1-1.08h0Z"/><path class="cls-4" d="m289.87,232.73c-.46,3.37-.13,6.83,1.29,9.95.72,1.58,2.2,3.23,4.13,2.73,1.69-.44,2.34-2.28,2.57-3.83.3-2.04.38-4.09.05-6.13-.13-.8-1.12-1.25-1.85-1.05-.85.23-1.18,1.04-1.05,1.85s.13,1.67.1,2.5c-.02.44-.05.87-.08,1.31-.02.19-.03.37-.05.56-.01.11-.02.22-.04.32.02-.13.01-.1-.02.09-.06.32-.12.63-.21.94-.03.1-.06.19-.1.29.05-.11.05-.12,0-.02-.03.07-.29.45-.09.21l-.09.09c-.11.11-.12.11-.02.02.03,0,.23-.03.25-.05.1.07.08.05-.09-.04.06.07.03.05-.08-.07-.03-.03-.29-.34-.17-.18-.85-1.14-1.21-2.67-1.47-4.11s-.29-3.19-.1-4.58c.11-.8-.19-1.61-1.05-1.85-.7-.19-1.73.24-1.85,1.05h0Z"/><path class="cls-2" d="m297.26,222.6c1.93,0,1.93-3,0-3s-1.93,3,0,3h0Z"/><path class="cls-2" d="m295.13,227.88c1.93,0,1.93-3,0-3s-1.93,3,0,3h0Z"/></g><g id="oreilleG"><g><path class="cls-3" d="m88.73,205.62c-1.9-4.68-1.07-1.39-2.71-2.94s-3.87-2.56-6.07-2.24c-3.04.45-5.33,3.38-6.05,6.51s-.17,6.41.52,9.54c2.73,12.37,7.74,24.18,14.66,34.61"/><path d="m91.63,204.82c-.81-1.97-1.65-4.82-4.27-4.84-.7,0-1.03.15-1.65.43-.43.2.41-.17.46-.18.51-.14,1.05-.12,1.54.09.14.06.87.65.45.25-.57-.54-1.21-1.03-1.86-1.46-2.34-1.55-5.41-2.19-8.11-1.31-2.5.81-4.55,2.71-5.83,4.98-2.97,5.27-1.58,11.56-.21,17.1s3.23,10.92,5.46,16.17c2.46,5.79,5.43,11.33,8.9,16.58.89,1.35,2.65,1.93,4.1,1.08,1.34-.78,1.97-2.75,1.08-4.1-5.27-7.98-9.4-16.64-12.21-25.79-.71-2.32-1.35-4.67-1.9-7.03s-1.06-4.69-.99-7.11c.05-1.77.55-3.54,1.49-4.71,1.06-1.32,2.17-1.89,3.78-1.38,1.85.59,2.9,2.57,4.98,2.58.61,0,1.18-.17,1.71-.45.42-.22-.4.17-.47.18l-2.67-.68-.34-.44s.26.46.26.46c.2.39.37.79.53,1.2.61,1.5,1.99,2.56,3.69,2.1,1.42-.39,2.71-2.18,2.1-3.69h0Z"/></g><g><path class="cls-10" d="m81.81,201.84c-.61-.72-1.01,1.09-1.53,1.88s-.53,1.83-.49,2.8c.47,11.56,5.27,27.74,7.97,38.95-3.26-5.13-6.54-15.71-8.64-21.48s-2.96-12.26-1.23-18.17c.33-1.15.79-2.3,1.63-3.11s2.14-1.18,3.13-.6"/><path class="cls-10" d="m82.87,200.78c-2.61-2.28-4.46,2.78-4.58,4.69-.2,3.11.42,6.41.89,9.47,1.07,6.87,2.75,13.64,4.46,20.38.89,3.51,1.81,7.02,2.66,10.55l2.74-1.16c-3.61-5.78-5.51-12.64-7.74-19.02-1.34-3.81-2.59-7.57-2.81-11.64-.12-2.19,0-4.39.49-6.53.23-1.02,1.1-4.98,2.89-4.13s3.26-1.76,1.51-2.59c-3.64-1.74-6.14,1.7-7.02,4.83-1.1,3.9-1.11,7.99-.48,11.97.55,3.45,1.76,6.68,2.9,9.97,1.07,3.08,2.13,6.17,3.3,9.22,1.24,3.22,2.53,6.5,4.36,9.43.9,1.45,3.14.51,2.74-1.16-1.75-7.27-3.76-14.47-5.37-21.78-.81-3.65-1.54-7.33-2.03-11.03-.22-1.68-.39-3.37-.48-5.06-.05-.93-.15-1.86.25-2.73.16-.34.34-.66.49-1,.07-.17.15-.34.24-.51.44-.64-.08-.66-1.56-.07,1.45,1.27,3.58-.85,2.12-2.12h0Z"/></g><path d="m91.63,204.82c-.81-1.97-1.65-4.82-4.27-4.84-.7,0-1.03.15-1.65.43-.43.2.41-.17.46-.18.51-.14,1.05-.12,1.54.09.14.06.87.65.45.25-.57-.54-1.21-1.03-1.86-1.46-2.34-1.55-5.41-2.19-8.11-1.31-2.5.81-4.55,2.71-5.83,4.98-2.97,5.27-1.58,11.56-.21,17.1s3.23,10.92,5.46,16.17c2.46,5.79,5.43,11.33,8.9,16.58.89,1.35,2.65,1.93,4.1,1.08,1.34-.78,1.97-2.75,1.08-4.1-5.27-7.98-9.4-16.64-12.21-25.79-.71-2.32-1.35-4.67-1.9-7.03s-1.06-4.69-.99-7.11c.05-1.77.55-3.54,1.49-4.71,1.06-1.32,2.17-1.89,3.78-1.38,1.85.59,2.9,2.57,4.98,2.58.61,0,1.18-.17,1.71-.45.42-.22-.4.17-.47.18l-2.67-.68-.34-.44s.26.46.26.46c.2.39.37.79.53,1.2.61,1.5,1.99,2.56,3.69,2.1,1.42-.39,2.71-2.18,2.1-3.69h0Z"/><path class="cls-2" d="m80.83,230.86c1.93,0,1.93-3,0-3s-1.93,3,0,3h0Z"/><path class="cls-2" d="m83.28,235.63c1.93,0,1.93-3,0-3s-1.93,3,0,3h0Z"/><path class="cls-4" d="m85.11,239.06c.19,1.39.14,3.2-.1,4.58s-.61,2.98-1.47,4.11c.11-.14-.17.18-.17.18-.08.07-.18.13-.2.13.07,0,.21.02.28.03.08.08.09.09.02.02-.05-.04-.09-.09-.13-.14.2.24-.02-.08-.06-.14-.07-.16-.08-.17-.02-.04-.04-.1-.07-.19-.1-.29-.09-.31-.15-.62-.21-.94-.03-.19-.03-.22-.02-.09-.01-.08-.02-.16-.03-.24-.02-.21-.04-.43-.06-.64-.03-.4-.06-.8-.08-1.21-.04-.86-.04-1.76.1-2.6s-.21-1.61-1.05-1.85c-.72-.2-1.71.24-1.85,1.05-.29,1.77-.26,3.54-.05,5.32.18,1.53.48,3.36,1.88,4.28,1.78,1.17,3.7-.17,4.61-1.75.81-1.42,1.29-3.07,1.55-4.67.32-1.98.33-3.92.06-5.9-.11-.8-1.14-1.24-1.85-1.05-.87.24-1.16,1.04-1.05,1.85h0Z"/></g><g id="col"><path class="cls-5" d="m120.52,387.37c4.07,9.68,10.97,27.36,42.07,38.5,17.77,6.36,35.7,9.2,42.69,8.95,8.22-.3,27.83-12.78,40.17-24.21,8.29-7.68,14.49-13.63,18.57-18.88,2.7-3.47,4.76-6.54,6.17-8.76,4.39-4.21,5.95-9.81,4.02-13.83-.73-1.52-2.28-3.49-4.82-4.36-4.57-1.57-8.6,1.74-8.85,1.95-4.79,6.84-9.59,13.68-14.38,20.52-6.38,5.7-12.77,11.4-19.15,17.11-8.94,8.77-17.39,10.69-20.94,11.23-4.94.76-10.26.36-12.8.17-5.02-.38-9.2-1.21-12.22-1.95-4.51-1.53-9.02-3.06-13.53-4.6-3.75-2.42-7.49-4.84-11.24-7.26-5.28-3.99-10.57-7.98-15.85-11.98-3.69-3.29-7.38-6.59-11.08-9.88-2.68-2.34-6.59-2.02-8.56.27-1.57,1.83-1.73,4.71-.28,7.02Z"/><path class="cls-11" d="m133.74,380.9c-.49-1.59-1.8-2.7-3.51-2.64-1.41.05-2.61.93-3.58,1.88-1.72,1.68-3.45,4.08-3.46,6.58-.02,3.65,2.94,6.58,5.17,9.13s4.38,4.74,6.74,6.94c9.48,8.86,20.49,15.93,31.92,21.98,6.51,3.45,13.19,6.59,19.91,9.6l2.31-5.48c-6.21-2.4-12.41-4.8-18.62-7.2s-12-4.46-17.88-6.95c-2.68-1.13-5.31-2.48-7.64-4.23-2.17-1.63-4.08-3.6-5.92-5.58-2.08-2.25-4.07-4.58-6.1-6.88s-4.17-4.57-6.1-6.97c-.74-.93-1.46-1.98-1.82-3.11-.2-.64-.27-.94-.17-1.65-.03.17-.06.35.08-.17s-.05-.04.18-.5c0,.02.56-.81.25-.45.07-.08.69-.61.33-.34.35-.25.08-.16.52-.16.86,0,1.71-.15,2.53-.4.19-.06.41-.11.6-.19.6-.23-.4.08-.78-.3,2.75,2.72,7-1.52,4.24-4.24-1.32-1.3-2.97-1.74-4.77-1.32-.3.07-.59.18-.89.26.07-.02-.96.23-.56.18-.81.1-1.6.04-2.4.29-3.11.94-5.02,4.07-5.32,7.17-.32,3.35,1.46,6.34,3.46,8.86,2.21,2.77,4.65,5.36,6.99,8.01,4.45,5.06,8.8,10.44,14.6,14.04,2.91,1.81,6.11,3.12,9.3,4.37,3.5,1.38,7.02,2.72,10.53,4.07,7.91,3.06,15.83,6.12,23.74,9.17,3.14,1.21,5.41-4.09,2.31-5.48-20.43-9.17-41.16-19.66-56.39-36.51-1.02-1.12-2.01-2.27-2.97-3.45-.44-.54-.91-1.12-1.2-1.76-.16-.35-.12-.69-.17-.91.02.09-.36.64-.06.15.12-.21.23-.43.35-.63.14-.23.29-.45.44-.66.5-.72-.37.4.21-.26.34-.4.71-.75,1.08-1.11-.44.42-.26.15-.1.08.29-.17.21-.14-.26.07-1.2.24-2.18-.33-2.94-1.7,1.13,3.68,6.92,2.11,5.79-1.6h0Z"/><path d="m117.3,388.17c3,7.13,6.34,13.82,11.42,19.73,8.23,9.58,19.55,15.93,31.25,20.31,7.82,2.93,15.9,5.2,24.06,6.93,6.07,1.29,12.3,2.41,18.51,2.66,4.79.19,9.03-1.31,13.33-3.32,5.95-2.79,11.56-6.35,16.91-10.14,5.99-4.24,11.59-8.92,16.96-13.92s10.27-9.55,14.75-14.92c2.35-2.81,4.51-5.78,6.54-8.82,1.89-2.82,4.29-5.2,5.63-8.53,1.26-3.13,1.42-6.74.09-9.87s-4.37-5.95-7.89-6.65c-3.28-.66-6.72.14-9.48,2.01-1.28.87-2,1.92-2.89,3.19-1.27,1.81-2.54,3.62-3.81,5.43-2.54,3.62-5.08,7.24-7.61,10.86-.55.78-1.07,1.66-1.73,2.34-.81.81-1.72,1.54-2.58,2.3-1.66,1.48-3.31,2.96-4.97,4.44-3.31,2.96-6.63,5.92-9.94,8.88-2.86,2.55-5.57,5.11-8.87,7.12-2.61,1.59-4.61,2.54-7.35,3.4-1.85.58-3.76,1.02-5.7,1.22-6.89.69-14.13-.03-20.86-1.54-4.01-.9-7.93-2.53-11.82-3.85-.94-.32-2.01-.56-2.88-1.01-.96-.51-1.87-1.22-2.79-1.81-1.87-1.21-3.75-2.42-5.62-3.63-3.75-2.43-7.25-5.21-10.82-7.9-3.5-2.65-6.97-5.26-10.24-8.18-1.6-1.43-3.2-2.86-4.8-4.28s-3.07-3.09-4.94-4.03c-3.4-1.7-7.68-1.41-10.48,1.31-2.99,2.9-3.11,7.54-1.09,11.01s7.14.32,5.18-3.03c-.64-1.1-.78-2.19-.33-3.11.22-.44.48-.68.75-.85.1-.06.75-.34.45-.24.15-.05.31-.1.47-.13.52-.11-.35,0,.18-.04.76-.07.95-.07,1.72.22.34.13,1,.61,1.42.99,1.6,1.43,3.2,2.86,4.8,4.28s3.2,2.86,4.8,4.28,3.38,2.69,5.1,3.99c3.43,2.59,6.87,5.19,10.3,7.78s6.98,4.73,10.52,7.01c.89.57,1.77,1.26,2.71,1.75,1.01.53,2.2.81,3.28,1.17,2.02.69,4.04,1.37,6.07,2.06,3.34,1.13,6.58,2.14,10.06,2.74s6.97.97,10.49,1.15c5.42.29,10.96.02,16.15-1.71,6.44-2.14,11.98-5.95,16.9-10.58,6.17-5.8,12.84-11.09,18.96-16.95,1.56-1.49,2.7-3.59,3.94-5.36s2.44-3.49,3.67-5.23c2.39-3.41,4.93-6.76,7.19-10.26.33-.51-.83.53-.12.07.44-.29.88-.57,1.35-.81.67-.35.49-.27,1.26-.49s1-.27,1.84-.25c1.26.03,2.49.66,3.32,1.48s1.21,1.49,1.49,2.56c.24.93.23,2.16-.04,3.28-.35,1.44-.89,2.56-1.72,3.82-.92,1.38-2.16,2.47-3.07,3.87s-1.79,2.69-2.73,4.01c-3.64,5.11-7.88,9.63-12.37,14-5.13,4.99-10.33,9.93-15.94,14.38-5.08,4.02-10.45,7.71-16.05,10.96-2.51,1.46-5.08,2.84-7.74,4.02-.75.33-1.72.74-2.94,1.15-.93.32-1.88.59-2.84.79-.2.04-.41.07-.61.11-.54.11.63-.02-.07,0-.41.01-.81.04-1.22.04-1.01,0-2.01-.04-3.01-.11-2.71-.18-5.02-.48-7.45-.86-7.24-1.14-14.41-2.81-21.44-4.88s-14.35-4.63-21.03-8.15c-2.68-1.41-5.29-2.98-7.79-4.71-2.19-1.52-3.86-2.84-5.95-4.75-1.71-1.57-3.32-3.24-4.82-5-.35-.42-.7-.84-1.04-1.27-.14-.17-.45-.59-.14-.17-.17-.22-.34-.45-.51-.68-.6-.81-1.18-1.64-1.73-2.49-1.88-2.88-3.47-5.93-4.87-9.07-.27-.61-.54-1.23-.8-1.85-.18-.42-.08-.2.05.13-.07-.17-.14-.33-.21-.5-.13-.3-.25-.6-.38-.9-.63-1.49-1.98-2.56-3.69-2.1-1.41.39-2.73,2.19-2.1,3.69Z"/></g></g></g></g></svg>