<?xml version="1.0" encoding="UTF-8"?><svg id="Calque_2" xmlns="http://www.w3.org/2000/svg" viewBox="0 0 29.59 36.75"><g id="cv"><g><path d="m3.01,35.3c-.17-6.06,5.24-12.25,11.42-12.22,3.07.01,6.08,1.17,8.25,3.37,2.4,2.43,3.23,5.71,3.97,8.93.43,1.88,3.33,1.08,2.89-.8-.89-3.87-2.05-7.7-5.01-10.52-2.8-2.67-6.66-4.09-10.52-3.99C6.41,20.28-.21,27.78,0,35.3c.06,1.93,3.06,1.93,3,0h0Z"/><path d="m9.16,2.04c-3.54,1.93-5.26,6.31-4.04,10.15,1.29,4.06,5.14,6.72,9.38,6.73,2.15,0,4.38-.63,6.07-1.98,1.6-1.27,2.87-3.32,3.46-5.27,1.09-3.62-.33-7.78-3.33-10.03-3.24-2.44-8.4-2-11.54.41-.64.49-.98,1.29-.54,2.05.37.63,1.41,1.03,2.05.54,2.01-1.54,4.99-2.15,7.37-1.11s3.54,3.78,3.32,6.2c-.13,1.43-.87,2.76-1.73,3.89-.96,1.26-2.32,1.94-3.86,2.21-2.88.5-5.85-.76-7.29-3.33-1.55-2.77-.62-6.32,2.18-7.85,1.69-.93.18-3.52-1.51-2.59h0Z"/></g></g></svg>