<?xml version="1.0" encoding="UTF-8"?><svg id="Calque_2" xmlns="http://www.w3.org/2000/svg" viewBox="0 0 114.44 92.69"><defs><style>.cls-1{fill:#1d1d1b;}</style></defs><g id="Calque_1-2"><path class="cls-1" d="M47.32,47.53c-4.4-3.92-10.29-5.51-16.08-4.52s-10.5,4.92-12.94,10.01c-2.62,5.46-2.83,12.45,1.17,17.33,3.44,4.19,9.75,5.2,14.71,3.51,6.45-2.21,10.45-8.2,12.58-14.39h-4.82c2.02,5.09,2.44,11.37,8.17,13.84,4.91,2.11,11.01,.34,14.35-3.74,7.52-9.17,3.1-23.02-3.74-31.16-7.7-9.16-19.98-13.31-31.74-11.98-6.04,.69-12.26,2.5-17.25,6.09S3.53,41.46,1.82,47.41c-2.86,9.94-2.57,21.45,2.43,30.68,2.43,4.49,6.15,8.32,10.74,10.61,5.82,2.91,12.58,3.77,19.02,3.96,9.93,.29,20.12-1.74,28.54-7.18,7.95-5.14,14.33-12.92,16.46-22.27,1.05-4.63,1.25-9.43,1.35-14.16,.1-4.33,.2-8.67,.01-13-.44-10.1-.64-20.27-.24-30.38,.03-.66,.05-1.33,.11-1.99,.04-.48,.19-.66,0-.1,.29-.83-.21,.32-.52,.66l-1.1,.64h.02c-.44,0-.89,0-1.33,0,.16,.04-1.84-1.07-1.65-1.59,0,.02,.03,.07,.03,.1,0,.11,.05,.24,.07,.35,.04,.18,.06,.36,.09,.54-.1-.57-.03-.24,.02,.18,.16,1.34,.27,2.68,.38,4.02,.33,3.99,.59,8,.85,12,.6,9.6,.97,19.22,1.75,28.8,.55,6.79,1.09,13.56,1.3,20.38,.14,4.53,.04,9.2,.9,13.68,.55,2.86,2.06,5.79,5.11,6.56,3.92,.99,8.43-1.03,11.89-2.67,1.91-.91,3.79-1.94,5.52-3.18,2.05-1.47,3.72-3.35,5.34-5.28,1.38-1.65,2.72-3.39,3.67-5.33,.72-1.48,1.23-3.04,1.78-4.59,.45-1.27-.51-2.74-1.75-3.08-1.38-.38-2.62,.47-3.08,1.75-.31,.87-.61,1.75-.93,2.62-.24,.64,.08-.13-.1,.25-.1,.2-.19,.41-.29,.61-.25,.51-.54,1.01-.84,1.5-1.57,2.51-3.69,5.05-6,6.98-.3,.26,.26-.17-.24,.18-.22,.16-.45,.32-.67,.47-.58,.39-1.18,.76-1.79,1.12-1.29,.75-2.62,1.44-3.98,2.05-1.18,.53-2.54,1.03-3.88,1.39-.51,.14-1.51,.36-1.73,.39,.17-.02-.47,.04-.61,.04-.15,0-.3,0-.44,0-.07,0-.67-.04-.29,0,.31,.03-.3-.08-.42-.1-.39-.07,.33,.25-.14-.07-.43-.29,.04,.08,0,.03-.12-.13-.27-.27-.4-.39-.4-.34,.17,.32,0-.01-.1-.18-.2-.36-.31-.53-.05-.09-.09-.2-.14-.29,0,0,.18,.47,.09,.2s-.18-.51-.25-.78c-.13-.46-.23-.93-.31-1.4-.03-.15-.12-.75-.1-.57,.04,.31-.03-.21-.03-.27-.02-.21-.05-.42-.07-.64-.15-1.49-.22-3-.28-4.5-.17-4.33-.23-8.66-.47-12.99-.28-5.01-.75-10.01-1.14-15.01-1.02-12.94-1.38-25.92-2.44-38.85-.16-2-.33-4.01-.62-6-.07-.48-.14-.92-.34-1.36-.83-1.85-3.44-2.22-4.54-.35-.9,1.52-.63,4.05-.68,5.74-.1,3.6-.11,7.2-.1,10.8,.02,6.64,.26,13.27,.45,19.91,.09,3.39,0,6.8-.05,10.19s-.16,7.02-.58,10.5c-.12,.99-.39,2.56-.68,3.79-.3,1.29-.69,2.57-1.16,3.81-.27,.72-.28,.74-.64,1.48-.38,.8-.79,1.59-1.24,2.36-.93,1.61-1.99,3.13-3.21,4.54-3.61,4.2-8.12,7.46-13.18,9.74-.19,.09-.38,.17-.57,.25-.41,.19,.57-.22,.04-.02-.8,.3-1.59,.62-2.4,.89-2.23,.75-4.51,1.33-6.83,1.74-4.5,.8-9.12,.91-13.67,.58-7.75-.56-15.79-2.4-20.74-8.88-4.03-5.28-5.53-12.18-5.5-18.71,.03-7.24,1.71-15.75,6.93-21.1,5.67-5.81,14.89-7.92,22.75-7.63s15.47,3.39,20.97,9.08c4.98,5.14,8.42,12.6,7.49,19.87-.41,3.21-1.91,6.48-4.85,8.08-2.42,1.31-5.74,1.49-7.75-.55-2.4-2.43-2.61-6.51-3.82-9.56-.9-2.27-3.98-2.46-4.82,0-1.39,4.06-3.78,8.07-7.62,10.22-3.02,1.69-7.31,1.88-10.13-.35-3.41-2.69-3.32-8.01-1.89-11.72s4.61-6.9,8.49-8.05c4.45-1.31,9.52-.29,13,2.82,2.39,2.14,5.94-1.39,3.54-3.54h0Z"/><path class="cls-1" d="M81.52,43.61c1.1-1.14,2.93-1.14,4.4-1.29,2.28-.24,4.56-.47,6.84-.71,4.72-.49,9.44-.98,14.16-1.46,1.34-.14,2.5-1.05,2.5-2.5,0-1.24-1.15-2.64-2.5-2.5-5.21,.54-10.42,1.08-15.63,1.62-2.47,.26-4.95,.46-7.41,.78-2.21,.29-4.3,.88-5.9,2.53-2.24,2.31,1.29,5.85,3.54,3.54h0Z"/></g></svg>