<?xml version="1.0" encoding="UTF-8"?><svg id="Calque_2" xmlns="http://www.w3.org/2000/svg" viewBox="0 0 160.84 122.41"><defs><style>.cls-1{fill:#1d1d1b;}</style></defs><g id="Calque_1-2"><path class="cls-1" d="m64.83,61.43c-6.27-5.5-14.46-7.6-22.64-6.27-7.61,1.24-14.47,6.56-17.94,13.39-3.96,7.8-4.14,17.69,1.67,24.65,4.94,5.91,14.11,7.33,21.14,4.89,8.88-3.09,14.49-11.05,17.49-19.62h-9.64c1.47,3.59,2.18,7.41,3.77,10.97,1.77,3.94,4.97,6.93,9.03,8.38,7.84,2.81,16.61-1.09,21.15-7.66s4.76-15.93,2.69-23.58-6.14-14.09-11.55-19.39c-12.32-12.08-30.4-15.86-46.99-12.27-8.16,1.77-16.63,5.41-22.34,11.69S2.12,60.79.82,68.86c-2.26,13.96-.09,29.23,9.37,40.25,10.23,11.91,27.24,13.4,41.94,13.3,7.37-.05,14.81-.61,22.05-2.01,4.91-.95,9.68-2.45,13.95-5.09,5.16-3.19,9.8-7.35,13.57-12.09,4.35-5.46,8-11.57,9.87-18.35,1.65-5.98,2.01-12.31,2.19-18.48.18-5.95.34-11.95.08-17.9-.56-13.1-.86-26.29-.34-39.39.04-.91.08-1.83.16-2.74.01-.14.04-.27.04-.41.02-.62-.29,1.51-.11.84.02-.09.02-.18.05-.27,0-.01.03-.11.03-.11.26.24-1.3,2.17-1.22,2.1l-2.21,1.29h.02c-.89,0-1.77,0-2.66,0l-1.08-.63c-.64-.19-1.13-.57-1.46-1.12-.18-.23-.5-.67-.36-.46-1.67-2.61-.49-1.39-.44-1.01.02.15.08.31.11.47.04.21.07.42.1.62.18,1.08-.19-1.55-.04-.32.19,1.65.35,3.3.49,4.96.44,5.04.77,10.1,1.1,15.15.79,12.19,1.25,24.4,2.26,36.57.71,8.68,1.46,17.35,1.75,26.06.2,6.16.11,12.43,1.18,18.52.78,4.45,3.17,8.71,7.76,10.05,2.69.79,5.71.36,8.38-.29,2.89-.7,5.67-1.85,8.36-3.08,2.34-1.07,4.63-2.28,6.78-3.69,2.35-1.54,4.25-3.35,6.2-5.36,3.62-3.72,7.28-7.52,10.05-11.94.51-.81.99-1.65,1.46-2.48,1.28-2.28.62-5.56-1.79-6.84s-5.47-.64-6.84,1.79c-.68,1.22-1.39,2.43-2.18,3.59-.39.58-.84,1.12-1.22,1.7.97-1.47.21-.28-.06.06-.29.35-.58.7-.88,1.04-1.39,1.61-2.85,3.16-4.32,4.69-.95.99-1.91,1.97-2.87,2.95-.34.34-.67.7-1.02,1.02-.38.34-1.47.96,0,.04-1.42.88-2.75,1.87-4.21,2.69-.77.43-1.56.85-2.35,1.24-.46.23-.91.45-1.38.66-.23.11-.47.22-.7.32-.35.16-1.46.46-.08.05-1.9.57-3.67,1.43-5.61,1.9-.43.1-.87.2-1.31.28-1.27.23,1.03-.06-.03.01-.35.02-.69.05-1.04.06-.22,0-.43-.01-.65-.02-.63,0-.57-.44.53.08-.19-.09-.7-.23-.89-.24.05,0,1.12.61.74.3-.1-.08-.26-.16-.37-.21-.83-.41.94.92.39.32-.17-.19-.36-.39-.55-.56-.3-.28.8,1.29.26.29-.12-.23-.25-.47-.38-.7-.32-.56.5,1.45.15.32-.1-.33-.21-.65-.3-.98-.18-.68-.32-1.37-.43-2.07-.02-.15-.04-.31-.07-.46-.16-.9.13,1.15.07.49-.04-.47-.11-.94-.15-1.42-.19-2.06-.28-4.13-.36-6.2-.22-5.93-.33-11.85-.71-17.77-.43-6.64-1.08-13.27-1.59-19.91-1.25-16.47-1.68-33-3.19-49.46-.21-2.25-.3-4.65-.86-6.85-.78-3.04-3.93-4.88-6.94-3.61-2.61,1.1-3.08,3.34-3.32,5.8-.34,3.47-.3,7.01-.33,10.49-.05,5.35-.03,10.7.05,16.05.11,7.66.59,15.31.53,22.96-.04,5.32-.06,10.65-.4,15.95-.06,1.01-.14,2.03-.24,3.04-.05.51-.1,1.01-.16,1.52-.02.2-.05.4-.07.59-.12,1.01.2-1.26,0-.02-.3,1.87-.65,3.72-1.16,5.54-.21.77-.45,1.53-.71,2.28-.15.42-.3.83-.46,1.24-.08.21-.17.41-.25.62-.11.3.52-1.18.03-.09-1.01,2.25-2.23,4.41-3.57,6.48-.68,1.06-1.43,2.07-2.15,3.09-.46.64.74-.92-.03.05-.16.2-.31.39-.47.59-.46.57-.93,1.13-1.42,1.67-1.48,1.67-3.06,3.24-4.74,4.71-.38.33-.76.66-1.15.98-.2.16-1.31,1.04-.62.51s-.51.37-.7.51c-.38.28-.77.55-1.16.81-1.19.81-2.43,1.56-3.71,2.22-.48.25-.97.47-1.46.71-.62.29,1.48-.57.53-.22-.47.17-.94.35-1.42.52-2.03.69-4.12,1.21-6.22,1.63-1.15.23-2.31.44-3.46.62-.6.09-1.2.2-1.8.26.14-.01,1.16-.14.23-.04-.37.04-.74.09-1.11.13-2.57.29-5.15.5-7.73.63-4.89.25-9.8.26-14.68-.03-.96-.06-1.91-.12-2.87-.21-.5-.04-1-.09-1.5-.14-.24-.03-.48-.05-.72-.08-.21-.02-1.74-.22-.56-.06-2.9-.4-5.79-.96-8.59-1.82-.7-.21-1.39-.45-2.07-.7-.27-.1-.54-.21-.81-.31-1.29-.5.54.29-.21-.09-1.28-.66-2.56-1.26-3.78-2.04-.48-.31-.94-.64-1.41-.96-.27-.18-.73-.34.2.17-.23-.13-.45-.36-.65-.53-.9-.75-1.75-1.55-2.55-2.4-.38-.4-.75-.82-1.1-1.24-.14-.17-.28-.34-.42-.51-.71-.85.45.7.07.09-.62-.99-1.33-1.9-1.92-2.91s-1.08-1.95-1.55-2.96c-.09-.2-.19-.41-.28-.61-.47-1.03.31.8.04.11-.22-.58-.45-1.15-.66-1.74-.76-2.15-1.33-4.37-1.75-6.61-.1-.57-.19-1.14-.28-1.71-.18-1.16.1.89.02.13-.03-.29-.07-.57-.1-.86-.12-1.15-.2-2.31-.24-3.47-.08-2.32-.01-4.64.2-6.95.05-.57.16-1.15.19-1.72-.07,1.52.06-.37.12-.72.21-1.28.47-2.55.77-3.82s.64-2.53,1.03-3.77c.21-.65.43-1.3.67-1.95.09-.26.19-.51.29-.77.1-.25.2-.51.31-.76-.21.5-.24.59-.1.25.58-1.16,1.12-2.33,1.78-3.45.35-.58.72-1.16,1.1-1.72.16-.22.32-.44.48-.66-.7.97.35-.42.5-.59.81-.93,1.69-1.81,2.62-2.61.31-.27.63-.53.95-.79-.15.12-.79.57-.02.04.68-.47,1.36-.94,2.07-1.37,1.06-.65,2.17-1.24,3.29-1.78.38-.18.76-.35,1.14-.52.19-.09.89-.34-.04.02.78-.3,1.55-.61,2.34-.88,2.71-.94,5.49-1.65,8.32-2.13.28-.05.57-.09.85-.14,1.42-.24-1.05.1.38-.05.64-.07,1.29-.14,1.93-.19,1.5-.12,3.01-.18,4.52-.17,1.36.01,2.72.08,4.08.2.36.03.71.07,1.07.11,0,0,1.39.19.61.07s.61.1.61.1c.42.07.85.15,1.27.23,2.81.54,5.54,1.37,8.2,2.4,1.28.5-.57-.28.19.08.32.15.65.29.97.44.58.28,1.16.56,1.73.87,1.11.59,2.19,1.23,3.24,1.92.53.34,1.04.7,1.55,1.07.25.18.5.37.76.56.62.46-.92-.76.02.03s1.91,1.62,2.81,2.49,1.75,1.78,2.56,2.73c.21.25,1.46,1.75.63.73.39.48.74,1,1.1,1.51.71,1.02,1.36,2.07,1.97,3.15.3.54.59,1.09.86,1.64.11.22.22.44.32.67.06.12.66,1.46.35.75-.32-.75.14.37.17.43.09.23.18.46.26.69.21.58.41,1.16.59,1.75.38,1.24.69,2.5.92,3.77.06.3.1.61.16.91.16.94.02-.07-.02-.19.19.55.13,1.33.16,1.91.03.64.04,1.28.03,1.93-.02.7.08,1.65-.15,2.3.04-.12.2-1.14.02-.19-.06.31-.11.63-.17.94-.12.56-.25,1.11-.41,1.66-.08.28-.33,1.62-.62,1.78l.21-.5c-.08.17-.16.34-.24.51-.19.39-.4.78-.63,1.16-.13.22-.26.43-.4.64-.02.03-.73,1.05-.27.42s-.3.34-.33.38c-.16.18-.32.35-.49.52-.23.24-.49.45-.73.68-.49.47.15.07.23-.16-.12.35-1.41.91-1.71,1.07-.2.11-.4.2-.6.3-1.01.5.8-.26.1-.05-.54.17-1.06.36-1.61.5-.27.07-.55.12-.82.18-.96.22.32-.09.33-.03,0,.04-1.82.08-1.99.07-.22,0-.44-.03-.66-.04-1.13-.06,1.12.29.04-.01-.43-.12-.96-.34-1.4-.39-.63-.06,1.06.57.15.07-.19-.1-.38-.19-.57-.3-.06-.04-.84-.47-.82-.52-.02.05.89.8,0-.05-.18-.17-.34-.36-.52-.53-.87-.8.49.86-.13-.13-.29-.46-.59-.91-.84-1.4-.12-.22-.38-.57-.4-.82.06.74.23.61.08.18-.21-.58-.43-1.16-.62-1.75-.77-2.39-1.34-4.84-2.29-7.17-.81-1.99-2.46-3.78-4.82-3.67s-4.06,1.51-4.82,3.67c-.25.72-.5,1.45-.81,2.14.53-1.17-.02.01-.11.21-.16.35-.33.69-.5,1.03-.7,1.37-1.52,2.65-2.38,3.92-.71,1.06.68-.77-.15.2-.25.29-.49.58-.74.87-.51.56-1.04,1.11-1.6,1.62-.28.26-.57.5-.86.74-.71.61.03.02.11-.08-.52.6-1.56,1.06-2.25,1.43-.16.09-.78.51-.96.48l.56-.23c-.21.09-.43.17-.65.25-.66.24-1.33.43-2.01.58-.23.05-.46.09-.69.14-1.19.25,1.15-.06-.06.02-.82.06-1.62.11-2.44.07-.13,0-.97.02-1.04-.08l.64.09c-.23-.03-.45-.07-.68-.12-.56-.11-1.11-.25-1.66-.42-.19-.06-.84-.18-.96-.34l.57.24c-.2-.09-.41-.19-.61-.3-.3-.16-.59-.32-.87-.5-.19-.12-.38-.24-.56-.37.56.45.63.51.22.17-.46-.42-.88-.87-1.32-1.31s.55.97-.06-.11c-.2-.36-.43-.69-.63-1.06-.1-.19-.58-1.41-.17-.3-.14-.39-.28-.77-.39-1.17s-.21-.79-.3-1.2c-.06-.27-.11-.54-.15-.81.08.65.09.68.03.1-.03-.64-.08-1.27-.07-1.91,0-.36.02-.73.05-1.09.03-.4-.14-1.34-.02-.11-.06-.63.28-1.52.44-2.13.19-.71.43-1.39.67-2.08.4-1.17-.5.95.07-.15.17-.33.32-.66.49-.98.34-.65.72-1.28,1.12-1.88.19-.28.39-.66.63-.9-.9.85-.05.08.13-.13.48-.56.98-1.09,1.52-1.59.27-.25.54-.5.82-.74.26-.22.88-1.03.14-.13.42-.5,1.29-.89,1.85-1.21s1.09-.58,1.64-.85c1.12-.55-1.01.31.18-.06.47-.15.93-.32,1.41-.46.71-.2,1.79-.64,2.53-.55-1.2-.13-.26.04.14,0,.37-.03.74-.05,1.11-.07.87-.03,1.73,0,2.6.06.33.03,1.45-.06.15,0,.46-.02,1.02.17,1.46.27.79.17,1.56.39,2.32.64.29.1.58.21.87.31.52.21.46.18-.17-.08.23.1.45.2.67.31.77.38,1.52.8,2.25,1.27.27.17.7.38.91.63-.81-.97.17.16.42.38,1.97,1.72,5.16,2.08,7.07,0,1.73-1.89,2.1-5.23,0-7.07h0Z"/><path class="cls-1" d="m114.83,58.95c.15-.15.92-.66.32-.34-.68.36.44-.11.42-.18.02.07-.99.32-.18.08.3-.09.59-.18.89-.26s.61-.13.92-.19c.63-.13.13-.06-.21.01.6-.12,1.25-.14,1.86-.2,3.14-.32,6.29-.64,9.43-.95,6.2-.63,12.41-1.25,18.61-1.88,2.59-.26,5.13-2.11,5-5-.11-2.48-2.21-5.28-5-5-6.7.68-13.4,1.36-20.1,2.03-3.2.32-6.41.59-9.61.98-3.5.42-6.86,1.2-9.41,3.83-1.83,1.88-2.01,5.23,0,7.07s5.12,2,7.07,0h0Z"/></g></svg>