<?xml version="1.0" encoding="UTF-8"?><svg id="Calque_2" xmlns="http://www.w3.org/2000/svg" viewBox="0 0 123.58 186.82"><g id="Calque_3"><g><g><path d="m122.08,87.92c-.7-12.87-2.71-25.67-6-38.14-3.5-13.28-8.72-26.61-18.44-36.32S72.85-1.57,60.02,3.33c-3.25,1.24-6.31,3.13-8.57,5.78-7.53,8.87-3.47,23.2,4.9,31.29,8.36,8.09,19.78,12,30.05,17.46,13.98,7.43,26.23,18.07,35.54,30.87"/><path d="m123.58,87.92c-.54-9.79-1.81-19.54-3.82-29.13-1.83-8.73-4.17-17.42-7.65-25.65-3.27-7.73-7.65-15.1-13.67-21.01-5.55-5.44-12.65-9.51-20.25-11.24s-15.79-1.08-22.56,2.86-10.09,10.66-9.59,18.2,3.92,14.19,9.01,19.25c5.99,5.95,13.7,9.73,21.24,13.32,7.69,3.67,15.16,7.53,22.05,12.58s13.04,10.9,18.46,17.41c1.34,1.61,2.62,3.26,3.86,4.95,1.13,1.54,3.73.05,2.59-1.51-9.54-13.06-21.96-23.94-36.26-31.51-13.08-6.92-30.29-12-36.2-27.08-2.37-6.06-2.78-13.44,1.42-18.82,4.63-5.93,13-7.98,20.19-7.51s14.65,3.62,20.48,8.17c6.23,4.87,10.9,11.49,14.4,18.51,3.68,7.36,6.12,15.29,8.09,23.26,2.27,9.18,3.86,18.52,4.72,27.94.21,2.33.38,4.66.51,6.99.11,1.92,3.11,1.93,3,0h0Z"/></g><g><path d="m94.1,111.27c-6.73-11.04-16.57-25.04-28.27-30.52-7.38-3.46-15.56-5.55-23.67-4.76-8.11.79-16.11,4.72-20.74,11.42-1.96,2.84-3.32,6.33-2.66,9.72.79,4.08,4.39,7.16,8.33,8.49,3.94,1.33,8.2,1.2,12.35.97,16.49-.91,38.26-2.8,54.67,4.69"/><path d="m95.4,110.51c-6.12-10.03-13.1-20.19-22.62-27.29-4.94-3.68-10.82-6.12-16.79-7.59-6.37-1.56-13.13-1.86-19.5-.13-5.55,1.51-10.84,4.5-14.62,8.88s-6.55,10.87-3.28,16.42,9.77,7.29,15.75,7.4,12.01-.58,17.99-.83c13.66-.57,28.32-.55,41.02,5.18,1.75.79,3.27-1.8,1.51-2.59-10.63-4.8-22.5-5.84-34.03-5.8-5.68.02-11.35.32-17.01.65s-12.55,1.4-17.95-1.35c-2.18-1.11-4.18-2.82-5.17-5.11-1.19-2.77-.46-5.88.92-8.43,2.63-4.85,7.32-8.44,12.39-10.45,5.52-2.19,11.57-2.64,17.41-1.72s12.11,3.01,17.25,6.26,9.61,7.88,13.5,12.65,7.38,10.04,10.63,15.35c1,1.65,3.6.14,2.59-1.51h0Z"/></g><g><path d="m92.77,138.9c-12.21-2.53-24.59-3.95-36.9-4.23-13.12-.3-26.59.81-37.51,6.53-10.92,5.72-18.72,16.94-16.51,28.77.56,3,1.76,5.99,3.83,8.5,6.92,8.39,21.12,8.48,30.27,3.49,9.14-4.99,14.93-13.51,21.97-20.72,9.57-9.8,21.83-17.4,35.57-22.03"/><path d="m93.17,137.45c-8.94-1.84-17.99-3.12-27.09-3.79-8.58-.63-17.28-.86-25.85.02-14.56,1.49-30.51,6.91-37.47,20.9-3.12,6.26-3.77,13.67-1.02,20.18s8.42,10.27,15.02,11.53c6.21,1.19,12.81.33,18.53-2.32,6.67-3.09,11.91-8.6,16.73-14s10.05-11.15,16.1-15.73,13.02-8.57,20.21-11.5c1.84-.75,3.69-1.44,5.57-2.07s1.04-3.52-.8-2.89c-13.89,4.72-26.76,12.49-36.93,23.13-9.08,9.51-17.3,21.72-31.61,22.83-5.73.45-12.04-.73-16.36-4.78-5.02-4.7-6.22-12.3-4.43-18.74,3.94-14.16,18.73-20.81,32.05-22.96,7.97-1.29,16.13-1.3,24.18-.95,8.67.38,17.3,1.31,25.85,2.8,2.18.38,4.35.8,6.52,1.24,1.88.39,2.69-2.5.8-2.89h0Z"/></g></g></g></svg>