<?xml version="1.0" encoding="UTF-8"?><svg id="Calque_2" xmlns="http://www.w3.org/2000/svg" viewBox="0 0 42.23 33.23"><g id="Calque_13"><g><path d="m27.04,2.54c4.57,4.34,8.71,9.1,12.39,14.21v-1.51c-4.04,5.29-8.3,10.42-12.74,15.38-1.28,1.43.83,3.56,2.12,2.12,4.62-5.15,9.01-10.49,13.21-15.99.29-.38.28-1.13,0-1.51-3.83-5.33-8.1-10.3-12.86-14.82-1.4-1.33-3.52.79-2.12,2.12h0Z"/><path d="m38.89,14.54c-4.5.27-9.04.16-13.54.16-5.9,0-11.8-.05-17.71-.07-2.07,0-4.13-.03-6.2,0-1.93.02-1.93,3.02,0,3,10.42-.1,20.83.14,31.25.06,2.06-.02,4.13-.01,6.19-.14,1.92-.12,1.93-3.12,0-3h0Z"/></g></g></svg>