<?xml version="1.0" encoding="UTF-8"?><svg id="Calque_2" xmlns="http://www.w3.org/2000/svg" viewBox="0 0 30.11 34.87"><g id="linkedin"><path d="m.63,8.75c-.47,8.09-.35,16.2.38,24.28.17,1.91,3.17,1.93,3,0-.73-8.07-.85-16.19-.38-24.28.11-1.93-2.89-1.92-3,0h0Z"/><path d="m9.01,9.13c-.19,8.1-.24,16.2-.16,24.29.02,1.93,3.02,1.93,3,0-.08-8.1-.03-16.2.16-24.29.04-1.93-2.96-1.93-3,0h0Z"/><path d="m11.9,17.6c1.38-2.44,3.46-4.44,6.02-5.61,2.28-1.03,5.3-1.26,6.74,1.15,1.68,2.81,1.76,6.48,1.98,9.64.25,3.54.4,7.08.45,10.63.03,1.93,3.03,1.93,3,0-.07-4.27-.25-8.54-.62-12.79-.3-3.56-.75-8.13-3.58-10.69-2.53-2.29-6.28-1.97-9.2-.68-3.13,1.39-5.72,3.85-7.4,6.82-.95,1.68,1.64,3.19,2.59,1.51h0Z"/><path d="m2.17,4.5c2.9,0,2.9-4.5,0-4.5s-2.9,4.5,0,4.5h0Z"/></g></svg>