<?xml version="1.0" encoding="UTF-8"?><svg id="Calque_2" xmlns="http://www.w3.org/2000/svg" viewBox="0 0 151.13 114.67"><defs><style>.cls-1{fill:#1d1d1b;}</style></defs><g id="Calque_1-2"><path class="cls-1" d="m59.99,58.14c-5.7-4.99-13.25-6.95-20.69-5.68-7.03,1.2-13.33,6.12-16.46,12.5-3.44,7.02-3.61,15.93,1.66,22.12,4.47,5.25,12.66,6.45,18.95,4.29,8.13-2.79,13.27-10.17,16-17.99h-7.23c1.13,2.77,1.69,5.72,2.78,8.5,1.31,3.36,3.25,6.32,6.41,8.21,7.52,4.5,16.73.87,21.35-5.95,3.93-5.8,4.2-13.45,2.73-20.09s-5.22-13.31-10.07-18.43c-10.99-11.62-27.57-15.56-43.01-12.8-7.74,1.39-15.67,4.53-21.41,10.04S2.36,56.08.96,63.69c-2.38,12.97-.54,27.31,7.97,37.79,2.06,2.54,4.6,4.73,7.36,6.48,2.3,1.46,4.93,2.39,7.53,3.15,5.79,1.7,11.91,2.79,17.93,3.25,7.94.6,16.12.35,23.97-.91,5.65-.91,11.39-2.46,16.32-5.44s9.29-6.88,12.86-11.33c4.06-5.05,7.48-10.75,9.24-17.02,1.57-5.57,1.92-11.46,2.1-17.21s.34-11.49.09-17.21c-.53-12.5-.83-25.09-.33-37.6.03-.85.07-1.7.14-2.55.01-.14.03-.28.04-.41.04-.68-.18.91-.07.51.02-.07.01-.16.05-.23.01-.03.02-.08.03-.11-.21.56-.43,1.14-.9,1.54l-1.65.96h.02c-.66,0-1.33,0-1.99,0-1.36-.24-2.23-1.47-2.54-2.5.01.04.02.08.03.13.03.1-.11-1.32-.08-.54.02.43.05.86.06,1.29.03,1.34.02,2.68,0,4.03-.04,4.22-.14,8.44-.23,12.65-.19,9.41-.49,18.87.02,28.27.35,6.47,1.2,12.88,1.75,19.33.61,7.14.68,14.28,1.72,21.38.39,2.67.9,5.34,1.64,7.94.81,2.82,1.84,5.68,3.99,7.77,4.92,4.79,11.85,3.77,17.82,1.87,11.66-3.71,20.74-12.7,25.08-24.05.7-1.84-.78-4.19-2.62-4.61-2.14-.49-3.86.65-4.61,2.62-.07.2-.15.39-.23.59-.23.6-.15.24.08-.19-.3.56-.52,1.17-.8,1.74-.69,1.4-1.47,2.76-2.33,4.06-.24.37-.49.74-.75,1.1-.12.17-.24.33-.36.5,0,0-.61.8-.28.37s-.33.4-.31.38c-.14.17-.28.34-.43.51-.37.43-.75.86-1.14,1.27-.74.79-1.52,1.55-2.33,2.27-.43.38-.86.75-1.31,1.1-.57.46.7-.5-.33.25-.32.24-.65.47-.98.7-4.2,2.89-8.59,4.6-13.67,5.41-.22.03-.44.07-.66.1.8-.11.09-.02-.12,0-.53.05-1.04.06-1.56.05-.74-.02-.2-.02-.04,0-.28-.06-.56-.12-.84-.2s-.55-.16-.81-.28c.6.26-.16-.13-.33-.22-.2-.12-.38-.24-.57-.37.51.35.06.04-.04-.05-.16-.16-.32-.33-.49-.48-.75-.67.17.31-.18-.18-.31-.43-.55-.89-.78-1.36.36.74-.15-.45-.24-.7-.67-1.91-1.16-3.87-1.56-5.85-.22-1.09-.42-2.19-.59-3.29-.23-1.47-.26-1.7-.43-3.23-.62-5.63-.67-11.29-1.15-16.93-.75-8.87-1.86-17.66-1.96-26.57-.09-7.82.08-15.65.24-23.47.07-3.26.14-6.52.17-9.78.02-1.92.1-3.88-.07-5.79-.13-1.53-.49-3.1-1.99-3.9-2.44-1.3-5.08.13-5.69,2.69-.67,2.79-.45,6-.5,8.84-.17,9.7-.09,19.43.27,29.13.27,7.23.31,14.43.07,21.67-.07,2.1-.17,4.19-.35,6.28-.08.92-.18,1.83-.28,2.74-.03.23-.13.92,0,.02-.03.19-.05.38-.08.57-.07.47-.15.93-.23,1.4-.3,1.68-.7,3.35-1.22,4.98-.24.75-.5,1.5-.79,2.23-.06.16-.13.33-.2.49.32-.83.15-.35.07-.16-.2.45-.4.89-.62,1.33-1.08,2.2-2.33,4.33-3.72,6.35-.33.48-.67.96-1.02,1.44-.08.11-.57.76-.22.31-.15.2-.31.39-.47.59-.75.94-1.54,1.85-2.36,2.73-1.36,1.46-2.81,2.85-4.35,4.13-.34.28-.68.56-1.02.83-.14.11-.57.42.09-.07-.15.11-.29.22-.44.33-.69.51-1.39,1-2.1,1.47-1.1.72-2.23,1.39-3.4,1.97-.2.1-.39.19-.59.29-.17.08-.96.41-.21.11.88-.36-.4.15-.44.16-.69.26-1.39.51-2.09.74-5.3,1.74-10.29,2.52-15.66,2.84s-10.4.35-15.54-.06c-.83-.07-1.65-.15-2.47-.25-.3-.04-1.34-.18-.52-.06-.59-.08-1.17-.17-1.76-.26-2.09-.33-4.16-.72-6.22-1.18s-4.06-.97-6.05-1.62c-.82-.26-1.62-.56-2.42-.88.76.3.07.02-.26-.13s-.67-.34-.99-.53c-.89-.51-1.74-1.09-2.56-1.71.55.42-.03-.04-.17-.15-.22-.18-.43-.36-.64-.54-.42-.37-.82-.75-1.22-1.14-.71-.7-1.36-1.45-2-2.22-.46-.54-.12-.14-.03-.02-.13-.18-.26-.35-.39-.53-.36-.49-.7-1-1.02-1.51-.54-.84-1.03-1.71-1.49-2.6-.23-.45-.45-.9-.66-1.36-.09-.2-.18-.41-.27-.61.31.71-.08-.2-.14-.35-.79-2.01-1.4-4.09-1.85-6.2-.22-1.01-.4-2.03-.55-3.06.11.75-.05-.48-.08-.72-.07-.63-.12-1.27-.16-1.91-.14-2.14-.14-4.3-.01-6.44.06-1.04.16-2.07.28-3.11.09-.75.02-.18,0-.03.04-.28.08-.57.13-.85.1-.62.21-1.24.33-1.85.48-2.42,1.1-4.82,1.94-7.15.75-2.1,1.85-4.36,3.31-6.5.65-.95,1.09-1.5,2.01-2.46.43-.45.87-.88,1.33-1.29.55-.49,1.01-.87,1.32-1.1,8.21-5.94,18.8-7.9,28.86-6.83.96.1,1.97.26,3.23.51,1.39.28,2.78.63,4.14,1.04,2.51.77,4.28,1.49,6.55,2.71.93.5,1.84,1.04,2.73,1.62.52.34,1.04.69,1.54,1.05.2.15.4.29.6.44.96.72-.51-.44.42.33,1.82,1.51,3.52,3.12,5.06,4.91.32.37.64.76.94,1.14-.37-.47.12.15.2.27.15.2.29.4.43.6.68.95,1.31,1.93,1.89,2.94.55.95,1.06,1.93,1.52,2.93-.03-.08.45,1.02.25.56s.25.65.22.57c.22.57.42,1.14.61,1.72.34,1.04.62,2.11.86,3.18.1.48.19.96.28,1.44,0-.05.16,1.12.09.55-.05-.44.05.59.06.7.09,1.04.12,2.08.09,3.12-.02.52-.06,1.04-.1,1.56-.06.74-.01.19.01.03-.05.34-.11.68-.17,1.02-.19,1.01-.46,2-.81,2.97.01-.04-.41.99-.19.5.18-.41-.12.23-.16.32-.27.56-.58,1.1-.92,1.63-.13.19-.85,1.14-.42.62-.37.44-.76.87-1.18,1.27-.15.15-1.08.94-.6.56-.55.43-1.17.81-1.79,1.14-1.62.86-3.8,1.16-5.5.71-.26-.07-.52-.15-.77-.24-1.18-.41.19.13-.4-.18-.47-.24-.92-.52-1.35-.82.55.39-.44-.43-.6-.6-.18-.19-.36-.39-.53-.6.41.5,0-.04-.15-.26-.23-.35-.43-.72-.62-1.09-.12-.23-.23-.47-.34-.71-.26-.56.29.83-.05-.13-.31-.87-.61-1.73-.87-2.61-.58-1.93-1.08-3.88-1.85-5.74-.61-1.49-1.84-2.83-3.62-2.75s-3.05,1.13-3.62,2.75c-.81,2.3-2.04,4.73-3.72,7.18-.68.98.43-.47-.33.44-.24.29-.48.58-.73.86-.42.46-.86.91-1.31,1.34-.27.26-.56.5-.84.74-.87.77.53-.32-.43.33-.62.43-1.25.84-1.92,1.2-.31.17-.63.32-.95.48.59-.28.08-.03-.05.02-.65.23-1.3.45-1.97.61-.34.08-.68.14-1.01.21-.14.03-.73.08-.03,0-.8.08-1.6.12-2.41.08-.23,0-.46-.03-.68-.04-1.08-.04.7.18-.36-.04-.66-.13-1.32-.27-1.97-.48-.21-.07-.42-.15-.63-.22.77.27-.22-.11-.32-.16-.3-.15-.59-.31-.87-.48-.11-.07-1-.7-.7-.46.42.33-.4-.37-.38-.35-.24-.23-.48-.47-.7-.72s-.47-.63-.78-1.18c-.4-.72-.45-.79-.73-1.73-.12-.39-.22-.79-.31-1.19-.02-.11-.21-1.19-.13-.62-.19-1.35-.16-2.77.01-4.11-.1.81.08-.36.09-.43.07-.35.15-.71.24-1.06.18-.7.42-1.39.66-2.07.39-1.08-.32.59.19-.44.11-.22.21-.44.32-.65.33-.65.7-1.28,1.1-1.89.2-.3.41-.6.63-.9-.34.46.03-.03.09-.11.55-.65,1.12-1.28,1.75-1.87,1.68-1.58,3.8-2.81,6.09-3.47.77-.22,1.55-.39,2.34-.52-.78.13.41-.04.47-.05.37-.03.74-.05,1.11-.07.86-.03,1.73,0,2.59.07.25.02.49.05.74.08-.73-.1.7.14.83.17.72.15,1.44.35,2.14.57.35.11.7.24,1.04.37.42.17.46.18.13.05.22.1.45.2.67.31.66.33,1.3.69,1.92,1.08.95.61.73.44,1.58,1.19,1.52,1.33,3.8,1.5,5.3,0,1.36-1.36,1.53-3.96,0-5.3h0Z"/><path class="cls-1" d="m105.29,49.24c.51-.51-.7.31.01-.03.1-.05.79-.42.3-.19s.37-.12.4-.13c.25-.08.51-.15.77-.22.59-.15,1.19-.27,1.79-.37.1-.02,1.01-.14.48-.08s.35-.04.45-.05c2.91-.32,5.82-.59,8.74-.88,6.85-.69,13.69-1.38,20.54-2.08,1.95-.2,3.85-1.58,3.75-3.75-.08-1.86-1.66-3.96-3.75-3.75-7.33.74-14.67,1.48-22,2.23-3.07.31-6.15.56-9.21.98-2.69.37-5.59,1.01-7.57,3-1.43,1.44-1.44,3.87,0,5.3s3.87,1.44,5.3,0h0Z"/></g></svg>