<?xml version="1.0" encoding="UTF-8"?><svg id="Calque_2" xmlns="http://www.w3.org/2000/svg" viewBox="0 0 465.84 721.68"><g id="Calque_1-2"><path d="m92.58,718.8c-2.5-29.86-4-59.8-4.48-89.75-.48-29.85.04-59.71,1.56-89.52.76-14.85,1.77-29.69,3.02-44.5,1.12-13.17,2.45-26.39,5.91-39.18,3.19-11.79,8.35-22.98,16.16-32.43,7.12-8.62,15.86-15.72,25.43-21.45s20.21-10.29,31.01-13.71c11.83-3.75,24.12-6.48,36.47-7.75,13.63-1.4,27.57-.93,40.69,3.31,10.24,3.31,19.65,8.91,27.76,15.97,16.72,14.55,28.16,34.24,37.34,54.16,5.21,11.32,9.72,22.96,14.07,34.64,4.9,13.18,9.46,26.49,13.66,39.91,8.46,27.04,15.49,54.53,21.06,82.32s9.6,55.54,12.16,83.6c.62,6.84,1.16,13.7,1.61,20.55.25,3.83,6.25,3.86,6,0-1.88-28.75-5.31-57.41-10.25-85.8s-11.38-56.4-19.32-84.04c-7.82-27.23-16.99-54.14-27.78-80.34-8.71-21.13-19.08-42.08-34.33-59.32-7.3-8.25-15.82-15.56-25.46-20.94-11.32-6.31-23.89-9.67-36.79-10.51-14.02-.92-28.15.98-41.82,4-11.51,2.54-22.78,6.09-33.58,10.81-21.13,9.23-40.65,23.8-51.7,44.46-6.37,11.9-9.72,25.11-11.71,38.39-2.12,14.15-3.08,28.49-4.08,42.75-2.13,30.33-3.21,60.74-3.26,91.15-.05,30.41.95,60.82,2.99,91.16.49,7.36,1.05,14.72,1.67,22.07.32,3.82,6.32,3.85,6,0h0Z"/><path d="m97.37,147.76l-1.97,91.36c-.65,30.31-1.31,60.63-1.96,90.94-.37,17.18-.74,34.36-1.11,51.55l3-3c-24.28,2.73-45.6,20.96-51.57,44.77l5.01-1.32c-10.37-13.29-29.25-31.26-47.28-20.83l4.51,2.59c.88-35.43,2.6-70.85,5.18-106.2s6.05-70.91,10.36-106.24c2.14-17.5,4.47-34.97,7.05-52.41,2.19-14.8,4.7-30.06,11.57-43.51,7.07-13.83,18.85-23.75,31.67-32.1,12.99-8.47,26.65-15.95,40.67-22.58,28.11-13.29,57.99-22.86,88.55-28.6,30.55-5.73,61.87-7.5,92.87-5.18,13.74,1.03,28.64,2.89,40.01,11.38s16.29,23.65,20.56,37.04c10.51,32.97,20.61,66.14,28.06,99.96s11.84,65.91,11.78,99.39-4.42,64.42-14.79,94.93c-2.49,7.33-5.33,14.54-8.53,21.59h5.18c-8.3-11.02-17.5-23.17-31.17-27.64-11.35-3.72-25.2-1.37-32.29,8.9l4.71-.61c-14.39-11.56-14.4-32.29-14.55-49.14-.22-24.54-1.58-49.07-4.12-73.48-2.54-24.4-6.21-48.69-11.04-72.75-1.21-6.02-2.48-12.02-3.83-18-1.18-5.25-1.96-11.12-4.62-15.89-5.25-9.42-17.72-8.51-26.9-10.34-22.93-4.58-44.45-15.4-61.72-31.17-.92-.84-2.52-1.24-3.64-.47-12.33,8.53-21.22,20.55-30.74,31.92-9.17,10.95-19.66,21.41-33.62,25.84-7.44,2.37-15.14,2.54-22.43-.42-1.51-.61-3.28.67-3.69,2.1-.49,1.71.6,3.08,2.1,3.69,14.03,5.7,29.55.71,41.49-7.46,12.6-8.63,21.44-21.08,31.2-32.58,5.6-6.59,11.58-12.96,18.72-17.9l-3.64-.47c15.46,14.11,34.11,24.53,54.25,30.26,5.12,1.46,10.33,2.6,15.6,3.42,4.54.7,9.78.69,13.95,2.83,4.82,2.48,5.61,8.27,6.73,13.05,1.36,5.84,2.65,11.7,3.87,17.57,10.01,48.06,15.38,97.07,16.05,146.16.27,19.54-.49,43.93,16.35,57.47,1.58,1.27,3.53,1.11,4.71-.61,5.78-8.38,17.78-9.01,26.57-5.78,11.46,4.21,19.46,15.14,26.52,24.51,1.2,1.59,4.15,2.28,5.18,0,13.59-29.96,20.87-62.31,23.25-95.06s-.32-67.41-6.15-100.56-15.58-68.82-25.98-102.51c-2.56-8.3-5.18-16.59-7.83-24.87-2.26-7.04-4.65-14.1-8.05-20.68s-7.98-12.54-13.94-17.04-12.58-7.2-19.55-9.04C303.39.68,287.75.26,272.79.04c-15.92-.24-31.85.59-47.67,2.45-31.67,3.72-62.83,11.44-92.52,23.1-14.83,5.83-29.3,12.59-43.26,20.29s-27.55,15.67-38.99,26.38c-11.52,10.79-18.62,24.47-22.66,39.61s-5.96,32.41-8.17,48.63c-4.89,35.94-8.92,71.99-12.04,108.12-3.12,36.14-5.35,72.36-6.68,108.61-.32,8.86-.6,17.71-.81,26.57-.06,2.3,2.58,3.71,4.51,2.59,7.02-4.06,14.7-1.97,21.23,2.04,7.38,4.53,13.48,11.07,18.77,17.85,1.42,1.81,4.51.68,5.01-1.32,5.27-21.01,24.15-37.93,45.78-40.36,1.64-.18,2.96-1.23,3-3,.66-30.45,1.32-60.91,1.97-91.36.65-30.31,1.31-60.63,1.96-90.94.37-17.18.74-34.36,1.11-51.55.08-3.86-5.92-3.86-6,0h0Z"/><path d="m92.95,334.09c5.3,13.73,15.12,25.09,27.25,33.29,13.48,9.12,29.48,13.73,45.56,15.29,15.74,1.53,31.82.17,47.23-3.31,14.71-3.32,28.98-8.76,42.22-15.98,13.23-7.21,25.5-16.3,36.2-26.91,1.33-1.32,2.64-2.67,3.93-4.05,2.64-2.81-1.59-7.07-4.24-4.24-9.9,10.55-21.24,19.64-33.67,27.03-12.43,7.39-25.82,13.06-39.78,16.81-14.32,3.85-29.19,5.69-44.02,5.16-15.58-.55-31.35-3.92-45.01-11.66-11.8-6.68-21.92-16.48-27.96-28.7-.71-1.45-1.34-2.87-1.91-4.34s-2.02-2.56-3.69-2.1c-1.44.4-2.68,2.17-2.1,3.69h0Z"/><g><path d="m145.53,212.34c-.97,5.58-.2,11.46,2.18,16.6,1.44,3.11,4.21,6.31,7.6,5.81,3.05-.45,4.86-3.72,5.46-6.74,1.42-7.08-1.09-14.39-4.61-20.69-.83-1.48-1.75-2.97-3.12-3.96s-3.32-1.36-4.77-.49c-2.27,1.37-3.17,6.85-2.73,9.47"/><path d="m142.64,211.55c-1.12,6.72-.35,14.08,3.08,20.08,1.53,2.67,3.94,5.23,7.04,5.96,3.45.82,6.67-.82,8.69-3.58,3.83-5.24,3.14-13.06,1.35-18.92-.98-3.22-2.4-6.34-4.04-9.28s-3.83-5.68-7.28-6.28c-7.52-1.29-9.69,7.94-8.84,13.61.24,1.6,2.26,2.49,3.69,2.1,1.72-.47,2.34-2.08,2.1-3.69.12.8,0-.37,0-.58,0-.39.01-.78.04-1.17.06-.79.16-1.41.47-2.48.27-.93.23-.8.75-1.72.27-.49.08-.12,0,0,.06-.07.24-.28.34-.33-.62.31.07.1.3.13,1.46.14,2.67,2.38,3.47,3.83,1.16,2.12,2.19,4.31,2.95,6.61,1.37,4.11,2.24,9.4.59,13.34-.4.95-.79,1.6-1.5,2.19.33-.27-.73.42-.34.25-.51.22-.65.26-1.24.18.41.05-.71-.28-.47-.17-.26-.12-.75-.45-.87-.54-.8-.65-1.39-1.45-1.9-2.32-2.67-4.53-3.42-10.49-2.57-15.62.27-1.6-.42-3.23-2.1-3.69-1.44-.39-3.42.49-3.69,2.1h0Z"/></g><g><path d="m211.06,207.33c-.97,5.58-.2,11.46,2.18,16.6,1.44,3.11,4.21,6.31,7.6,5.81,3.05-.45,4.86-3.72,5.46-6.74,1.42-7.08-1.09-14.39-4.61-20.69-.83-1.48-1.75-2.97-3.12-3.96s-3.32-1.36-4.77-.49c-2.27,1.37-3.17,6.85-2.73,9.47"/><path d="m208.16,206.54c-1.12,6.72-.35,14.08,3.08,20.08,1.53,2.67,3.94,5.23,7.04,5.96,3.45.82,6.67-.82,8.69-3.58,3.83-5.24,3.14-13.06,1.35-18.92-.98-3.22-2.4-6.34-4.04-9.28s-3.83-5.68-7.28-6.28c-7.52-1.29-9.69,7.94-8.84,13.61.24,1.6,2.26,2.49,3.69,2.1,1.72-.47,2.34-2.08,2.1-3.69.12.8,0-.37,0-.58,0-.39.01-.78.04-1.17.06-.79.16-1.41.47-2.48.27-.93.23-.8.75-1.72.27-.49.08-.12,0,0,.06-.07.24-.28.34-.33-.62.31.07.1.3.13,1.46.14,2.67,2.38,3.47,3.83,1.16,2.12,2.19,4.31,2.95,6.61,1.37,4.11,2.24,9.4.59,13.34-.4.95-.79,1.6-1.5,2.19.33-.27-.73.42-.34.25-.51.22-.65.26-1.24.18.41.05-.71-.28-.47-.17-.26-.12-.75-.45-.87-.54-.8-.65-1.39-1.45-1.9-2.32-2.67-4.53-3.42-10.49-2.57-15.62.27-1.6-.42-3.23-2.1-3.69-1.44-.39-3.42.49-3.69,2.1h0Z"/></g><path d="m212.58,311.03c10.11-.88,19.51-6.97,24.04-16.14.72-1.45.39-3.25-1.08-4.1-1.32-.77-3.38-.38-4.1,1.08-.47.94-.98,1.86-1.56,2.74-.26.39-.71,1.04-.86,1.24-.08.11-.62.76-.86,1.04-.69.79-1.44,1.54-2.22,2.24-.93.84-1.28,1.11-2.25,1.77-1.68,1.15-3.63,2.17-5.16,2.74-1.04.38-2.09.7-3.17.95-.51.12-1.03.22-1.55.31-.15.02-.71.1-.3.05-.31.04-.63.07-.94.09-1.61.14-3,1.28-3,3,0,1.51,1.38,3.14,3,3h0Z"/><path d="m329.04,483.99c13.9-6.07,27.15-13.59,39.53-22.37,12.53-8.89,24.19-18.99,34.77-30.14s20.03-23.23,28.29-36.11c8.26-12.89,15.24-26.58,20.88-40.81s9.8-28.87,12.4-43.87c.32-1.82.61-3.65.88-5.49.24-1.6-.4-3.22-2.1-3.69-1.41-.39-3.45.48-3.69,2.1-2.19,14.89-5.94,29.53-11.11,43.66-5.1,13.96-11.65,27.43-19.41,40.21s-16.68,24.75-26.74,35.83c-10.01,11.03-21.14,21.25-33.02,30.09-12.06,8.98-25.02,16.77-38.65,23.13-1.68.78-3.37,1.54-5.06,2.28-1.49.65-1.83,2.82-1.08,4.1.9,1.53,2.61,1.73,4.1,1.08h0Z"/></g></svg>