<?xml version="1.0" encoding="UTF-8"?><svg id="Calque_2" xmlns="http://www.w3.org/2000/svg" viewBox="0 0 35.67 36.49"><g id="github"><g><path d="m17.04,34.83c-.13-2.28-.22-4.5.1-6.77.08-.56.11-1.11.17-1.66-.1.97.05.1.04.12.15-.27-.06.13.02-.19.29-1.17,1.33-1.88,2.33-2.44,1.25-.71.75-2.88-.76-2.8s-3.09-.03-4.49-.67c-2.17-.99-3.31-3.17-3.51-5.48-.12-1.42.03-2.87.4-4.24.19-.68.42-1.32.78-1.92.34-.57.87-.98.9-1.69.05-1.3-.76-2.54-.59-3.9-.02.16.1-.4.13-.54.08-.37.15-.74.17-1.13l-1.9,1.45c.8.32,1.64.54,2.41.92.84.42,1.36,1.28,2.25,1.56,1.19.38,2.25-.12,3.39-.43.75-.21,1.46-.23,2.24-.23.89,0,1.79-.04,2.67.11,1.11.19,2.26.76,3.39.72,1.2-.04,1.64-.85,2.55-1.4,1.02-.61,2.26-.84,3.32-1.4l-2.26-1.3c.02.4.08.79.17,1.19.03.14.15.69.13.54.15,1.28-.46,2.41-.57,3.64-.07.83.48,1.24.87,1.89.33.55.55,1.14.73,1.76.41,1.42.58,2.93.45,4.4-.2,2.27-1.3,4.42-3.41,5.43-1.43.68-3.04.8-4.6.72s-2.01,2.08-.76,2.8c1.11.64,1.97,1.28,2.46,2.4-.15-.35.05.71.03-.13.01.6.11,1.17.11,1.77,0,2.34.17,4.77.33,7.11.13,1.92,3.13,1.93,3,0-.08-1.19-.03-2.39-.12-3.58-.06-.89-.24-1.75-.24-2.65,0-.23-.12-2.36-.11-2.36-.34.21.08,1.01-.02.04,0-.07,0-.16,0-.23,0-.56-.17-1.09-.4-1.59-.71-1.52-2.12-2.55-3.53-3.36l-.76,2.8c3.5.19,7.1-.85,9.22-3.82,2.79-3.9,2.45-10.65-.73-14.24l.39,1.46c.36-1.33.75-2.76.65-4.16-.03-.4-.1-.79-.19-1.18-.03-.12-.06-.24-.09-.36-.08-.4-.02.02-.03-.27-.05-1.16-1.23-1.84-2.26-1.3-.97.52-2.04.76-3.02,1.25-.4.2-.8.44-1.13.75-.58.52-.12.44-.85.25-1.95-.5-3.77-.72-5.78-.68-.74.01-1.48.05-2.21.21-.41.09-.81.22-1.21.35-.23.07-.49.2-.73.22-.37.03.17.19-.2-.1-1.49-1.17-3.03-1.7-4.78-2.4-.96-.38-1.86.57-1.9,1.45,0,0-.04.21-.12.57-.09.39-.16.79-.19,1.19-.09,1.41.29,2.86.65,4.21l.39-1.46c-3.18,3.59-3.52,10.34-.73,14.24,2.12,2.96,5.71,4.01,9.22,3.82l-.76-2.8c-1.41.8-2.71,1.85-3.39,3.35-.24.54-.4,1.1-.43,1.7,0,.12,0,.24,0,.36-.02.9-.02.3.03.24-.02-.34-.05-.32-.09.04-.03.17-.06.35-.08.52-.06.4-.1.79-.13,1.19-.06.63-.15,1.27-.18,1.9-.07,1.4.06,2.83.14,4.22.11,1.92,3.11,1.93,3,0h0Z"/><path d="m13.59,30.29l.18.09c.17.11.36.17.56.18.2.04.4.04.6-.03.2-.05.37-.14.51-.27.16-.11.29-.25.39-.42l.15-.36c.07-.27.07-.53,0-.8l-.15-.36c-.13-.23-.31-.4-.54-.54l-.18-.09c-.17-.11-.36-.17-.56-.18-.2-.04-.4-.04-.6.03-.2.05-.37.14-.51.27-.16.11-.29.25-.39.42l-.15.36c-.07.27-.07.53,0,.8l.15.36c.13.23.31.4.54.54h0Z"/><path d="m14.45,27.44c-1.39,0-2.63-.46-3.96-.79-1.15-.28-2.29-.54-3.3-1.2-.2-.13.01.02-.11-.09-.1-.09-.21-.19-.3-.29-.23-.23-.44-.47-.65-.73-.07-.09-.27-.35-.4-.55-.11-.16-.2-.33-.3-.5-.78-1.47-1.83-2.68-3.23-3.6-1.62-1.05-3.13,1.54-1.51,2.59.56.36,1.06.82,1.46,1.35.38.5.61,1.09.95,1.61.72,1.12,1.66,2.29,2.84,2.94s2.5,1.03,3.84,1.37c1.56.39,3.03.88,4.66.87,1.93-.01,1.93-3.01,0-3h0Z"/></g></g></svg>