<?xml version="1.0" encoding="UTF-8"?><svg id="Calque_2" xmlns="http://www.w3.org/2000/svg" viewBox="0 0 160.96 122.73"><defs><style>.cls-1{fill:#1d1d1b;}</style></defs><g id="Calque_1-2"><path class="cls-1" d="m64.85,61.51c-6.27-5.5-14.46-7.6-22.64-6.27-7.61,1.24-14.47,6.56-17.94,13.39-3.96,7.8-4.14,17.69,1.67,24.65,4.94,5.91,14.11,7.33,21.14,4.89,8.88-3.09,14.49-11.05,17.49-19.62h-9.64c1.17,2.85,1.75,5.9,2.86,8.78,1.47,3.82,3.61,7.16,7.17,9.35,4,2.46,9.22,2.98,13.66,1.48s7.64-4.2,10.19-7.82c4.44-6.31,4.75-14.79,3.15-22.08s-5.65-14.41-10.9-19.94c-11.86-12.51-29.72-16.71-46.35-13.68-8.34,1.52-16.9,4.98-23.03,10.98S2.53,59.68,1.04,67.76c-2.58,14.02-.59,29.31,8.53,40.67,2.19,2.72,4.88,5.05,7.81,6.94,2.51,1.63,5.37,2.68,8.23,3.53,6.18,1.84,12.71,2.99,19.14,3.5,8.43.67,17.12.36,25.47-.95,6.1-.96,12.32-2.65,17.64-5.88s9.83-7.27,13.62-11.97c4.4-5.46,8.11-11.59,10.03-18.38,1.7-6,2.07-12.35,2.26-18.55.18-5.99.35-12.02.09-18-.56-13.13-.87-26.34-.34-39.47.04-.91.08-1.83.16-2.74.01-.14.04-.27.04-.41.02-.62-.29,1.51-.11.84.02-.09.02-.18.05-.27,0-.01.03-.11.03-.11.26.24-1.3,2.17-1.22,2.1l-2.21,1.29h.02c-.89,0-1.77,0-2.66,0-1.82-.3-2.98-1.95-3.41-3.38.01.04.02.08.03.12.17.64-.16-1.76-.12-.89.02.46.05.91.07,1.36.04,1.45.02,2.91,0,4.36-.04,4.4-.15,8.79-.24,13.19-.19,9.74-.5,19.52,0,29.26.35,6.8,1.23,13.55,1.82,20.33.66,7.52.74,15.06,1.79,22.55.8,5.71,1.82,12.6,5.75,17.09,2.55,2.92,6.45,4.58,10.3,4.64,3.16.05,6.59-.76,9.6-1.68,12.83-3.91,22.77-13.74,27.51-26.15.94-2.45-1.03-5.59-3.49-6.15-2.85-.65-5.15.87-6.15,3.49-.19.5-.94,2.08-.08.25-.27.58-.52,1.18-.81,1.76-.73,1.48-1.56,2.92-2.47,4.3-.25.37-.5.74-.76,1.1-.15.21-.3.41-.45.62-.56.78.16.03.11-.13.11.36-1.91,2.25-2.2,2.55-.75.79-1.53,1.55-2.34,2.28-.48.42-.96.83-1.46,1.23-.71.58-.05.04.08-.06-.38.28-.76.55-1.14.82-1.15.79-2.34,1.52-3.57,2.18-.63.34-1.27.65-1.92.95-.21.1-1.15.5-.28.14-.41.17-.82.33-1.24.48-1.24.46-2.5.85-3.78,1.17-.56.14-1.12.27-1.69.39-.33.07-1.86.54-2.12.37.03.02,1.28-.15.33-.05-.21.02-.42.05-.64.07-.45.04-1.38-.15-1.79,0,.53-.21.87.19.28.02-.33-.1-.68-.19-1.01-.28-.69-.18.04.15.23.11-.19.04-.73-.38-.92-.5-.13-.08-.86-.76-.34-.21.56.59-.22-.24-.28-.3-.01-.01-.47-.43-.47-.51l.35.46c-.1-.14-.2-.29-.3-.44-.16-.25-.29-.52-.44-.77-.46-.79.09.13.11.29-.06-.49-.4-1.07-.56-1.55-.64-1.92-1.12-3.89-1.52-5.87-.24-1.21-.45-2.42-.64-3.64-.04-.26-.08-.51-.11-.77-.14-.94,0-.02.02.15-.13-.81-.2-1.64-.29-2.46-.63-5.84-.68-11.71-1.18-17.56-.8-9.35-1.95-18.63-2.06-28.03-.09-8.19.09-16.37.26-24.56.07-3.43.14-6.85.18-10.28.02-2.01.1-4.05-.07-6.05s-.72-3.76-2.62-4.98c-3.08-1.99-6.78.31-7.55,3.51s-.51,6.64-.56,9.78c-.17,10.18-.09,20.38.3,30.56.29,7.6.31,15.19.06,22.8-.08,2.26-.19,4.52-.39,6.78-.08.91-.18,1.82-.29,2.73-.13,1.09.19-1.24.02-.17-.03.19-.06.38-.09.57-.08.51-.17,1.02-.26,1.53-.33,1.73-.75,3.44-1.29,5.11-.26.8-.56,1.58-.86,2.36-.41,1.05.48-1.06-.07.15-.22.49-.45.98-.7,1.46-1.17,2.32-2.51,4.56-4,6.68-.36.52-.72,1.11-1.15,1.58.83-.91-.31.39-.5.62-.8.97-1.63,1.92-2.49,2.83-1.41,1.48-2.9,2.89-4.47,4.19-.37.31-.77.59-1.13.91,1.18-1.05.02-.02-.31.21-.68.49-1.37.97-2.08,1.42-1.11.71-2.26,1.38-3.44,1.96-.22.11-.43.21-.65.31-1.06.51.93-.35.43-.17-1.2.43-2.39.89-3.61,1.27-2.75.86-5.57,1.51-8.42,1.98-.37.06-.73.11-1.1.17-.98.15-.19.03,0,0-.74.1-1.48.18-2.22.26-1.49.15-2.98.26-4.48.34-5.29.28-10.7.32-15.98-.15-.9-.08-1.79-.19-2.69-.29-.39-.05-1.03-.29.25.04-.2-.05-.43-.06-.63-.09-.65-.09-1.3-.2-1.95-.3-2.15-.36-4.3-.77-6.43-1.26s-4.23-1.04-6.29-1.74c-.41-.14-.82-.28-1.22-.44-.21-.08-.43-.17-.64-.25-.75-.29.44.17.47.2-.67-.52-1.67-.83-2.4-1.29-.43-.27-.86-.56-1.28-.85-.08-.05-1.01-.66-.31-.21s-.2-.17-.29-.24c-.86-.71-1.68-1.47-2.45-2.27-.58-.61-1.64-1.46-1.96-2.25l.38.49c-.13-.18-.26-.35-.39-.53-.13-.18-.26-.36-.38-.54-.34-.5-.67-1.01-.99-1.53-.55-.9-1.05-1.83-1.52-2.78-.2-.41-.68-1.08-.7-1.52,0,.08.45,1.11.11.26-.12-.31-.25-.63-.37-.95-.79-2.13-1.4-4.34-1.85-6.57-.09-.45-.17-.9-.25-1.36-.06-.34-.11-.68-.16-1.03-.08-.53-.28-.33.04.3-.2-.39-.15-1.29-.19-1.73-.05-.58-.09-1.16-.13-1.74-.13-2.32-.1-4.64.07-6.96.04-.52.08-1.04.14-1.55.03-.29.07-.57.1-.86.04-.39-.11-.73-.05.3-.06-1.06.37-2.34.58-3.38.55-2.68,1.27-5.34,2.24-7.9.1-.26.2-.51.3-.77.48-1.23-.31.6.06-.13.27-.55.52-1.11.8-1.66.65-1.27,1.39-2.5,2.21-3.67.15-.22.72-.96.07-.13.17-.21.34-.43.52-.64.44-.53.9-1.03,1.38-1.52.43-.44.88-.86,1.35-1.27.26-.23.52-.44.79-.66,1.04-.87-.82.56.3-.22s2.17-1.46,3.32-2.1c.55-.3,1.1-.59,1.66-.87.31-.15.63-.3.94-.45.13-.06,1.34-.57.74-.33-.71.28.57-.22.56-.22.26-.1.52-.2.78-.29.66-.24,1.33-.47,2-.68,1.37-.44,2.75-.81,4.15-1.14s2.68-.53,4.02-.76c.84-.15-1.22.13.17-.02.29-.03.57-.07.86-.09.86-.09,1.72-.15,2.58-.2,2.72-.14,5.46-.06,8.16.24,0,0,1.39.19.61.07s.61.1.61.1c.7.12,1.41.25,2.11.4,1.4.3,2.78.66,4.14,1.08,1.23.38,2.43.82,3.62,1.31-.94-.39-.05-.02.18.09.33.15.65.3.97.45.57.27,1.12.56,1.68.86,1.1.6,2.18,1.25,3.22,1.95.47.31.93.64,1.39.97.25.18.51.37.75.56-.65-.52-.23-.17.17.15,1.88,1.55,3.63,3.27,5.2,5.13.2.24.4.48.6.72.58.69,0-.01-.09-.13.39.48.75,1,1.1,1.51.71,1.02,1.36,2.07,1.97,3.15s1.07,2.08,1.57,3.15c.33.7-.43-1.14,0,0,.09.23.18.46.27.69.24.63.46,1.27.66,1.92.35,1.12.64,2.25.87,3.4.11.53.38,1.27.31,1.8.01-.09-.13-1.23-.05-.3.03.35.07.69.09,1.04.08,1.1.09,2.21.04,3.31-.01.28.08,1.37-.13,1.56.31-.29.16-1,.01-.13-.07.4-.14.79-.23,1.19-.11.5-.24,1-.39,1.5-.13.42-.47,1.01-.5,1.45.05-.85.28-.63.03-.1-.12.26-.25.51-.38.76-.27.5-.56.99-.88,1.46l-.19.28c-.32.44-.26.37.16-.19-.04.13-.38.45-.45.53-.39.44-.8.85-1.23,1.24-.07.07-.54.43-.54.46-.02-.2.77-.53.15-.12-.66.43-1.31.84-2.02,1.2-.82.42-.08.02.09-.03-.32.1-.63.22-.95.31s-.64.16-.96.24c-.94.24.03.05.16,0-.55.19-1.39.05-1.96.05-.98,0,.03.06.16.05-.35.03-.81-.16-1.16-.26-.2-.06-1.43-.52-.31-.04-.23-.1-.47-.22-.69-.34-.26-.14-.52-.29-.76-.45l-.15-.09c-.45-.31-.38-.25.2.18-.27,0-.89-.81-1.06-1-.07-.07-.47-.61-.52-.6.19-.04.69.99.05,0-.28-.44-.53-.9-.76-1.37-.04-.09-.23-.56-.27-.57.2.06.39,1,.14.32-.37-1.01-.71-2.02-1.02-3.06-.59-1.97-1.11-3.96-1.89-5.87s-2.45-3.78-4.82-3.67-4.06,1.51-4.82,3.67c-.25.72-.5,1.45-.81,2.14.53-1.17-.02.01-.11.21-.16.35-.33.69-.5,1.03-.7,1.37-1.52,2.65-2.38,3.92-.71,1.06.68-.77-.15.2-.25.29-.49.58-.74.87-.51.56-1.04,1.11-1.6,1.62-.28.26-.57.5-.86.74-.71.61.03.02.11-.08-.52.6-1.56,1.06-2.25,1.43-.16.09-.78.51-.96.48l.56-.23c-.21.09-.43.17-.65.25-.66.24-1.33.43-2.01.58-.23.05-.46.09-.69.14-1.19.25,1.15-.06-.06.02-.82.06-1.62.11-2.44.07-.13,0-.97.02-1.04-.08l.64.09c-.23-.03-.45-.07-.68-.12-.56-.11-1.11-.25-1.66-.42-.19-.06-.84-.18-.96-.34l.57.24c-.2-.09-.41-.19-.61-.3-.3-.16-.59-.32-.87-.5-.19-.12-.38-.24-.56-.37.56.45.63.51.22.17-.46-.42-.88-.87-1.32-1.31s.55.97-.06-.11c-.2-.36-.43-.69-.63-1.06-.1-.19-.58-1.41-.17-.3-.14-.39-.28-.77-.39-1.17s-.21-.79-.3-1.2c-.06-.27-.11-.54-.15-.81.08.65.09.68.03.1-.03-.64-.08-1.27-.07-1.91,0-.36.02-.73.05-1.09.03-.4-.14-1.34-.02-.11-.06-.63.28-1.52.44-2.13.19-.71.43-1.39.67-2.08.4-1.17-.5.95.07-.15.17-.33.32-.66.49-.98.34-.65.72-1.28,1.12-1.88.19-.28.39-.66.63-.9-.9.85-.05.08.13-.13.48-.56.98-1.09,1.52-1.59.27-.25.54-.5.82-.74.26-.22.88-1.03.14-.13.42-.5,1.29-.89,1.85-1.21s1.09-.58,1.64-.85c1.12-.55-1.01.31.18-.06.47-.15.93-.32,1.41-.46.71-.2,1.79-.64,2.53-.55-1.2-.13-.26.04.14,0,.37-.03.74-.05,1.11-.07.87-.03,1.73,0,2.6.06.33.03,1.45-.06.15,0,.46-.02,1.02.17,1.46.27.79.17,1.56.39,2.32.64.29.1.58.21.87.31.52.21.46.18-.17-.08.23.1.45.2.67.31.77.38,1.52.8,2.25,1.27.27.17.7.38.91.63-.81-.97.17.16.42.38,1.97,1.72,5.16,2.08,7.07,0,1.73-1.89,2.1-5.23,0-7.07h0Z"/><path class="cls-1" d="m112.46,53.65c.58-.59-1.06.57-.26.17.2-.1.41-.21.59-.32.33-.2-1.16.37-.1.07.25-.07.5-.15.76-.22.58-.15,1.17-.27,1.76-.37.2-.03.64,0,.81-.13-.74.1-.92.12-.53.07.16-.02.31-.04.47-.06,3.03-.35,6.07-.61,9.1-.92,7.28-.74,14.56-1.47,21.84-2.21,2.59-.26,5.13-2.11,5-5-.11-2.48-2.21-5.28-5-5-7.77.79-15.55,1.57-23.32,2.36-3.3.33-6.6.61-9.88,1.07-2.97.41-6.13,1.21-8.31,3.42-1.84,1.86-2,5.24,0,7.07s5.11,1.99,7.07,0h0Z"/></g></svg>