<?xml version="1.0" encoding="UTF-8"?><svg id="Calque_2" xmlns="http://www.w3.org/2000/svg" viewBox="0 0 41.16 39.42"><g id="mail"><path d="m41.04,22.4c.02-4.69.07-9.46-.24-14.15-.15-2.25-.52-4.81-2.23-6.45C36.75.05,33.99-.01,31.62,0c-5.18.04-10.33-.06-15.51.15-2.22.09-4.44.13-6.65.26-1.91.12-4.04.22-5.81,1.04S1.25,4.25.89,6.04c-.41,2.05-.51,4.14-.68,6.22C-.03,15.23-.05,18.18.07,21.15s.14,5.82.36,8.72c.19,2.46.61,5,2.18,6.99,1.8,2.28,4.31,2.5,7.02,2.33,4.86-.3,9.77.33,14.64.22,2.69-.06,5.41-.16,8.09-.46s5.82-.61,7.5-3.14c1.19-1.78,1.22-3.94,1.26-6,.06-2.47-.05-4.94-.1-7.41s-3.8-2.42-3.75,0c.03,1.87.12,3.74.12,5.61,0,1.63.11,3.52-.29,4.86-.53,1.81-2.21,1.96-3.87,2.21-1.96.29-3.95.38-5.93.47-4.34.19-8.66.09-13-.08-1.19-.05-2.38-.13-3.57-.1-1.12.03-2.26.22-3.38.12-2-.18-2.65-2.19-2.98-3.9-.46-2.38-.34-4.89-.44-7.31-.11-2.64-.26-5.28-.21-7.92.04-2.17.22-4.35.4-6.51.14-1.68.37-3.3.98-4.86.14-.36-.16-.02.08-.13.16-.08.3-.13.64-.22.79-.21,1.61-.31,2.43-.39,1.63-.15,3.28-.18,4.91-.24,4.49-.16,8.97-.39,13.47-.31,1.46.02,2.92.07,4.38.05,1.18-.02,2.41-.08,3.58.17,2.09.45,2.31,2.46,2.44,4.33.31,4.68.26,9.46.24,14.15,0,2.41,3.74,2.42,3.75,0h0Z"/><path d="m1.96,5.46c1.76,1.96,3.51,3.93,5.4,5.76,1.6,1.56,3.27,3.06,4.81,4.67,1.36,1.42,2.69,2.85,4.05,4.27.7.73,1.39,1.46,2.1,2.18.36.36.83.97,1.3,1.19.74.34,1.67.36,2.27-.29,1.79-1.94,3.58-3.84,5.44-5.71,3.87-3.89,7.32-8.14,11.14-12.06,1.69-1.73-.96-4.38-2.65-2.65-3.82,3.92-7.28,8.18-11.14,12.06-1.86,1.87-3.65,3.77-5.44,5.71l2.27-.29c.56.25.26.21.01-.04s-.49-.5-.74-.75c-.73-.75-1.45-1.51-2.17-2.26-1.29-1.36-2.57-2.73-3.86-4.08-1.52-1.59-3.16-3.07-4.74-4.6-1.89-1.83-3.64-3.8-5.4-5.76C3,1.01.35,3.67,1.96,5.46h0Z"/></g></svg>