<?xml version="1.0" encoding="UTF-8"?><svg id="Calque_2" xmlns="http://www.w3.org/2000/svg" viewBox="0 0 40.41 38.67"><g id="mail"><path d="m40.29,22.03c.02-4.69.07-9.46-.24-14.15-.14-2.15-.48-4.62-2.12-6.19C36.18.02,33.51-.01,31.24,0c-5.18.04-10.33-.06-15.51.15-2.22.09-4.44.13-6.65.26-1.84.12-3.91.2-5.62.99S1.21,4.08.88,5.76c-.4,2.02-.5,4.07-.66,6.12C-.03,14.85-.05,17.8.07,20.78s.14,5.82.36,8.72c.18,2.36.58,4.82,2.07,6.73,1.73,2.21,4.14,2.38,6.76,2.22,4.86-.3,9.77.33,14.64.22,2.69-.06,5.41-.16,8.09-.46s5.58-.56,7.18-2.96c1.15-1.72,1.17-3.82,1.21-5.81.06-2.47-.05-4.94-.1-7.41-.04-1.93-3.04-1.93-3,0s.12,3.74.12,5.61c0,1.61.16,3.4-.3,4.96-.58,1.96-2.32,2.2-4.13,2.47-1.99.3-4.01.39-6.03.48-4.34.19-8.66.09-13-.08-1.19-.05-2.38-.13-3.57-.1-1.12.03-2.26.22-3.38.12-2.19-.18-2.98-2.28-3.34-4.18-.46-2.42-.35-4.96-.46-7.4-.11-2.64-.26-5.28-.21-7.92.04-2.17.22-4.35.4-6.51.14-1.61.2-3.63,1.04-5.05.19-.32.39-.38.94-.52.83-.22,1.68-.32,2.53-.4,1.63-.15,3.28-.18,4.91-.24,4.49-.16,8.97-.39,13.47-.31,1.46.02,2.92.07,4.38.05,1.22-.02,2.48-.08,3.68.18,2.28.49,2.58,2.66,2.71,4.69.31,4.68.26,9.46.24,14.15,0,1.93,2.99,1.93,3,0h0Z"/><path d="m1.85,4.82c1.76,1.96,3.51,3.93,5.4,5.76,1.6,1.56,3.27,3.06,4.81,4.67,1.36,1.42,2.69,2.85,4.05,4.27.7.73,1.39,1.46,2.1,2.18.33.34.77.93,1.22,1.13.59.27,1.34.29,1.82-.23,1.79-1.94,3.58-3.84,5.44-5.71,3.87-3.89,7.32-8.14,11.14-12.06,1.35-1.38-.77-3.51-2.12-2.12-3.82,3.92-7.28,8.18-11.14,12.06-1.86,1.87-3.65,3.77-5.44,5.71l1.82-.23c.46.21.14.11-.06-.1-.24-.25-.49-.5-.74-.75-.73-.75-1.45-1.51-2.17-2.26-1.29-1.36-2.57-2.73-3.86-4.08-1.52-1.59-3.16-3.07-4.74-4.6-1.89-1.83-3.64-3.8-5.4-5.76-1.29-1.44-3.41.69-2.12,2.12h0Z"/></g></svg>